<svg xmlns="http://www.w3.org/2000/svg" xmlns:xlink="http://www.w3.org/1999/xlink" width="115" height="115" viewBox="0 0 115 115">
    <defs>
        <linearGradient id="linear-gradient" x1=".5" x2=".5" y1=".635" y2="-.365" gradientUnits="objectBoundingBox">
            <stop offset="0" stop-color="#f7e830"/>
            <stop offset="1" stop-color="#fdcb06"/>
        </linearGradient>
        <linearGradient id="linear-gradient-2" x1=".491" x2=".499" y1="11.655" y2="10.674" gradientUnits="objectBoundingBox">
            <stop offset="0" stop-color="#fada1c"/>
            <stop offset="1" stop-color="#fdcb06"/>
        </linearGradient>
        <linearGradient id="linear-gradient-3" x1="101.001" x2="101.009" y1="11.748" y2="10.768" xlink:href="#linear-gradient-2"/>
        <radialGradient id="radial-gradient" cx=".496" cy="3.536" r="4.378" gradientTransform="matrix(0.154, 0, 0, -1, 0.419, 4.088)" gradientUnits="objectBoundingBox">
            <stop offset=".596" stop-color="#f29405"/>
            <stop offset=".736" stop-color="#f7d01e"/>
            <stop offset="1" stop-color="#fdcb06"/>
        </radialGradient>
        <clipPath id="clip-path">
            <path id="Path_15073" d="M276 189.365a1.25 1.25 0 0 1-.106-.59l-.094.012a1.341 1.341 0 0 0-1.143-1.037c-.425-.035-.955-.024-1.2.377-.471.637-.248 1.45-.271 2.169 0 .047.012.13.012.177a8.243 8.243 0 0 1-.142 1.426 1.014 1.014 0 0 0-.106.46 10.869 10.869 0 0 1-1.144 3.207 1.194 1.194 0 0 0-.224.46 15.932 15.932 0 0 1-1.214 1.745 1.508 1.508 0 0 0-.189.2A11.509 11.509 0 0 1 269.2 199c-.082.047-.141.106-.212.153a7.682 7.682 0 0 1-1.332 1.049c-.059.035-.118.082-.189.13a18.956 18.956 0 0 1-10.257 2.853 19.158 19.158 0 0 1-8.819-1.863c-.047-.024-.165-.071-.212-.094a11.792 11.792 0 0 1-1.356-.766c-.094-.047-.189-.106-.295-.153a9.009 9.009 0 0 1-1.238-.872c-.13-.118-.271-.212-.413-.318a10 10 0 0 1-1.226-1.12c-.094-.106-.189-.2-.283-.295a11.754 11.754 0 0 1-2.818-4.728 14.562 14.562 0 0 1-.495-4.409 1.581 1.581 0 0 0-2.028-.613c-.295.212-.33.6-.554.872a13.848 13.848 0 0 0 3.949 10.575.191.191 0 0 0 .13.189c.472.436.931.884 1.4 1.309a1.893 1.893 0 0 0 .283.236c.472.389.979.743 1.474 1.108a2.525 2.525 0 0 0 .295.189 13.249 13.249 0 0 0 1.957 1.085 1.532 1.532 0 0 0 .177.118 21.26 21.26 0 0 0 7.133 2.04 3.809 3.809 0 0 1 .813.083c1.179.071 2.358.035 3.537.012a21.21 21.21 0 0 0 10.445-3.348l.035.047c.094-.082.177-.153.271-.224.484-.354.955-.731 1.427-1.12a3.578 3.578 0 0 0 .33-.283 15.574 15.574 0 0 0 1.556-1.733l.071.035c.035-.059.094-.177.13-.236.4-.542.766-1.108 1.12-1.674.023-.035.082-.094.106-.13l-.047-.047c.035-.047.118-.142.153-.189a13.829 13.829 0 0 0 1.426-4.162.2.2 0 0 0 .13-.189 11.072 11.072 0 0 0 .13-1.391 8.021 8.021 0 0 0 .096-1.761z" transform="translate(-237.424 -187.737)"/>
        </clipPath>
        <filter id="Rectangle_4150" width="115" height="115" x="0" y="0" filterUnits="userSpaceOnUse">
            <feOffset dy="2"/>
            <feGaussianBlur result="blur" stdDeviation="2.5"/>
            <feFlood flood-color="#5797e4" flood-opacity=".161"/>
            <feComposite in2="blur" operator="in"/>
            <feComposite in="SourceGraphic"/>
        </filter>
        <style>
            .cls-10,.cls-5{stroke-width:.094px}.cls-5{fill:#bda727;stroke:#bda727}.cls-10{fill:#0d69b3;stroke:#0d69b3}
        </style>
    </defs>
    <g id="flipkart" transform="translate(15.5 13.5)">
        <g filter="url(#Rectangle_4150)" transform="matrix(1, 0, 0, 1, -15.5, -13.5)"/>
        <path id="Path_15059" fill="url(#linear-gradient)" stroke="#fcd109" stroke-width="0.094px" d="M128.821 166.955c-.035-.118-.071-.236-.118-.355q-41.993.018-83.962.012a.489.489 0 0 0-.13.272q0 32.578-.012 65.145a5.271 5.271 0 0 0 1.667 3c.035.012.118.023.154.035a4.107 4.107 0 0 0 1.654.9c.437-.023.863.166 1.3.118h34.742a2.81 2.81 0 0 0 .992-.083c.012-.047.024-.13.035-.177s.024-.189.036-.26c.745-4.162 1.465-8.335 2.257-12.5l.071-.532c-3.214-.012-6.44 0-9.655-.012-.78-.023-1.583 0-2.363-.095-1.335-.059-2.682-.012-4.018-.142-1.654 0-3.3-.154-4.951-.154-1.3-.13-2.612-.083-3.923-.142-.851-.106-1.725-.059-2.588-.095-1.406-.153-2.836-.047-4.242-.2-1.489.012-2.978-.118-4.467-.154a.168.168 0 0 0 .024-.071c.5.012.981-.024 1.477-.035 1.1-.142 2.21-.047 3.309-.2 1.146 0 2.281-.153 3.427-.153 1.016-.142 2.044-.059 3.06-.2 1.194 0 2.363-.154 3.557-.165.981-.13 1.974-.059 2.954-.189 1.146.012 2.281-.166 3.427-.154 1.123-.13 2.269-.095 3.391-.213-.106-.437-.189-.875-.283-1.312-.083-.272-.414-.213-.626-.248q-3.847-.55-7.669-1.088c.165-.13.39-.071.579-.095 1.985-.154 3.959-.331 5.944-.473.449-.024.886-.107 1.335-.118a15.468 15.468 0 0 0-.591-1.856c-4.242-.65-8.485-1.229-12.716-1.927 1.1-.177 2.21-.26 3.309-.378l.095-.036c3.51-.367 7.031-.781 10.541-1.123 4.455-.023 8.9-.012 13.354 0 .142-.023.39.047.414-.154.366-1.915.721-3.83 1.087-5.746a28.694 28.694 0 0 1 2.553-7.708 22.728 22.728 0 0 1 8.792-9.411 25.325 25.325 0 0 1 11.617-3.24 18.251 18.251 0 0 1 3.935.083 5.5 5.5 0 0 1 2.4 1.017 4.024 4.024 0 0 1 1.134 1.773 28.236 28.236 0 0 1 1.111 4.847 3.747 3.747 0 0 1-.225 2.01 2.541 2.541 0 0 1-1.619 1.052c-2.281.591-4.668.035-6.949.591a8.454 8.454 0 0 0-4.822 2.944 13.717 13.717 0 0 0-2.564 6.1c-.319 1.939-.721 3.878-1.04 5.829 2.245.012 4.5-.012 6.76.012a2.379 2.379 0 0 1 2.186 1.348 6.5 6.5 0 0 1 .213 3.464 12.615 12.615 0 0 1-1.075 3.748 4.231 4.231 0 0 1-2.387 2.282 4.763 4.763 0 0 1-1.784.177c-1.986 0-3.971.023-5.956 0-.319 1.454-.532 2.944-.815 4.422-.52 2.873-1.028 5.758-1.548 8.643-.012.095-.024.3-.024.4.934.047 1.867 0 2.8.024 6.925 0 13.862-.012 20.8 0a4.14 4.14 0 0 0 2.151-.52c.39-.142.626-.485.969-.674s.425-.579.709-.828a3.942 3.942 0 0 0 .65-1.75 1.055 1.055 0 0 0 .177-.024c-.039-21.749-.004-43.504-.027-65.258z" transform="translate(-44.584 -152.507)"/>
        <path id="Path_15060" fill="#f8f3b5" stroke="#f8f3b5" stroke-width="0.094px" d="M55.517 47.24a12.848 12.848 0 0 1 3.085-.177q28.947.018 57.893 0a9.758 9.758 0 0 1 3.214.931c.851.342 1.737.613 2.588.979a1.406 1.406 0 0 1 .437.354c-.012 1.556 0 3.124 0 4.692a3.963 3.963 0 0 0 .083 1.238c.248.035.378.224.544.377a16.013 16.013 0 0 1 2.151 1.4c1.064.755 2.2 1.415 3.238 2.193a1.96 1.96 0 0 1-.083.908 4.894 4.894 0 0 0-.071 1.014q-41.993.018-83.962.012a4.091 4.091 0 0 0-.118-1.144c-.024-.307-.13-.707.165-.92 1.182-.825 2.434-1.568 3.592-2.44.721-.46 1.418-.931 2.115-1.4a1.5 1.5 0 0 0 .095-.79c0-1.709 0-3.419.012-5.128.4-.519 1.1-.578 1.654-.837 1.123-.424 2.258-.837 3.368-1.261m.071.2c-1.513.578-3.037 1.132-4.55 1.709-.2.035-.307.212-.414.365.012.094.024.259.024.354-.012 1.415 0 2.829-.012 4.244a2.95 2.95 0 0 0 .095 1.026 2.93 2.93 0 0 1-.508.424c-1.713 1.108-3.368 2.311-5.081 3.407-.3.177-.626.413-.532.8-.059.212.047.389.272.33 3.711-.024 7.41.024 11.12-.035 5.519 0 11.026.012 16.544 0l.083-.035a3.224 3.224 0 0 0 .756.035h30c3.144.012 6.3 0 9.454 0 5.2 0 10.411.047 15.611.024.154-.035.2-.141.142-.33-.012-.189.059-.448-.142-.566-.827-.389-1.536-.99-2.328-1.462-.283-.236-.65-.365-.863-.684-.815-.46-1.572-1.026-2.375-1.533a2.4 2.4 0 0 1-.4-.377 2.865 2.865 0 0 0 .095-.778c-.012-1.5 0-2.995-.012-4.492a.65.65 0 0 0-.189-.66c-1.418-.507-2.824-1.049-4.231-1.568a4.841 4.841 0 0 0-1.394-.4h-60.4a4.617 4.617 0 0 0-.765.202z" transform="translate(-44.476 -47.059)"/>
        <path id="Path_15061" fill="#f7b402" stroke="#f7b402" stroke-width="0.094px" d="M96.61 70.9c1.04.436 2.151.684 3.2 1.108.567.224.745.837.993 1.332a4.918 4.918 0 0 1-.84.637c-1.088.731-2.2 1.438-3.275 2.193a2.953 2.953 0 0 1-.095-1.026c.017-1.415.007-2.829.017-4.244zm68.745 1.108c1.052-.413 2.152-.7 3.2-1.108.012 1.5 0 2.995.012 4.492a2.863 2.863 0 0 1-.095.778c-.922-.637-1.856-1.238-2.778-1.863a10.894 10.894 0 0 1-1.348-.978c.254-.495.442-1.097 1.01-1.321z" transform="translate(-90.453 -68.089)"/>
        <path id="Path_15062" d="M236.252 84.015a2.221 2.221 0 0 1 2.641 2.2 2.245 2.245 0 0 1-2.676 2.11 2.563 2.563 0 0 1-1.332-.908 2.213 2.213 0 0 1-.177-2.146 2.108 2.108 0 0 1 1.544-1.256zm33.636.743a2.266 2.266 0 0 1 2.2-.731 2.205 2.205 0 0 1 .554 4.067 2.277 2.277 0 0 1-2.712-.46 2.244 2.244 0 0 1-.042-2.876z" class="cls-5" transform="translate(-212.006 -79.613)"/>
        <path id="Path_15063" fill="#f7e62d" stroke="#f7e62d" stroke-width="0.094px" d="M54.872 92.148a4.923 4.923 0 0 0 .839-.637l.083.082c.083.613.024 1.238.047 1.851-.035 1.839.035 3.69-.047 5.529-3.439 0-6.878-.024-10.317 0-.095-.389.236-.625.532-.8 1.714-1.1 3.368-2.3 5.082-3.407a2.931 2.931 0 0 0 .508-.424c1.075-.755 2.186-1.463 3.273-2.194zm64.24-.236a.732.732 0 0 1 .118-.413 10.9 10.9 0 0 0 1.347.979c.922.625 1.855 1.226 2.777 1.863a2.428 2.428 0 0 0 .4.377c.8.507 1.56 1.073 2.375 1.533.213.318.579.448.863.684.792.472 1.5 1.073 2.328 1.462.2.118.13.377.142.566-3.439.012-6.866-.012-10.3.012a13.991 13.991 0 0 1-.035-1.4c-.003-1.89-.027-3.775-.015-5.662z" transform="translate(-45.345 -86.261)"/>
        <path id="Path_15064" fill="url(#radial-gradient)" stroke="#fcd109" stroke-width="0.094px" d="M129.463 61.12c-3.439.012-6.866-.012-10.3.012a13.991 13.991 0 0 1-.035-1.4c0-1.886-.024-3.773-.012-5.659a.731.731 0 0 1 .118-.413c.248-.5.437-1.1 1-1.32 1.052-.413 2.151-.7 3.2-1.108a.65.65 0 0 0-.189-.66c-1.418-.507-2.824-1.049-4.231-1.568a4.841 4.841 0 0 0-1.394-.4h-60.4a4.609 4.609 0 0 0-.768.2c-1.513.578-3.037 1.132-4.55 1.709-.2.035-.308.212-.414.365.012.094.024.259.024.354 1.04.436 2.151.684 3.2 1.108.567.224.744.837.993 1.332l.083.083c.083.613.024 1.238.047 1.851-.035 1.839.035 3.69-.047 5.529-3.439 0-6.878-.024-10.317 0-.059.212.047.389.272.33 3.711-.024 7.41.024 11.12-.035 5.519 0 11.026.012 16.544 0l.083-.035a3.222 3.222 0 0 0 .756.035h30c3.144.012 6.3 0 9.454 0 5.2 0 10.411.047 15.611.024.164-.039.211-.145.152-.334zM68 54.082a2.111 2.111 0 0 1 1.548-1.261 2.225 2.225 0 0 1 2.647 2.2 2.249 2.249 0 0 1-2.683 2.11 2.569 2.569 0 0 1-1.335-.908A2.209 2.209 0 0 1 68 54.082zm35.263-.519a2.275 2.275 0 0 1 2.21-.731 2.2 2.2 0 0 1 .555 4.067 2.286 2.286 0 0 1-2.718-.46 2.24 2.24 0 0 1-.046-2.876z" transform="translate(-45.344 -48.418)"/>
        <path id="Path_15065" fill="url(#linear-gradient-2)" stroke="#fcd109" stroke-width="0.094px" d="M554.964 189.108c.165.035-.859-.984-.659-1.031a2.2 2.2 0 0 1 1.768-.079c.864.453.65 1.513.552 1.906a2.131 2.131 0 0 1-.65 1 1.136 1.136 0 0 1-.6.259c.106-.578-.236-.672-.26-1.261z" transform="translate(-494.029 -171.184)"/>
        <path id="Path_15066" fill="url(#linear-gradient-3)" stroke="#fcd109" stroke-width="0.094px" d="M228.415 188.57c-.024.589-.366.684-.259 1.261a1.136 1.136 0 0 1-.6-.259 2.134 2.134 0 0 1-.65-1c-.1-.393-.312-1.453.552-1.906a2.2 2.2 0 0 1 1.768.079c.2.047-.824 1.066-.659 1.031z" transform="translate(-205.262 -170.008)"/>
        <path id="Path_15067" d="M296.923 261.654a.651.651 0 0 1 .531-.154 27.477 27.477 0 0 1-5.547 8.517 8.335 8.335 0 0 1-.839.658c-.284.208-.563.4-.84.6s-.541.378-.8.575a11.013 11.013 0 0 1-2 1.1 18.833 18.833 0 0 1-4.291 1.391 12.575 12.575 0 0 1-1.757.247 10.259 10.259 0 0 1-2.252.106c-.413.071-.779-.165-1.179-.118q-.522-.074-1.04-.177t-1.042-.247c-5.4-1.686-10.71-5.813-12.255-11.393a6.288 6.288 0 0 1-.105-1.139q.247.5.513.982a17.29 17.29 0 0 0 11.714 9.7c.418.191.871.124 1.272.289a3.29 3.29 0 0 1 1.073.106c1.214.024 2.429.012 3.643.012a1.786 1.786 0 0 0 .483-.106 15.529 15.529 0 0 0 5.853-1.458q.554-.251 1.091-.535.469-.247.916-.535t.851-.6a19.524 19.524 0 0 0 5.35-6.545c.234-.461.46-.89.657-1.276z" class="cls-5" transform="translate(-237.576 -236.147)"/>
        <path id="Path_15068" d="M255.748 327.011a25.273 25.273 0 0 1 11.589-3.23 18.189 18.189 0 0 1 3.926.083 5.484 5.484 0 0 1 2.393 1.014 5.076 5.076 0 0 1-1.014-.177 17.582 17.582 0 0 0-2.947-.141 30.96 30.96 0 0 0-8.453 1 19.838 19.838 0 0 0-4.185 1.7 20.888 20.888 0 0 0-5.954 4.881 25.55 25.55 0 0 0-5.517 12.049c-.4 2.346-.861 4.68-1.226 7.038-.589.059-1.191.024-1.78.024q-3.891-.017-7.781-.047c-.554.023-1.1-.106-1.65-.071-4.716.023-9.432-.012-14.148-.012l.094-.035c3.5-.366 7.015-.778 10.516-1.12 4.444-.024 8.878-.012 13.322 0 .141-.024.389.047.413-.154.366-1.91.719-3.82 1.084-5.73a28.612 28.612 0 0 1 2.547-7.687 22.667 22.667 0 0 1 8.771-9.385z" class="cls-10" transform="translate(-198.226 -290.98)"/>
        <path id="Path_15069" fill="#107bd4" stroke="#107bd4" stroke-width="0.094px" d="M157.581 331.9a31.127 31.127 0 0 1 8.477-1 17.694 17.694 0 0 1 2.956.141 5.1 5.1 0 0 0 1.017.177 4.013 4.013 0 0 1 1.135 1.769 28.079 28.079 0 0 1 1.111 4.834 3.726 3.726 0 0 1-.225 2 2.543 2.543 0 0 1-1.62 1.049c-2.282.589-4.67.035-6.952.589a8.463 8.463 0 0 0-4.824 2.935 13.656 13.656 0 0 0-2.565 6.084c-.319 1.934-.721 3.867-1.04 5.812a10.472 10.472 0 0 0-.307 1.368c2.234.036 4.469 0 6.7.023.851-.023 1.7.023 2.554-.036a6.464 6.464 0 0 1 .213 3.454 12.548 12.548 0 0 1-1.076 3.737 4.227 4.227 0 0 1-2.388 2.275 4.777 4.777 0 0 1-1.785.177c-1.986 0-3.973.024-5.959 0-.319 1.45-.532 2.936-.816 4.409-.52 2.865-1.028 5.742-1.549 8.618-.012.094-.024.295-.024.4v.012c-5.166 0-10.321.012-15.488 0 .012-.047.024-.13.035-.177s.024-.189.036-.259c.012.094.023.271.036.354.319.035.9.2.981-.259.8-4.339 1.549-8.7 2.376-13.039a2.494 2.494 0 0 0-.981-.012c-.047.165-.095.33-.154.5l.071-.531c-3.216-.012-6.443 0-9.659-.012-.78-.023-1.584 0-2.365-.094-1.336-.059-2.684-.012-4.02-.142-1.655 0-3.3-.153-4.954-.153-1.3-.129-2.613-.082-3.925-.141-.851-.106-1.726-.059-2.589-.094-1.407-.153-2.837-.047-4.244-.2-1.49.012-2.979-.118-4.469-.153a.169.169 0 0 0 .024-.071c.5.012.981-.024 1.478-.035 1.1-.142 2.211-.047 3.31-.2 1.147 0 2.282-.153 3.429-.153 1.017-.142 2.045-.059 3.062-.2 1.194 0 2.365-.153 3.559-.165.981-.13 1.974-.059 2.956-.189 1.147.012 2.282-.165 3.429-.153 1.123-.13 2.27-.095 3.393-.212-.106-.436-.189-.872-.284-1.309-.083-.272-.414-.212-.627-.248q-3.848-.549-7.673-1.085c.166-.13.39-.071.579-.094 1.986-.154 3.961-.331 5.947-.472.449-.024.887-.106 1.336-.118a15.363 15.363 0 0 0-.591-1.851c-4.244-.649-8.489-1.226-12.721-1.922 1.1-.177 2.211-.26 3.31-.377 4.729 0 9.458.035 14.187.012.555-.035 1.1.095 1.655.071q3.9.036 7.8.047c.591 0 1.194.036 1.785-.023.366-2.358.828-4.692 1.23-7.038a25.515 25.515 0 0 1 5.533-12.049 20.931 20.931 0 0 1 5.97-4.881 19.912 19.912 0 0 1 4.204-1.7z" transform="translate(-94.606 -297.24)"/>
        <path id="Path_15070" d="M407.795 546.3c2.24.013 4.492-.012 6.744.013a2.373 2.373 0 0 1 2.181 1.343c-.849.059-1.7.012-2.547.036-2.228-.023-4.456.012-6.685-.023a10.408 10.408 0 0 1 .307-1.369zM390.4 557.346a2.471 2.471 0 0 1 .979.012c-.825 4.339-1.568 8.7-2.37 13.039-.083.459-.66.295-.978.259-.012-.083-.024-.259-.035-.354.743-4.15 1.462-8.311 2.252-12.461.063-.165.11-.33.152-.495z" class="cls-10" transform="translate(-347.355 -487.244)"/>
        <path id="Path_15071" fill="#fff" stroke="#fff" stroke-width="0.094px" d="M276 189.365a1.25 1.25 0 0 1-.106-.59l-.094.012a1.341 1.341 0 0 0-1.143-1.037c-.425-.035-.955-.024-1.2.377-.471.637-.248 1.45-.271 2.169 0 .047.012.13.012.177a8.243 8.243 0 0 1-.142 1.426 1.014 1.014 0 0 0-.106.46 10.869 10.869 0 0 1-1.144 3.207 1.194 1.194 0 0 0-.224.46 15.932 15.932 0 0 1-1.214 1.745 1.508 1.508 0 0 0-.189.2A11.509 11.509 0 0 1 269.2 199c-.082.047-.141.106-.212.153a7.682 7.682 0 0 1-1.332 1.049c-.059.035-.118.082-.189.13a18.956 18.956 0 0 1-10.257 2.853 19.158 19.158 0 0 1-8.819-1.863c-.047-.024-.165-.071-.212-.094a11.792 11.792 0 0 1-1.356-.766c-.094-.047-.189-.106-.295-.153a9.009 9.009 0 0 1-1.238-.872c-.13-.118-.271-.212-.413-.318a10 10 0 0 1-1.226-1.12c-.094-.106-.189-.2-.283-.295a11.754 11.754 0 0 1-2.818-4.728 14.562 14.562 0 0 1-.495-4.409 1.581 1.581 0 0 0-2.028-.613c-.295.212-.33.6-.554.872a13.848 13.848 0 0 0 3.949 10.575.191.191 0 0 0 .13.189c.472.436.931.884 1.4 1.309a1.893 1.893 0 0 0 .283.236c.472.389.979.743 1.474 1.108a2.525 2.525 0 0 0 .295.189 13.249 13.249 0 0 0 1.957 1.085 1.532 1.532 0 0 0 .177.118 21.26 21.26 0 0 0 7.133 2.04 3.809 3.809 0 0 1 .813.083c1.179.071 2.358.035 3.537.012a21.21 21.21 0 0 0 10.445-3.348l.035.047c.094-.082.177-.153.271-.224.484-.354.955-.731 1.427-1.12a3.578 3.578 0 0 0 .33-.283 15.574 15.574 0 0 0 1.556-1.733l.071.035c.035-.059.094-.177.13-.236.4-.542.766-1.108 1.12-1.674.023-.035.082-.094.106-.13l-.047-.047c.035-.047.118-.142.153-.189a13.829 13.829 0 0 0 1.426-4.162.2.2 0 0 0 .13-.189 11.072 11.072 0 0 0 .13-1.391 8.021 8.021 0 0 0 .096-1.761z" transform="translate(-214.577 -171.101)"/>
        <g id="Group_13450" clip-path="url(#clip-path)" transform="translate(22.847 16.635)">
            <path id="Path_15072" fill="none" stroke="#d1d1d1" stroke-width="2px" d="M230.167 188.171c.956.3 3.151-.454 3.773.236m-3.222 2.672c.916-.319 2.88-1.073 3.694-.629m-2.751 3.537c.443.143 1.316-.634 1.749-.862a6.436 6.436 0 0 1 2.024-.71m-2.358 4.637a6.665 6.665 0 0 1 1.663-1.649c.654-.457 2.443-1.677 3.21-1.259m-3.537 5.109c.518-.412.729-1.141 1.273-1.574a11.121 11.121 0 0 1 2.342-.941m-1.4 4.146c.155-1.14 1.312-2.515 2.417-2.417m-.707 4.009c.584-.058 1.077-1.365 1.472-1.807a3.756 3.756 0 0 1 1.986-1.1m-.079 4.323c-.038-.825.815-3.19 1.808-3.065m.707 3.851c-.041-.975.463-3.907 1.651-4.008m.943 5.58c-.225-1.363-.211-3.335.865-4.323m2.358 4.637c-.12-1.136-1.249-3.433 0-4.323m3.458 3.537a6.543 6.543 0 0 1-.629-3.772m3.93 3.222a7.832 7.832 0 0 1-1.088-2.34c-.094-.524.071-1.27-.012-1.668m3.851 2.829c-.9-.59-1.152-2.758-.865-3.694m3.537 2.515a9.169 9.169 0 0 1-1.336-4.009m3.93 1.493c-1-.671-2.269-1.889-2.122-3.223m4.873 1.1a8.463 8.463 0 0 1-4.244-2.908m5.5.314c-1.092-.234-4.7-1.642-4.48-3.065m5.659.314c-1.522-.558-3.736-1.06-4.952-2.122m5.738-.393a15.369 15.369 0 0 1-3.307-.55c-1.082-.186-2.085-.551-3.138-.786m5.5-1.1a13.746 13.746 0 0 1-5.266-1.1" transform="translate(-231.023 -186.941)"/>
        </g>
    </g>
</svg>
