<svg id="Layer_1" data-name="Layer 1" xmlns="http://www.w3.org/2000/svg" viewBox="0 0 68 68"><defs><style>.cls-1{fill:#939598;}.cls-1,.cls-10,.cls-11,.cls-12,.cls-13,.cls-14,.cls-15,.cls-17,.cls-19,.cls-2,.cls-20,.cls-22,.cls-23,.cls-24,.cls-25,.cls-26,.cls-27,.cls-28,.cls-29,.cls-3,.cls-4,.cls-5,.cls-6,.cls-7,.cls-8,.cls-9{fill-rule:evenodd;}.cls-2{fill:#eacece;}.cls-3{fill:#ad9a0c;}.cls-4{fill:#ccbb37;}.cls-5{fill:#e0d162;}.cls-6{fill:#faf1aa;}.cls-7{fill:#c30;}.cls-8{fill:#ebde7c;}.cls-9{fill:#999;}.cls-10{fill:#e5e5e5;}.cls-11{fill:#ad2b00;}.cls-12{fill:#ccc;}.cls-13{fill:#e6a100;}.cls-14{fill:#fc0;}.cls-15{fill:#e86100;}.cls-16{fill:#177bb5;}.cls-17{fill:#268dc9;}.cls-18{fill:#4eb5f0;}.cls-19{fill:#de410d;}.cls-20{fill:#8f2704;}.cls-21{fill:#666;}.cls-22{fill:#fff;}.cls-23{fill:#3c3c3b;}.cls-24{fill:#1a4991;}.cls-25{fill:#2465c2;}.cls-26{fill:#fa7f26;}.cls-27{fill:#eda070;}.cls-28{fill:#fcc39a;}.cls-29{fill:#4c4c4c;}</style></defs><polygon class="cls-1" points="13.72 58.45 13.72 12.89 12.77 12.35 12.77 57.9 13.72 58.45"/><polygon class="cls-2" points="33.6 1.44 13.72 12.89 13.72 58.45 33.61 46.99 33.6 1.44"/><polygon class="cls-1" points="33.6 1.44 13.72 12.89 12.77 12.35 32.63 0.89 33.6 1.44"/><polygon class="cls-3" points="32.67 59.71 26.38 56.06 25.81 57.32 32.11 60.97 32.67 59.71"/><path class="cls-4" d="M14.43,63l7.07,4.08L27,63.94l1.32-1.74,4-2.3L32.12,61l.22-.13,1.15-1.61-7.7-2.61C23.94,57.69,14.43,62.3,14.43,63Z"/><path class="cls-3" d="M14.43,63l7.07,4.08h0l-.11-1.34c.19-8.57-2.39-3.37-7.5-4Z"/><polygon class="cls-5" points="13.6 61.9 21.28 66.23 33.81 59.06 33.81 57.87 13.61 60.61 13.6 61.9"/><path class="cls-4" d="M13.6,61.9l7.68,4.33h0v-7c-3.35,0-4.91,1.43-7.67,1.4Z"/><polygon class="cls-6" points="13.61 60.61 21.28 65.04 33.81 57.87 26.09 53.41 13.61 60.61"/><polygon class="cls-5" points="14.24 60.6 21.3 64.67 33.13 57.83 26.09 53.76 14.24 60.6"/><polygon class="cls-7" points="25.03 62.51 19.93 59.56 16.19 61.72 21.3 64.67 25.03 62.51"/><polygon class="cls-6" points="32.89 58.02 26.16 54.14 21.04 57.61 27.3 61.23 32.89 58.02"/><polygon class="cls-8" points="21.04 57.61 27.3 61.23 25.03 62.51 19.93 59.57 21.04 57.61"/><path class="cls-9" d="M49.69,49.48c2.1.14,3.58,1.24,3.3,2.46S50.79,54,48.7,53.88s-3.58-1.24-3.3-2.46S47.6,49.34,49.69,49.48Z"/><path class="cls-10" d="M49.69,49.32c2.1.14,3.58,1.24,3.3,2.45s-2.2,2.09-4.29,1.94-3.58-1.24-3.3-2.45S47.6,49.18,49.69,49.32Z"/><path class="cls-9" d="M53.17,45.82c0-1.24-2-1.73-3.94-1.73-1.09,0-4,1-4,1.75,0,.48.35,5.47.37,5.78.41,2.62,6.81,2.54,7.2-.09Z"/><path class="cls-11" d="M45.54,50.79c.43,1,2,1.77,3.65,1.77,1.16,0,3.16-.48,3.65-1.75l.27-4.18c-1.39,2-6.42,2.15-7.84.06C45.34,47.84,45.49,50,45.54,50.79Z"/><path class="cls-12" d="M53,48.87c-.51,2.46-6.54,2.82-7.55.22l.12,1.8c.88,2.41,6.39,2.23,7.3,0Z"/><path class="cls-9" d="M49.73,43.51c2.27.16,3.87,1.35,3.57,2.66s-2.38,2.25-4.64,2.1-3.87-1.35-3.57-2.66S47.46,43.36,49.73,43.51Z"/><path class="cls-10" d="M49.73,43.34C52,43.49,53.6,44.68,53.3,46s-2.38,2.25-4.64,2.1-3.87-1.34-3.57-2.65S47.46,43.18,49.73,43.34Z"/><path class="cls-12" d="M49.57,44.07c1.57.1,2.67.93,2.47,1.84s-1.65,1.56-3.22,1.45-2.67-.93-2.47-1.84S48,44,49.57,44.07Z"/><path class="cls-9" d="M49.57,44.28c1.38.09,2.4.74,2.48,1.51,0,0,0,.08,0,.12-.21.9-1.65,1.56-3.22,1.45-1.38-.09-2.4-.74-2.49-1.52,0,0,0-.07,0-.11C46.56,44.82,48,44.17,49.57,44.28Z"/><path class="cls-11" d="M49.73,45.2a5.72,5.72,0,0,1,2.32.62s0,.06,0,.09c-.21.9-1.65,1.56-3.22,1.45-1.36-.09-2.38-.73-2.48-1.49A6.22,6.22,0,0,1,49.73,45.2Z"/><path class="cls-7" d="M48.94,45.19c1.33.22,2.21,1,2,1.79v0a4.53,4.53,0,0,1-2.14.36c-1.36-.09-2.38-.73-2.48-1.49A5.87,5.87,0,0,1,48.94,45.19Z"/><path class="cls-12" d="M52,47.74c-2.77.72-5,3-5.32,5.25,1.94,1.08,5.82.57,6.12-1.46L53,48.22C52.93,47.72,52.35,47.65,52,47.74Z"/><path class="cls-7" d="M52,47.74a7.53,7.53,0,0,0-5.09,4.31,5.39,5.39,0,0,0,2.29.51c1.16,0,3.16-.48,3.65-1.75L53,48.22C52.9,47.7,52.35,47.65,52,47.74Z"/><path class="cls-10" d="M47.61,50.71a5.77,5.77,0,0,0-.76,1.48c1.95.91,5.3.4,6-1.3l.13-2C52.62,50.53,49.75,51.24,47.61,50.71Z"/><path class="cls-9" d="M52.94,53c1.3.09,2.21.77,2,1.52s-1.36,1.3-2.66,1.21-2.21-.77-2-1.53S51.64,53,52.94,53Z"/><path class="cls-10" d="M52.94,52.94c1.3.09,2.21.77,2,1.52s-1.36,1.29-2.66,1.21-2.21-.77-2-1.53S51.64,52.85,52.94,52.94Z"/><path class="cls-9" d="M55.13,50.67c0-.78-1.23-1.09-2.48-1.09-.68,0-2.52.65-2.52,1.1,0,.3.22,3.44.23,3.63.26,1.65,4.29,1.6,4.53-.05Z"/><path class="cls-13" d="M50.33,53.79a2.55,2.55,0,0,0,2.3,1.12c.72,0,2-.31,2.29-1.11l.17-2.62c-.87,1.28-4,1.35-4.93,0C50.21,51.94,50.3,53.32,50.33,53.79Z"/><path class="cls-12" d="M55,52.58c-.32,1.55-4.11,1.78-4.74.14l.08,1.13c.55,1.52,4,1.41,4.58,0Z"/><path class="cls-9" d="M53,49.22c1.42.1,2.43.84,2.24,1.67s-1.49,1.41-2.92,1.32-2.43-.85-2.24-1.67S51.54,49.12,53,49.22Z"/><path class="cls-10" d="M53,49.11c1.42.09,2.43.84,2.24,1.67s-1.49,1.41-2.92,1.32-2.43-.85-2.24-1.67S51.54,49,53,49.11Z"/><path class="cls-12" d="M52.88,49.48c1.08.07,1.84.63,1.7,1.25s-1.13,1.07-2.21,1-1.83-.64-1.69-1.26S51.81,49.4,52.88,49.48Z"/><path class="cls-12" d="M54.39,51.88A4.46,4.46,0,0,0,51,55.18c1.22.67,3.66.35,3.85-.92L55,52.18C55,51.86,54.61,51.82,54.39,51.88Z"/><path class="cls-14" d="M54.39,51.88a4.72,4.72,0,0,0-3.2,2.7,3.28,3.28,0,0,0,1.44.33c.72,0,2-.31,2.29-1.11L55,52.18A.48.48,0,0,0,54.39,51.88Z"/><path class="cls-10" d="M51.64,53.74a3.43,3.43,0,0,0-.48.93c1.22.57,3.32.25,3.76-.81L55,52.58C54.78,53.63,53,54.07,51.64,53.74Z"/><path class="cls-10" d="M52.86,49.63c1,.06,1.62.56,1.5,1.12s-1,.94-2,.88-1.62-.57-1.5-1.12S51.9,49.56,52.86,49.63Z"/><path class="cls-11" d="M29,49.62V38.5l-.69.34c-.81.39-1.48,0-1.48-.76V8.39c-1,.48-2.19,1.41-3.27,1.95a33.27,33.27,0,0,0-3.88,1.76V28.3a2.78,2.78,0,0,1-1.33,2.1l-4.67,2.72V12.9L33.6,1.44V47Z"/><path class="cls-15" d="M47.22,31.91c-1.14.11-3.35,4.66-4,6,.05.63.69,1,1.07.6a32.71,32.71,0,0,0,4.32-4.67C49.24,32.88,48.13,32.27,47.22,31.91Z"/><path class="cls-16" d="M46.51,43.11h0L23.75,14.23c-.24-.31.67-.7.84-.49l22.79,28.9a.17.17,0,0,1,0,.18.83.83,0,0,1-.57.38C46.63,43.23,46.56,43.18,46.51,43.11Z"/><path class="cls-17" d="M24.28,13.64a.76.76,0,0,0-.57.38c-.07.17.06.28.31.24a.79.79,0,0,0,.57-.37C24.66,13.72,24.52,13.61,24.28,13.64Z"/><path class="cls-18" d="M24.64,13.9,47.31,42.65c.08.11,0,.19,0,.11L24.6,14l0-.06S24.64,13.92,24.64,13.9Z"/><path class="cls-19" d="M19.48,12.08l0,0,5.07-3a1,1,0,0,0,0-1.12c-.28-.44-.73-.66-1-.49l-5.08,3,0,0C18.36,10.77,19.21,12.1,19.48,12.08Z"/><path class="cls-20" d="M18.49,11.62c.27.45.73.67,1,.49s.28-.67,0-1.11-.73-.67-1-.49S18.21,11.18,18.49,11.62Z"/><path class="cls-9" d="M18.7,11.49c.16.25.42.37.57.27s.16-.38,0-.63-.41-.37-.57-.27S18.55,11.24,18.7,11.49Z"/><path class="cls-21" d="M24.14,14a.11.11,0,0,1-.08,0l-1.52-1.92c-.07-.1-.19-.09-.4-.05l-2.28.47a.57.57,0,0,1-.6-.13l-.58-.73a.09.09,0,0,1,0-.13l.17-.15a.11.11,0,0,1,.14,0,.1.1,0,0,1,0,.14l-.1.08.51.65c.08.1.2.1.41,0l2.28-.46a.55.55,0,0,1,.6.12l1.52,1.91a.11.11,0,0,1,0,.14A.07.07,0,0,1,24.14,14Z"/><path class="cls-22" d="M40.62,56.89c-.56.39-.22,1.58.37,1.78,1.35.46,2.36,1,3.24,1.31.32.1,1.07.19,1.38-.39.08-.22-.41-1.05-.41-1.05C43.62,58.71,41.32,56.5,40.62,56.89Z"/><path class="cls-23" d="M42.46,57c-.69.18-1.28-.31-1.51-.27a.65.65,0,0,0-.5.51,1.12,1.12,0,0,0,.61,1.18c.46.23,1,.12,1.77.44a9.9,9.9,0,0,0,1.89.79.74.74,0,0,0,.78-.55A2.3,2.3,0,0,0,42.46,57Z"/><path class="cls-24" d="M41.17,49.45a18.68,18.68,0,0,1-.65-2.1c-1.4-5.41-1.7-7.12-1.25-10.48,1.12-.38,3.8.78,4.81-.23,2.09,2.08-.55,9.62.08,12.24A2.12,2.12,0,0,1,41.17,49.45Z"/><path class="cls-24" d="M45.41,58.47c-1,.9-2,.6-2.54-.68,0-2-1.07-5.93-1.77-8.54-.41-1.61,2.18-2.45,3.08-.37C45.29,51.2,45.3,57.53,45.41,58.47Z"/><path class="cls-22" d="M35,59c-.56.39-.22,1.58.37,1.78,1.34.45,2.35,1,3.24,1.31A1.17,1.17,0,0,0,40,61.68c.08-.23-.42-1-.42-1C38,60.8,35.69,58.59,35,59Z"/><path class="cls-23" d="M36.83,59.07c-.7.16-1.29-.31-1.52-.27a.63.63,0,0,0-.49.5,1.12,1.12,0,0,0,.6,1.19c.47.23,1,.12,1.78.44a9.64,9.64,0,0,0,1.89.79.73.73,0,0,0,.77-.55C39.83,59.38,38.38,58.71,36.83,59.07Z"/><path class="cls-25" d="M36.92,50.8a9.71,9.71,0,0,1-.24-1.59c-.68-5.5-.51-8.49.38-11.76,1.17-.25,4.53.76,5.67-.13,2.37,3-3.1,9.41-2.53,13.26C39.65,51.28,37.81,51.77,36.92,50.8Z"/><path class="cls-25" d="M39.74,60.24c-1.09.78-1.92.22-2.28-1.12.32-2-.34-6-.6-8.66-.13-1.65,2.8-2.06,3.34.12C40.5,52.61,39.79,59.29,39.74,60.24Z"/><path class="cls-26" d="M45.15,23.14c-1.32-.94-3.12,1.21-1.81,3.8A47.52,47.52,0,0,0,47,34a1.31,1.31,0,0,0,1.92-1.4C48.67,30.85,48.15,25.28,45.15,23.14Z"/><path class="cls-15" d="M40.2,24.49A5.57,5.57,0,0,0,38,26.18,5.27,5.27,0,0,0,37.46,29c.07.77-.11,4.52-.3,7.94.36,1.13,5.71.9,7.33-.47a42.09,42.09,0,0,1,1-5.65c.16-.85.91-5.51-.21-7.07a2.23,2.23,0,0,0-1.53-.68A13.76,13.76,0,0,0,40.2,24.49Z"/><path class="cls-25" d="M39,25.2c1.2-.4,3.3,2.07,4.23,6.12.48.16.61-.36,1.09-.49-.79-3.35-2.49-6.61-4.12-6.34A2.54,2.54,0,0,0,39,25.2Z"/><path class="cls-25" d="M43.71,23.09c1.22,0,1.14,1.54,1.13,2.59a18.48,18.48,0,0,1-1.06,5.37c.41.16.52-.41,1.06-.55a16,16,0,0,0,.91-4.59c.2-1.56-.33-2.83-1.46-3A1.27,1.27,0,0,0,43.71,23.09Z"/><path class="cls-24" d="M41.67,37.68a16.85,16.85,0,0,0,1.56-6.5l1.66-.8a27.24,27.24,0,0,1-.4,6.1A2.89,2.89,0,0,1,41.67,37.68Z"/><path class="cls-24" d="M37,37.56c1,.92,6,1.73,7.43-.22,0-.22,0-.63,0-.86C42.9,37.63,38.93,38,37.16,37,37.11,37.15,37.07,37.36,37,37.56Z"/><path class="cls-26" d="M40,25.5c3.34,3.49-6,5-7.59,5.09-1.12,0-1.11-1.64.12-2.25C35.1,27.16,38.72,24.16,40,25.5Z"/><path class="cls-27" d="M31.6,22.27a2,2,0,0,0-.23-.65,4.6,4.6,0,0,1-.46-.69c-.19.16-.24.4.05.89.27.71-.09.82.35,1.15.14.11.25.32.3.12A1.35,1.35,0,0,0,31.6,22.27Z"/><path class="cls-27" d="M29.49,23.1a.8.8,0,0,1-.22-.31c0-.08,0-.21.07-.23-.09-.14-.05-.4.06-.43s-.12-.31.09-.47.2-.19.23-.17A1.75,1.75,0,0,1,29.49,23.1Z"/><path class="cls-28" d="M31.6,23.21a.86.86,0,0,0,0-.86A2,2,0,0,0,30,21.44c-.23-.05-.29-.13-.31.14-.3.26-.21.39-.07.65-.13,0-.23.36-.06.58-.12.17-.09.28.07.42a3.11,3.11,0,0,0,1.16.56C31.56,24.06,31.63,23.73,31.6,23.21Z"/><path class="cls-28" d="M29.81,21.84l-.91-.27c-.28-.08-.16-.41.12-.35l.91.2A.22.22,0,0,1,29.81,21.84Z"/><path class="cls-26" d="M32,30.16c-.95-.63-1.48-4.78-1.4-6.28.33-.54,1.16-.8,1.3-.25s1.67,4,2.15,5.63C34.1,30.42,32.93,30.28,32,30.16Z"/><path class="cls-29" d="M39.36,21.31a.58.58,0,0,0-.28.59c.14,1.52,1.11,2.57,1.49,1.05.16-.64.6-1.21,0-1.64A1.39,1.39,0,0,0,39.36,21.31Z"/><path class="cls-28" d="M39.45,18.29a6.14,6.14,0,0,0-.35,1,.67.67,0,0,0,0,.54c.14.34.23.41,0,.68s.07,1.12.19,1.52.14.67.42.86a2.35,2.35,0,0,0,2.2-.07,6.89,6.89,0,0,0,2.29-2.61c.16-1.19-.15-2.23-2.14-2.95A2.26,2.26,0,0,0,39.45,18.29Z"/><path class="cls-27" d="M40.32,21.62a9.58,9.58,0,0,0,.25,2.74c1.12-.26,2.5.43,3.52-.52a5.56,5.56,0,0,1-.6-3.11C43.54,20.21,40.4,20.14,40.32,21.62Z"/><path class="cls-29" d="M39.84,20c0,.14.27.36-.1.68-.55.44,0,1.55.37,1.05.17-.24.08-1.15.19-1.23.33-.23.68.59,1,1.26.57,1.05,2,.6,2.15.52a2.19,2.19,0,0,0,1-1.7c0-.94.36-2-.3-2.78a3.32,3.32,0,0,0-5.13-.06C38.29,18.72,39.54,19.2,39.84,20Z"/><path class="cls-28" d="M41,21c-.06.42-.36,1-.54,1-.46-.16-.24-.47-.18-.89s-.05-.69.13-.73A.52.52,0,0,1,41,21Z"/></svg>