<svg xmlns="http://www.w3.org/2000/svg" viewBox="0 0 68 68"><defs><style>.cls-1,.cls-19{isolation:isolate;}.cls-2{fill:#e8b271;}.cls-3{fill:#b3b3b3;}.cls-20,.cls-4{fill:#68cdd9;}.cls-5{fill:#333;}.cls-6{fill:#ffc47c;}.cls-10,.cls-7{fill:#ea4a49;}.cls-8{fill:#4d4d4d;}.cls-9{fill:#1a1a1a;}.cls-10,.cls-11,.cls-12,.cls-14,.cls-18,.cls-19,.cls-20,.cls-9{mix-blend-mode:multiply;}.cls-11,.cls-20,.cls-9{opacity:0.5;}.cls-11{fill:#865aa1;}.cls-12{fill:#cea55f;opacity:0.3;}.cls-13{fill:#291933;}.cls-14{fill:#a263c7;opacity:0.25;}.cls-15{fill:#454545;}.cls-16{fill:#575756;}.cls-17{fill:#ebdcca;}.cls-18{fill:#dadada;}.cls-21{fill:#d8a46c;}.cls-22,.cls-24{fill:#020202;}.cls-23{fill:#bc8f62;}.cls-24{opacity:0.35;}.cls-25{fill:#c18e57;}.cls-26{opacity:0.45;}.cls-27{fill:#916d49;}.cls-28{fill:#c99965;}</style></defs><g class="cls-1"><g id="Layer_1" data-name="Layer 1"><path class="cls-2" d="M34.11,12.45a7.18,7.18,0,0,0-1,.51l-.59.68-.47.71L31,14.87l.55,1.51,1.35-.75c.68,0,1.28.19,1.83-.21l.39-.76,1.08-1.54h-2Z"/><path class="cls-3" d="M36.25,12.79l0,0c.83-.42,4.47-2.42,4.93-3.07l-3.76,1.94,3-2.95c-.77.24-3.86,3.09-4.47,3.72l0,0-.53.23.07.12.32-.13,0,.08a.22.22,0,0,0,.09.1s0,0,0,0l-.22.27.1.1.37-.44Z"/><path class="cls-4" d="M35.48,14.9a.72.72,0,0,0,.41,0,.68.68,0,0,0,.46-.51.64.64,0,0,0-.21-.65.59.59,0,0,0-.42-.17l.39-.44a.06.06,0,0,0,0-.08l-.18-.14a.05.05,0,0,0-.08,0s-.71.91-.7.91a.7.7,0,0,0-.14.27.68.68,0,0,0,.05.42.77.77,0,0,0,0,.85c.08.1.23.05.14-.1s0-.48.24-.4Zm-.31-.58a.6.6,0,0,1,0-.19.53.53,0,0,1,.87-.27.53.53,0,0,1,.16.49.52.52,0,0,1-.35.39.53.53,0,0,1-.46-.06l-.06,0A.47.47,0,0,1,35.17,14.32Z"/><path class="cls-4" d="M35.77,12.69l-.08-.21a.05.05,0,0,0-.07,0l-.54.24a.69.69,0,0,0,0-.45.67.67,0,0,0-.56-.4.69.69,0,0,0-.69,1,.67.67,0,0,0,.56.39.7.7,0,0,0,.29,0l1.09-.41A.05.05,0,0,0,35.77,12.69Zm-1.4.35a.49.49,0,0,1-.42-.3.51.51,0,0,1,0-.52.5.5,0,0,1,.47-.22.52.52,0,1,1-.1,1Z"/><path class="cls-5" d="M36.16,12.69a.11.11,0,0,1-.15,0,.1.1,0,0,1,0-.15.11.11,0,0,1,.15,0A.1.1,0,0,1,36.16,12.69Z"/><path class="cls-6" d="M33.9,12.53l1-.66c.24-.17.68.07.3.45l-.83.73A.55.55,0,0,1,33.9,12.53Z"/><path class="cls-6" d="M35.49,13.44a.29.29,0,0,1,.26-.32l.69-.06a.29.29,0,0,1,.32.26.29.29,0,0,1-.26.32l-.69.06A.29.29,0,0,1,35.49,13.44Z"/><path class="cls-6" d="M34.87,14.14a.3.3,0,0,1,.27-.32l.69-.07a.3.3,0,0,1,.05.59l-.69.06A.29.29,0,0,1,34.87,14.14Z"/><path class="cls-6" d="M34.42,14.57a.29.29,0,0,1,.4-.1l.6.36a.3.3,0,0,1,.1.4.3.3,0,0,1-.4.1l-.6-.36A.29.29,0,0,1,34.42,14.57Z"/><path class="cls-6" d="M33.81,14.85a.28.28,0,0,1,.38-.09l.62.37a.28.28,0,0,1,.1.38.28.28,0,0,1-.38.09l-.62-.37A.28.28,0,0,1,33.81,14.85Z"/><path class="cls-6" d="M34.29,13.19l-.1.34a2.86,2.86,0,0,1-.95,1.39l-.78.63a1.66,1.66,0,0,1-.4-1.2l.49-.9a1.41,1.41,0,0,1,.63-.6l.56-.27A.66.66,0,0,0,34.29,13.19Z"/><path class="cls-7" d="M32.88,15.63a11.88,11.88,0,0,1-2.09,1.2c-1.28.52-3.63,1.61-3.82,1.66a1.27,1.27,0,0,1-1.43-.56c-.62-1.68-2.77-5.91-2.75-6S24,8.24,24,8.24c.67,1.2,3.29,6.94,3.29,6.94L32,14.36h.1a.69.69,0,0,0,0,.13C32,15,32.49,15.18,32.88,15.63Z"/><path d="M17.92,50.59a6.44,6.44,0,0,0,1.83,2.51,4,4,0,0,0,2.74,1.2c.76-.29.72-.93.42-1.82A7.16,7.16,0,0,0,20.43,50s-1.19-1-1.19-1.06S17.92,50.59,17.92,50.59Z"/><path class="cls-2" d="M23.5,40.2a75.75,75.75,0,0,1-4.06,8.93s2.11,1.83,1.25,2.5c-1.29,1-2.93-2.12-2.93-2.12L20.2,41Z"/><path d="M16.29,52.18l-.05.13c-.37,0-.84,1.24-.67,2.18.53,1.4,0,2.5.19,4.08A2.75,2.75,0,0,0,17,60.74c1.29.78,2.24.92,2.39-.17A5.3,5.3,0,0,0,19.05,58l-.61-3Z"/><path class="cls-6" d="M18.12,58.2c-1.76.22-2.05-1.94-2.06-3.85,0-.57,0-1.12,0-1.59,1.57-3.91-1.19-7.43.69-10.84l-.24-1.4-.64-3.73,4.52-.54.8,4.14.29,2.46c-.5,3.29-2.7,7-3.16,10.5C18.25,55,19.17,58.07,18.12,58.2Z"/><path class="cls-6" d="M18.6,42.53c-2.09,1.66-.24,8.61-2.54,11.82,0-.57,0-1.12,0-1.59,1.57-3.91-1.19-7.43.69-10.84l-.24-1.4C17.45,41.39,18.6,42.53,18.6,42.53Z"/><path class="cls-8" d="M24.87,30c.14,4.83-1.26,5.5-1.13,8.86a3.06,3.06,0,0,1-.09.83,4.26,4.26,0,0,1-2.06,2.82,1.32,1.32,0,0,1-.3.1,8.34,8.34,0,0,1-2.79,0,2.75,2.75,0,0,1-2.08-1.67c0-3.58-2.68-6.1-3-10.85a7,7,0,0,1,1.64-5.33l1.59,0,7.86-.12Z"/><path class="cls-9" d="M18,34.34c1.64,2.5.87,6.31.61,8.19h-.1a2.75,2.75,0,0,1-2.08-1.67c0-3.58-2.68-6.1-3-10.85a7,7,0,0,1,1.64-5.33l1.59,0L21,27c-2.4.58-2.27,1.45-3.12,3.84L18,32.31Z"/><path d="M19.49,5A3.8,3.8,0,0,0,15.17,8.6a5.73,5.73,0,0,0,1,4.67,17.6,17.6,0,0,0,2.27,2.36c1-4.69-1.29-7.46-.43-8.85a3.24,3.24,0,0,1,1.47-1.09Z"/><path class="cls-7" d="M24,19.24a10.53,10.53,0,0,0,.51,5.3,2.62,2.62,0,0,1-2.38,2.32c-3.32.62-6.11-.07-7.43-1.81,1.2-1.24,1.18-3.13.41-4.87A10.2,10.2,0,0,1,13.92,17a15.87,15.87,0,0,1-.23-4.45A10.94,10.94,0,0,1,18.82,9.2L23,7.62c1.24.18,2.23,2.41,1.9,4.09.17,2.59,1.44,3.67,1.48,5.28C26.39,18.28,25.53,19.12,24,19.24Z"/><path class="cls-10" d="M24.53,24.54a2.62,2.62,0,0,1-2.38,2.32c-3.32.62-6.11-.07-7.43-1.81,1.2-1.24,1.18-3.13.41-4.87A10.2,10.2,0,0,1,13.92,17L15.86,17c1.18,2.55,1.7,5.07,4.2,4.6,1.74-.32,2.29-1.77,1.88-3.53A3.13,3.13,0,0,0,24,19.24,10.53,10.53,0,0,0,24.53,24.54Z"/><path class="cls-11" d="M23.65,39.65a4.26,4.26,0,0,1-2.06,2.82,4.31,4.31,0,0,0,.23-1c.31-2.37-.67-4.46-.25-5.82a7.7,7.7,0,0,0,.69,2.39A4.93,4.93,0,0,0,23.65,39.65Z"/><path d="M25.12,15.61l.91-.38c-1.16-2.79-3.38-6.52-6.15-8.63l-.6.78C21.9,9.37,24,12.94,25.12,15.61Z"/><path d="M20.43,3.19c2.06.29,2.46,2.77,3.22,4.23C26.67,5.14,24.53.6,20.43,3.19Z"/><path class="cls-6" d="M16.93,9.94A6.46,6.46,0,0,0,17.78,7l3.31.27,0,2.36C22.29,13,17.26,12.14,16.93,9.94Z"/><path class="cls-12" d="M19,7.74c.23,1.95.93,4.88,2.69,4,1-.54.65-2.18.44-3.58Z"/><path class="cls-6" d="M17.71,7.6c-1.85-3.12-.9-5.83,1.63-6.42A3.66,3.66,0,0,1,24,5c.08,2.56-.57,4.37-1.54,4.53A2.82,2.82,0,0,1,19.2,8Z"/><path d="M17.29,8l-.07,1.36c.52-1.47,1.28-1.52,1.34-1.94l.12-.81.73.31C20.9,7,21.17,4.4,24,4.74c.25-2.5-1.62-3.87-3.9-3.85-2.77.23-3.66,1.85-3.56,3.83A7.09,7.09,0,0,0,17.29,8Z"/><path class="cls-6" d="M19.43,7.79c.15-.39.18-.35.12-.52-.17-.5-.48-.88-.78-.8s-.42.1-.51.29a.88.88,0,0,0,.08.7,1.56,1.56,0,0,0,.26.45.52.52,0,0,0,.46.18A.48.48,0,0,0,19.43,7.79Z"/><path d="M18.78,18l.89-.43c-.85-1.73-2.9-6.66-2.27-8.8l-.94-.28C15.58,11.48,18.65,17.77,18.78,18Z"/><path d="M14.44,25.46l.55-.82a16.94,16.94,0,0,0,2,1.15c0-.55,0-1.1,0-1.66C18,22,18.88,20.2,18.6,17.35a11.25,11.25,0,0,0,7-3,.43.43,0,0,1,0,.07A7.1,7.1,0,0,1,26.49,17c0,1.29-.69,1.94-1.2,3a8.56,8.56,0,0,0-.63,4.56l.7,5.44c.14,4.83-.83,5-.7,8.4,0,.26-.82,1-.88,1.27-.26,1.13-1.17,1.57-2.16,2a5.46,5.46,0,0,1-2.93.11A123.44,123.44,0,0,1,17,26.89,15.23,15.23,0,0,1,14.44,25.46Z"/><path class="cls-13" d="M26.87,26.17l-1.17-.41-.56-.18-5.09-1.67.1.51,2.32.78.27.93s0,.05.06.06.05,0,.05,0l-.14-.76s0,0,0,0a.12.12,0,0,1,.06.06l.17.78a.12.12,0,0,0,.06.06s.05,0,0,0L23,25.48s0,0,0,0a.17.17,0,0,1,.06.06l.17.78a.12.12,0,0,0,.06.06s0,0,0,0l-.14-.76s0,0,0,0,.06,0,.06.06l.18.78s0,.05.05.06,0,0,0,0l-.14-.76s0,0,0,0a.12.12,0,0,1,.06.06l.17.78a.12.12,0,0,0,.06.06s.05,0,0,0l-.13-.76s0,0,0,0a.17.17,0,0,1,.06.06l.17.78a.12.12,0,0,0,.06.06s0,0,0,0l-.13-.76s0,0,0,0,.06,0,.06.06l.18.78s0,.05.06.06,0,0,0,0l-.14-.76s0,0,0,0a.09.09,0,0,1,.06.06l.17.78.06.06s.05,0,0,0L24.37,26s0,0,0,0a.12.12,0,0,1,.06.06l.17.78a.12.12,0,0,0,.06.06s.05,0,0,0L24.61,26s0,0,0,0a.06.06,0,0,1,.06.06l.18.78s0,0,.06.06,0,0,0,0l-.14-.76s0,0,0,0,.05,0,.06.06l.17.78a.17.17,0,0,0,.06.06s0,0,0,0l-.13-.76s0,0,0,0,.05,0,.06.06l.17.78a.12.12,0,0,0,.06.06s.05,0,0,0l-.13-.76s0,0,0,0a.09.09,0,0,1,.06.07l.18.78s0,.05.06.06,0,0,0,0l-.14-.76a0,0,0,0,1,0,0,.11.11,0,0,1,.06.07l.17.78a.17.17,0,0,0,.06.06,0,0,0,0,0,.05,0l-.14-.76s0,0,0,0a.14.14,0,0,1,.06.07l.17.78a.12.12,0,0,0,.06.06s.05,0,0,0L26,26.52s0,0,0,0a.09.09,0,0,1,.05.07l.18.78s0,.05.06.06,0,0,0,0l-.14-.76s0-.05,0,0a.11.11,0,0,1,.06.07l.18.77a.09.09,0,0,0,.05.07s.05,0,.05,0l-.14-.76s0-.05,0,0a.14.14,0,0,1,.06.07l.17.77s0,.06.06.06.05,0,0,0l-.13-.76s0-.05,0,0a.09.09,0,0,1,0,.07l.18.77a.06.06,0,0,0,.06.06s0,0,0,0L27,26.84s0-.05,0,0a.11.11,0,0,1,.06.07l.18.77a.06.06,0,0,0,.05.06s.05,0,.05,0l-.11-.8-.07-.35A.5.5,0,0,0,26.87,26.17Z"/><path class="cls-6" d="M19.8,24.91l.6,1,.63.84a3.77,3.77,0,0,0,1.66.57l.36-.1a2.72,2.72,0,0,0,.73-.88.2.2,0,0,0-.15-.31L23,26l-.39-.46a1.4,1.4,0,0,1,.2-.62c.05-.1.7.2,1.06.28,0-.33-.86-.92-.95-1.06a11.8,11.8,0,0,0-1.53-.68L20,23l-1.17,1.55Z"/><path class="cls-7" d="M13.31,12.91c-.35,3.47-1.38,5.58-1.21,8.8,1.46,1.52,4.24,2.32,7.7,3.2-.12-.73,0-1.49.93-1.68L15.4,20.36,17,15.55C17.57,12.71,14.62,10.91,13.31,12.91Z"/><path class="cls-14" d="M48.05,57.25a9.47,9.47,0,0,1-2.62,1.44l.06.76a6.07,6.07,0,0,0,2.44-1.08C48,58,48,57.63,48.05,57.25Z"/><path class="cls-14" d="M52.8,55.15c-.6,0-1.26,0-1.84-.06l.06.71c.78,0,1.56.18,2.34.19,0-.31.06-.62.1-.93A2.84,2.84,0,0,1,52.8,55.15Z"/><g class="cls-1"><polygon class="cls-15" points="50.87 43.09 50.87 43.88 37.94 36.41 37.94 35.62 50.87 43.09"/></g><path class="cls-16" d="M45,55.72c2.6,1.5,2.6,3.93,0,5.43a10.38,10.38,0,0,1-9.4,0c-2.6-1.5-2.6-3.93,0-5.43A10.38,10.38,0,0,1,45,55.72Z"/><path class="cls-17" d="M46.12,59.87a4.65,4.65,0,0,1-1.12.86,10.38,10.38,0,0,1-9.4,0,3.78,3.78,0,0,1-1.77-1.84A2.54,2.54,0,0,1,34.66,56l0,0c.1-.09.22-.18.34-.27l.61-.53a11.78,11.78,0,0,0,1.66-1.79,7.58,7.58,0,0,0,1.55-4.59c0-.24,0-.49,0-.74s0-.6-.06-.91h3c0,.38,0,.75,0,1.1a4.43,4.43,0,0,0,0,.52,8,8,0,0,0,1.9,4.89,17.79,17.79,0,0,0,1.43,1.59l.52.51C47.21,57,47.37,58.57,46.12,59.87Z"/><path class="cls-18" d="M46.12,59.87A20.38,20.38,0,0,1,42.73,61c-3.19.8-2.45-2.23-4.13-2.6s-3,.88-4.77.49A2.54,2.54,0,0,1,34.66,56l0,0c.1-.09.22-.18.34-.27l.61-.53a11.78,11.78,0,0,0,1.66-1.79,7.58,7.58,0,0,0,1.55-4.59c0-.24,0-.49,0-.74s0-.6-.06-.91h3c0,.38,0,.75,0,1.1a4.43,4.43,0,0,0,0,.52,8,8,0,0,0,1.9,4.89,17.79,17.79,0,0,0,1.43,1.59l.52.51C47.21,57,47.37,58.57,46.12,59.87Z"/><path class="cls-7" d="M52.27,45.53l-9.34-5.39L39.79,25.3a2.76,2.76,0,0,0-1.18-1.77l-.2-.11a.85.85,0,0,0-.87-.09L27,29.46a1,1,0,0,0-.33,1l2.58,16.06a2.86,2.86,0,0,0,1.27,1.95L41.73,55c.43.26.71.27.89.15L53.14,49c.35-.2.35-.87.35-1.38A2.67,2.67,0,0,0,52.27,45.53Z"/><g class="cls-19"><path class="cls-7" d="M28.07,29.66a2.67,2.67,0,0,1,1.18,1.76l3.14,14.84,9.35,5.4A2.69,2.69,0,0,1,43,53.76c0,.78,0,1.93-1.22,1.22L30.52,48.51a2.86,2.86,0,0,1-1.27-1.95L26.67,30.5c-.14-.94.44-1.4,1.2-1Z"/></g><path d="M38.88,24.76s.79-2.13-.34-3.51c0,0-.35-2.23-3.88-2a4.36,4.36,0,0,0-4,3.8c0,.18-.13,1.5-.32,3.05a3.43,3.43,0,0,1-.72,2,4.4,4.4,0,0,0-.71,1.57,6.15,6.15,0,0,0,0,1.36,1.89,1.89,0,0,0,.54.12l.53-.7-.06.75s4.05.63,5.66.19a3.85,3.85,0,0,0,2.26-1.29C37.86,30,38.88,24.76,38.88,24.76Z"/><path class="cls-6" d="M43,33.52l-.85-3.4-3,1.25,1.75,4.26L46,38.19l1.5-.76C45.44,35.73,44.44,34.46,43,33.52Z"/><path class="cls-7" d="M50.68,59.76a2,2,0,0,0,1.23,2.66c.83.63,1.31,1.5,2.36,1.81s1.87-.13,1.59-.8a17.89,17.89,0,0,0-2.14-3c-.3-.43-.86-1.27-.86-1.27l-1.62-.57Z"/><path class="cls-6" d="M54,62c-1,.39-2.92-2.09-3-3.07a16,16,0,0,0,0-2.41c-.12-2.21-.52-4.67-.61-6.91h3.62c-.25,2.09-.54,4.52-.79,7-.08.79-.15,1.58-.22,2.37C53.14,60,54.93,61.69,54,62Z"/><path class="cls-6" d="M49.25,65.38c-.94,0-3.69-2-4-2.48a7.4,7.4,0,0,0,.37-1.17c0-.47,0-.95-.08-1.44-.19-2.69-.56-5.6-.52-8h3.77c-.39,2.2-.8,4.79-1,6.92a15.41,15.41,0,0,0,0,2.54,11.35,11.35,0,0,0,.79,2C48.9,64.14,49.57,65.38,49.25,65.38Z"/><path class="cls-7" d="M45.26,62.9a2.34,2.34,0,0,0,.11,1.52c.79,1,2.49,2.7,4.44,2.69.95-.18.8-.53.44-1.25s-1.06-1.2-1.61-2.12c-.13-.22.48.88.06,1-1,.27-2.75-1.25-3.08-2.83Z"/><path class="cls-4" d="M54.66,53.92a1.63,1.63,0,0,1-1.2,1.14,2.84,2.84,0,0,1-.66.09c-.6,0-1.26,0-1.84-.06s-1.28.09-1.57.59c0,.06-.07.11-.1.16a5.74,5.74,0,0,1-1.24,1.41,9.47,9.47,0,0,1-2.62,1.44,22.7,22.7,0,0,1-2.7.84,2.2,2.2,0,0,1-2.22-.32c-.75-.72-.84-2-1.91-2.27a4.83,4.83,0,0,0-2.35.26,4.56,4.56,0,0,1-2.56.19,1.84,1.84,0,0,1-1.19-1.1,5.12,5.12,0,0,0-1-1.8,3.57,3.57,0,0,0-1-.55,6.57,6.57,0,0,0-2.2-.35s.09-3,.18-6.65c.1-4.58,1.54-8,1.42-10.78-.06-1.51.08-3.75.08-5.69.09-2.78,2.95-4.56,2.95-4.56l1.89-1a5.4,5.4,0,0,1,5.5,2.18c.36.87,1.79,1.51,2.14,3.5a9.27,9.27,0,0,0,3,5l6.3,6.21a10.41,10.41,0,0,1,2.95,4.82l.34,1.73C56,53.91,55.09,52.79,54.66,53.92Z"/><path class="cls-20" d="M40.51,59.21c-.75-.71-.84-2-1.91-2.27a4.71,4.71,0,0,0-2.35.26,1.69,1.69,0,0,1,0-.44,19,19,0,0,0,.51-3,21.88,21.88,0,0,0-.36-3.52,6.76,6.76,0,0,0-.6-2.13,7,7,0,0,0-.73-1c-.74-.94-1.48-1.87-2.23-2.8.41-.23.89.07,1.25.36a29.47,29.47,0,0,1,2.67,2.45A7.43,7.43,0,0,1,38,48.57a10.49,10.49,0,0,1,.92,3.74A35.52,35.52,0,0,0,40.51,59.21Z"/><path class="cls-20" d="M52.8,55.15c-1.31.07-2.88-.41-3.41.53a.86.86,0,0,1-.1.16A7.24,7.24,0,0,1,49,54.47c-.38-1.89-.81-3.77-1.27-5.65a6.38,6.38,0,0,0-1-2.47c-.57-.69-1.44-1.19-1.69-2a2.7,2.7,0,0,1,1.9.83c1.74,1.62,2.2,4.15,3.29,6.27a11.24,11.24,0,0,0,2,2.78A1.74,1.74,0,0,1,52.8,55.15Z"/><path class="cls-20" d="M34.58,37.18c.29,1.15.42,2.44,1.28,3.26A17.41,17.41,0,0,0,38,41.72c.65.47,1.11,1.15,1.72,1.67a2,2,0,0,0,2.21.49c.32-.18.56-.61.33-.9a.85.85,0,0,0-.34-.21A33.83,33.83,0,0,1,38.24,41a6.5,6.5,0,0,1-2.66-2.34,9.93,9.93,0,0,1-.64-1.78,12.28,12.28,0,0,0-1.19-2.64,1.42,1.42,0,0,0-.59-.64c-.17.54.46,1.18.69,1.65A10.68,10.68,0,0,1,34.58,37.18Z"/><path class="cls-20" d="M46,40.61c.07.47.18,1.07.64,1.2a1.15,1.15,0,0,0,.8-.17l.62-.29a.35.35,0,0,0,.15-.11c.13-.16-.07-.37-.25-.48a5.74,5.74,0,0,1-1.72-1.57c-.39-.58-.61-1.25-1-1.86A17.85,17.85,0,0,0,43.39,35c-1.16-1.38-1.74-3.09-2.77-4.5-.34,1.55,1.78,3.71,2.63,4.84A12.25,12.25,0,0,1,46,40.61Z"/><path class="cls-20" d="M32.5,56.29a5.12,5.12,0,0,0-1-1.8,3.3,3.3,0,0,0-1-.54c.11-.69.21-1.38.31-2.07A10.45,10.45,0,0,0,31,50c0-1.44-.59-2.85-.5-4.29a.31.31,0,0,1,.06-.19c.11-.11.3,0,.39.13a3.48,3.48,0,0,1,.48,1.12,25.15,25.15,0,0,1,1.28,7A10.82,10.82,0,0,1,32.5,56.29Z"/><path class="cls-20" d="M31.43,41.16c-.2,1-1.07,1.58-1.67,2.34a6,6,0,0,0-1,2.14,4.39,4.39,0,0,1-.29,1.3c.1-4.58.19-10.3.07-13-.06-1.32,1.08-2.47,1.43-3.44.24,2.5,1,5,1.61,8.36A5.74,5.74,0,0,1,31.43,41.16Z"/><path class="cls-6" d="M33.75,23.83c-.22.79-.84,2-1,2.76-.17.92,1.53,2.36,2.68,2.27.8-.15,1-1.19,1.13-2.15Z"/><path class="cls-14" d="M34.34,24.43s-.67,5.53,2,5.08c1.73-.3,1.36-3.16,1.36-3.16Z"/><path d="M21.43,6.44a.44.44,0,0,1,.36-.15,3.61,3.61,0,0,1,.68.15l.05-.15-.07-.07a.13.13,0,0,1,0,.09l-.07-.09-.64-.08A.61.61,0,0,0,21.43,6.44Z"/><polygon points="22.55 6.31 22.5 6.44 22.53 6.44 22.56 6.34 22.55 6.31"/><path d="M24,6.37a.26.26,0,0,0-.23-.06,2.32,2.32,0,0,0-.38.18l0-.09,0-.06a.11.11,0,0,0,0,.07l0-.07.37-.13A.36.36,0,0,1,24,6.37Z"/><polygon points="23.28 6.41 23.32 6.49 23.31 6.49 23.27 6.43 23.28 6.41"/><path class="cls-21" d="M23.06,6.82a.84.84,0,0,0,0,.64c.15.32.18.53-.2.61l-.19,0h.2c.25,0,.41-.17.32-.46,0-.1-.09-.19-.13-.29a1.06,1.06,0,0,1,0-.53h0Z"/><path class="cls-21" d="M22.7,7.65c-.1,0-.26.06-.24.2a.22.22,0,0,0,.2.16.47.47,0,0,1-.12-.07c-.14-.16,0-.25.16-.29Z"/><path class="cls-21" d="M22.92,7.84s-.29,0-.26,0S22.92,7.84,22.92,7.84Z"/><path d="M21.59,6.76s.05,0,0,0-.08-.07-.08-.07S21.51,6.8,21.59,6.76Z"/><path d="M21.7,6.71s0,.07-.09.07a.06.06,0,0,1-.08,0A.17.17,0,0,0,21.7,6.71Z"/><path d="M21.77,6.67s0,.07-.09.08a.06.06,0,0,1-.08,0A.2.2,0,0,0,21.77,6.67Z"/><path d="M21.87,6.63a.22.22,0,0,1-.1.08c-.08,0-.1,0-.1,0A.38.38,0,0,0,21.87,6.63Z"/><path d="M22.18,6.61a1,1,0,0,0-.65.18l0,0a.72.72,0,0,1,.89,0A.51.51,0,0,0,22.18,6.61Z"/><path class="cls-22" d="M22.36,6.86l.1-.07a.49.49,0,0,1-.26.15.64.64,0,0,1-.36,0,.77.77,0,0,1-.18-.1h0a.73.73,0,0,0,.33.12A.64.64,0,0,0,22.36,6.86Z"/><ellipse cx="22.1" cy="6.85" rx="0.13" ry="0.11"/><path d="M24,6.61s0,0,0,0,.06-.06.06-.06S24,6.63,24,6.61Z"/><path d="M23.86,6.59s0,0,.08,0,0,0,0,0S24,6.62,23.86,6.59Z"/><path d="M23.8,6.58s0,0,.08,0,.05,0,.05,0S23.89,6.61,23.8,6.58Z"/><path d="M23.71,6.56a.17.17,0,0,0,.09,0c.06,0,.07,0,.07,0A.22.22,0,0,1,23.71,6.56Z"/><path d="M23.47,6.59a.79.79,0,0,1,.53,0l0,0a.57.57,0,0,0-.7.12A.37.37,0,0,1,23.47,6.59Z"/><path class="cls-22" d="M23.37,6.82a.19.19,0,0,1-.09,0,.49.49,0,0,0,.22.09.58.58,0,0,0,.28-.07.38.38,0,0,0,.13-.09h0a.52.52,0,0,1-.25.14A.41.41,0,0,1,23.37,6.82Z"/><ellipse cx="23.63" cy="6.77" rx="0.1" ry="0.09" transform="translate(-0.87 4.78) rotate(-11.34)"/><path class="cls-23" d="M21.83,8.29a4.76,4.76,0,0,0,1.5.05c-.15.74-1.36.67-1.5-.05Z"/><path class="cls-6" d="M36,19.37c2.66.37,3.48,1.93,3.21,4.05,0,1.78-1.5,4.13-2.54,4.09-1.47.08-2.19-1.64-3.45-3.48C32.27,21,33.54,19,36,19.37Z"/><path d="M35.73,25.2s0,.08,0,0,0-.15,0-.15A.15.15,0,0,0,35.73,25.2Z"/><path d="M35.83,25.26s0,0-.09,0a.16.16,0,0,1,0-.14A.24.24,0,0,0,35.83,25.26Z"/><path d="M35.89,25.29s0,0-.09,0a.16.16,0,0,1,0-.14A.29.29,0,0,0,35.89,25.29Z"/><path d="M36.35,25.46a1,1,0,0,1-.66-.23l0,0a.78.78,0,0,0,.91.11A.57.57,0,0,1,36.35,25.46Z"/><path d="M36,25.34s0,0-.1,0a.22.22,0,0,1-.06-.14A.36.36,0,0,0,36,25.34Z"/><path class="cls-24" d="M36.47,25.13l.1.1a.59.59,0,0,0-.25-.22.7.7,0,0,0-.38,0,.72.72,0,0,0-.2.09h0A.77.77,0,0,1,36.1,25,.55.55,0,0,1,36.47,25.13Z"/><path d="M35.56,24.78A.52.52,0,0,1,36,24.7a4.2,4.2,0,0,1,.71.26l.08-.13-.07-.08s0,.05,0,.09l-.06-.1L36,24.55A.64.64,0,0,0,35.56,24.78Z"/><polygon points="36.78 24.85 36.71 24.97 36.74 24.97 36.8 24.88 36.78 24.85"/><path d="M38.64,25.2s0,.08,0,0,0-.15,0-.15A.15.15,0,0,1,38.64,25.2Z"/><path d="M38.54,25.26s.06,0,.1,0a.14.14,0,0,0,0-.14A.24.24,0,0,1,38.54,25.26Z"/><path d="M38.48,25.29s.05,0,.09,0a.16.16,0,0,0,0-.14A.24.24,0,0,1,38.48,25.29Z"/><path d="M38,25.46a1,1,0,0,0,.66-.23l0,0a.78.78,0,0,1-.91.11A.57.57,0,0,0,38,25.46Z"/><path d="M38.39,25.34s.06,0,.1,0a.17.17,0,0,0,.06-.14A.36.36,0,0,1,38.39,25.34Z"/><path class="cls-24" d="M37.9,25.13l-.1.1a.62.62,0,0,1,.26-.22.7.7,0,0,1,.38,0,.66.66,0,0,1,.19.09h0a.74.74,0,0,0-.36-.09A.57.57,0,0,0,37.9,25.13Z"/><path d="M38.81,24.78a.5.5,0,0,0-.41-.08,4.2,4.2,0,0,0-.71.26l-.07-.13.06-.08a.11.11,0,0,0,0,.09l0-.1.69-.19A.64.64,0,0,1,38.81,24.78Z"/><polygon points="37.59 24.85 37.66 24.97 37.63 24.97 37.58 24.88 37.59 24.85"/><path class="cls-25" d="M37.38,25.4a1.06,1.06,0,0,0,0,.61c.12.3.15.5-.15.57l-.15,0h0s0,0,0,0h.15c.2,0,.33-.17.25-.44,0-.1-.07-.18-.09-.28a1.4,1.4,0,0,1,0-.5Z"/><path class="cls-25" d="M37,26.23c-.07,0-.2.06-.18.2a.16.16,0,0,0,.15.14.28.28,0,0,1-.09-.07c-.11-.14,0-.23.12-.27Z"/><path class="cls-25" d="M37.15,26.44s-.22,0-.2,0S37.15,26.44,37.15,26.44Z"/><g class="cls-26"><path class="cls-27" d="M36.74,27a.7.7,0,0,1,.75-.06.57.57,0,0,1-.75.06Z"/></g><path d="M39.26,23.22a1.48,1.48,0,0,1-.72.42c-.48.15-1.14.12-1.49.21a4.33,4.33,0,0,1-1.58.3c-.62-.07-.81-.12-1.2.22a1.52,1.52,0,0,1,.23.67,2.63,2.63,0,0,0,.16.77l.42,3.4a23.82,23.82,0,0,0-3.29-1.36,2,2,0,0,0-1.08,0c-1.06-5.9,1.94-8.52,3.95-8.65,4.91-.3,4.62,3.3,4.62,3.3A3.16,3.16,0,0,1,39.26,23.22Z"/><path class="cls-6" d="M34.65,25.3c-.08-.67-.48-1.15-.91-.83-.2.15-.23.47-.11.9a.73.73,0,0,0,.51.57C34.5,26,34.71,25.81,34.65,25.3Z"/><path class="cls-28" d="M33.83,25.17c0,.14.49.76.46.09A.73.73,0,0,0,34.2,25C34.11,24.83,33.79,24.65,33.83,25.17Z"/><path class="cls-28" d="M18.56,7.17c0,.13.48.75.46.08a.65.65,0,0,0-.09-.3C18.83,6.82,18.51,6.64,18.56,7.17Z"/></g></g></svg>