<svg xmlns="http://www.w3.org/2000/svg" xmlns:xlink="http://www.w3.org/1999/xlink" viewBox="0 0 68 68"><defs><style>.cls-1{fill:none;}.cls-2{isolation:isolate;}.cls-3{fill:#505051;}.cls-4{fill:#7e1b20;}.cls-5{clip-path:url(#clip-path);}.cls-6{fill:#6a171b;}.cls-7{fill:#901f24;}.cls-8{fill:#3f3e43;}.cls-9{fill:#68161a;}.cls-10{fill:#871d22;}.cls-11{fill:#b2262d;}.cls-12{fill:#b7b7b7;}.cls-13{fill:#343c59;}.cls-14{fill:#fff;}.cls-15,.cls-18{mix-blend-mode:overlay;}.cls-16{fill:#a9efff;}.cls-17{fill:#ffe212;}.cls-18{fill:#ffc200;}.cls-19{fill:#feb082;}.cls-20{fill:#7b3b3b;}.cls-21{fill:#fff6ee;}.cls-22{fill:#fb9870;}.cls-23{fill:#f28964;}.cls-24{fill:#383e39;}.cls-25{fill:#2d2322;}.cls-26{fill:#282828;}.cls-27{fill:#1e1b1a;}.cls-28{fill:#2d2d2d;}.cls-29{fill:#414765;}.cls-30{fill:#626e7f;}.cls-31{fill:#898e93;}.cls-32{fill:#39424c;}.cls-33{fill:#8e1921;}.cls-34{fill:#8f9196;}.cls-35{fill:#cc2c33;}.cls-36{fill:#49516d;}</style><clipPath id="clip-path"><path class="cls-1" d="M8.19,46.1,2.54,42.94a.25.25,0,0,1-.13-.23l5.66,3.15A.25.25,0,0,0,8.19,46.1Z"/></clipPath></defs><g class="cls-2"><g id="Layer_1" data-name="Layer 1"><rect class="cls-3" x="24.42" y="4.67" width="2.07" height="60.11"/><rect class="cls-3" x="20.22" y="4.62" width="1.89" height="60.11"/><path class="cls-4" d="M14.92,35.12h-.09L9.18,32h.15L15,35.14h-.06Z"/><g class="cls-2"><g class="cls-5"><path class="cls-6" d="M8.07,45.86a.25.25,0,0,0,.12.24L2.54,42.94a.25.25,0,0,1-.13-.23Z"/></g></g><polygon class="cls-7" points="8.47 35.94 2.82 32.79 9.18 31.96 14.83 35.12 8.47 35.94"/><path class="cls-8" d="M11.05,34.93c.37,0,.41-.23.08-.42l-2.4-1.4a2.3,2.3,0,0,0-1.26-.26l-.65.08c-.38,0-.42.25-.1.44L9,34.76a2.36,2.36,0,0,0,1.25.27Z"/><polygon class="cls-9" points="8.07 45.86 2.41 42.71 2.53 33.12 8.19 36.28 8.07 45.86"/><path class="cls-10" d="M8.37,36l0,0,0,0h0l0,0h0l0,0h0a.08.08,0,0,1,0,0h0a.06.06,0,0,0,0,0v.08L2.53,33.12s0,0,0-.06,0,0,0,0v0h0v0l0,0h0v0h0l0,0h.16l5.65,3.15h-.1Z"/><path class="cls-11" d="M14.83,35.12a.25.25,0,0,1,.28.26L15,45a.35.35,0,0,1-.28.33l-6.37.83a.24.24,0,0,1-.27-.27l.12-9.58a.35.35,0,0,1,.28-.34Z"/><path class="cls-8" d="M13.64,44.75a.8.8,0,0,0,.68-.76l.09-7.45a.57.57,0,0,0-.66-.6l-4.21.55a.82.82,0,0,0-.69.77l-.09,7.45a.58.58,0,0,0,.67.59Z"/><path class="cls-8" d="M13.64,44.75a.8.8,0,0,0,.68-.76l.09-7.45a.57.57,0,0,0-.66-.6l-4.21.55a.82.82,0,0,0-.69.77l-.09,7.45a.58.58,0,0,0,.67.59Z"/><path class="cls-12" d="M10,37.59a.41.41,0,0,0,.51.28.43.43,0,0,0,.4-.43.42.42,0,0,0-.52-.28C10.18,37.2,10,37.39,10,37.59Z"/><path class="cls-12" d="M9.35,42.42a.43.43,0,0,0,.52.28c.25,0,.43-.24.39-.43A.41.41,0,0,0,9.75,42,.43.43,0,0,0,9.35,42.42Z"/><path class="cls-12" d="M12.74,37.21a.41.41,0,0,0,.51.28.43.43,0,0,0,.4-.43.42.42,0,0,0-.52-.28C12.88,36.82,12.7,37,12.74,37.21Z"/><path class="cls-12" d="M9.25,39.37a.59.59,0,0,0,.67.6l3.42-.41A.8.8,0,0,0,14,38.8v-.1a.57.57,0,0,0-.66-.59l-3.44.41a.8.8,0,0,0-.68.77Z"/><path class="cls-8" d="M22.15,50.82a16.57,16.57,0,0,1-4.92-.7,11.41,11.41,0,0,1-4.8-2.85,10.29,10.29,0,0,1-2.75-4.76.34.34,0,1,1,.66-.13,9.87,9.87,0,0,0,2.6,4.44c2.76,2.75,7,3.82,12.41,3.09a55.25,55.25,0,0,0,6.79-1.36c4.41-1.22,6.93-2.76,7.29-4.45s-1.23-3.45-4.66-5.49a.34.34,0,0,1-.12-.47.33.33,0,0,1,.46-.11,14.59,14.59,0,0,1,4.1,3.29,3.52,3.52,0,0,1,.88,2.92c-.42,2-3,3.65-7.78,5a53.34,53.34,0,0,1-6.88,1.37A23.58,23.58,0,0,1,22.15,50.82Z"/><path class="cls-13" d="M34.07,34.17l6.46-4.42,2.78-8.49,3.61,1.9s-1.49,7.37-3.1,9.17-8.25,3.91-8.25,3.91Z"/><circle class="cls-14" cx="24.26" cy="37.36" r="1.37"/><path class="cls-14" d="M23.29,38.33a1.4,1.4,0,0,1,1.94,0,1.4,1.4,0,0,1,0-1.94,1.4,1.4,0,0,1-1.94,0A1.4,1.4,0,0,1,23.29,38.33Z"/><path class="cls-14" d="M23,37.83c1-.12,1.21,0,1.76.82-.12-1,0-1.22.81-1.76-1,.11-1.21,0-1.76-.82C23.9,37.05,23.79,37.29,23,37.83Z"/><path class="cls-14" d="M23.68,38.6c.61-.78.85-.86,1.82-.67a1.4,1.4,0,0,1-.67-1.82,1.4,1.4,0,0,1-1.82.67A1.4,1.4,0,0,1,23.68,38.6Z"/><g class="cls-15"><path class="cls-16" d="M19.38,37.36c3.42.8,4.07,1.45,4.88,4.87.8-3.42,1.45-4.07,4.87-4.87-3.42-.81-4.07-1.46-4.87-4.87C23.45,35.9,22.8,36.55,19.38,37.36Z"/><path class="cls-16" d="M20.81,40.8c3-1.84,3.91-1.84,6.89,0-1.85-3-1.85-3.9,0-6.89-3,1.85-3.91,1.85-6.89,0C22.66,36.9,22.66,37.82,20.81,40.8Z"/><path class="cls-16" d="M19.68,39c3.49-.43,4.32,0,6.25,2.89-.42-3.48,0-4.32,2.9-6.25-3.49.42-4.32,0-6.25-2.89C23,36.27,22.61,37.11,19.68,39Z"/><path class="cls-16" d="M22.21,41.78c2.16-2.76,3-3.08,6.47-2.38-2.77-2.16-3.08-3-2.38-6.46-2.16,2.76-3,3.08-6.47,2.37C22.6,37.48,22.92,38.34,22.21,41.78Z"/></g><g class="cls-15"><path class="cls-17" d="M17.44,37.36c4.78,1.12,5.69,2,6.82,6.82,1.12-4.78,2-5.7,6.81-6.82-4.78-1.13-5.69-2-6.81-6.82C23.13,35.32,22.22,36.23,17.44,37.36Z"/><path class="cls-17" d="M19.43,42.18c4.18-2.59,5.47-2.59,9.65,0-2.59-4.18-2.59-5.47,0-9.64-4.18,2.58-5.47,2.58-9.65,0C22,36.71,22,38,19.43,42.18Z"/><path class="cls-17" d="M17.85,39.71c4.88-.59,6-.05,8.76,4-.6-4.88-.05-6,4.05-8.75-4.88.59-6.05.05-8.76-4C22.5,35.83,22,37,17.85,39.71Z"/><path class="cls-17" d="M21.39,43.55c3-3.87,4.24-4.32,9.05-3.33-3.86-3-4.31-4.24-3.32-9-3,3.87-4.24,4.31-9,3.32C21.93,37.52,22.38,38.73,21.39,43.55Z"/></g><path class="cls-18" d="M21.67,49.72c-.09.36-.08.68,0,.7s.24-.26.32-.63l.19-.84c.08-.36.07-.68,0-.7s-.23.26-.31.63Z"/><path class="cls-18" d="M21.78,49.56c-.05.21-.05.39,0,.4s.13-.15.18-.36l.11-.48c0-.21,0-.39,0-.41s-.14.15-.18.36Z"/><path class="cls-18" d="M17.73,51.59c-.1.37-.1.68,0,.7s.24-.25.34-.61l.22-.83c.1-.36.1-.68,0-.7s-.24.25-.34.61Z"/><path class="cls-18" d="M17.84,51.44c-.05.2-.05.38,0,.4s.14-.15.19-.35l.13-.48c.06-.21.06-.39,0-.4s-.14.14-.2.35Z"/><path class="cls-18" d="M26.85,49.45c0,.27.15.48.22.46s.08-.24,0-.51L27,48.77c0-.27-.15-.48-.22-.46s-.08.24,0,.51Z"/><path class="cls-18" d="M26.88,49.3c0,.16.08.28.12.27s.05-.14,0-.29L27,48.92c0-.16-.09-.28-.13-.27s0,.14,0,.29Z"/><path class="cls-18" d="M24.36,54.38c.05.27.15.49.22.47s.08-.24,0-.51l-.12-.63c-.05-.27-.15-.48-.22-.47s-.08.25,0,.52Z"/><path class="cls-18" d="M24.38,54.24c0,.16.09.28.13.27s0-.14,0-.3l-.07-.35c0-.16-.09-.28-.13-.27s0,.14,0,.29Z"/><path class="cls-18" d="M20.24,55.46c-.07.42,0,.79.06.8s.26-.31.33-.74l.17-1c.08-.42.05-.79-.06-.81s-.25.32-.33.75Z"/><path class="cls-18" d="M20.36,55.26c0,.25,0,.46,0,.47s.14-.18.19-.43l.09-.56c.05-.25,0-.46,0-.47s-.15.18-.19.43Z"/><path class="cls-18" d="M34.62,46c.18.32.27.63.19.67s-.3-.18-.49-.5l-.42-.75c-.19-.33-.27-.63-.19-.68s.3.18.48.51Z"/><path class="cls-18" d="M34.46,45.86c.11.19.16.37.11.39s-.17-.1-.28-.29l-.24-.43c-.11-.19-.16-.36-.11-.39s.17.11.28.29Z"/><path class="cls-18" d="M38.93,46.63c.2.32.3.62.22.67s-.31-.17-.51-.49l-.45-.73c-.2-.32-.3-.62-.22-.66s.31.16.51.48Z"/><path class="cls-18" d="M38.77,46.52c.12.18.17.35.13.38s-.18-.1-.29-.28l-.26-.42c-.12-.18-.17-.36-.13-.38s.18.09.29.28Z"/><path class="cls-18" d="M29.58,47.24c0,.27,0,.5-.07.51s-.15-.21-.18-.49l-.06-.63c0-.27,0-.5.07-.51s.15.21.18.48Z"/><path class="cls-18" d="M29.51,47.11c0,.16,0,.29,0,.29s-.08-.12-.1-.28l0-.36c0-.16,0-.29,0-.29s.09.12.11.27Z"/><path class="cls-18" d="M33.4,51.23c0,.28,0,.51-.07.52s-.15-.22-.18-.49l-.06-.63c0-.28,0-.51.07-.51s.15.21.18.48Z"/><path class="cls-18" d="M33.34,51.11c0,.15,0,.29,0,.29s-.09-.12-.11-.28l0-.36c0-.16,0-.29,0-.3s.08.12.1.28Z"/><path class="cls-18" d="M37.65,51.06c.2.39.28.74.18.79s-.33-.23-.53-.61l-.45-.89c-.19-.39-.27-.74-.18-.79s.34.23.53.61Z"/><path class="cls-18" d="M37.48,50.91c.11.22.16.43.1.45s-.19-.13-.3-.35L37,50.5c-.11-.22-.16-.43-.1-.45s.19.13.3.35Z"/><path class="cls-19" d="M41.66,17.76a9,9,0,0,0,4.14-.44s1.64,3.58.17,4.36c0,0-3.06.87-4.6.09C41.37,21.77,40.42,17.76,41.66,17.76Z"/><path class="cls-20" d="M41.4,19.1c-.12.61-1-.07-1-.07-2-1.49-2.8.56-2.8.56-.48,1.15-4.48,2.18-5.21,2s-.39-1.76-.09-3.14c0,0,1.64-6.86,7.3-4.07C39.61,14.4,42.18,15.36,41.4,19.1Z"/><path class="cls-19" d="M38.21,24.14c.33-.28.8.37,1.07,0a.25.25,0,0,1,.09-.09c.06,0,.11,0,.16.09s.27.28.64-.06.93.29,1.22.24c.76-.15.9-1.24,1-2.36a22.7,22.7,0,0,0,.23-3.39c0-.06-.17,0-.17,0-.18-.09-.17-.3-.29-.4a1.48,1.48,0,0,1-.31-.34c0-.11,0-.22,0-.33.34-3.37-.75-3.51-.75-3.51a8.16,8.16,0,0,0-2.72-.67,5.11,5.11,0,0,0-3.3.94h0a4.82,4.82,0,0,0-.6.5,8,8,0,0,0-2.05,3.33,5.28,5.28,0,0,0-.1,2.56,2.29,2.29,0,0,0,.08.28,2.52,2.52,0,0,0,.13.33c.06.14.12.26.18.38a2.66,2.66,0,0,0,2,1.58,8.75,8.75,0,0,1,1.14.19,7.41,7.41,0,0,1,1.19,1C37.74,25.2,38.21,24.14,38.21,24.14Z"/><path class="cls-20" d="M42.31,17.75c-.15.63-1.12.18-1.12.18-2.25-.69-3.08.68-3.08.68-.57,1.2-5,2.41-5.77,2.27s-.37-1.79,0-3.22c0,0,1.82-7.28,7.92-4.63A4.24,4.24,0,0,1,42.31,17.75Z"/><path class="cls-20" d="M32.05,21s-3.53-6.41,3.5-8.82c2.8-1,7.8,1.33,6.33,5.74C41.88,17.91,36.18,11.73,32.05,21Z"/><path class="cls-20" d="M36.43,22c.34,0,.58.25.55.47s-.32.37-.66.33-.58-.25-.55-.48S36.09,21.92,36.43,22Z"/><path class="cls-21" d="M36.06,22.36c.06,0,.11.06.1.11s-.06.08-.13.08a.1.1,0,1,1,0-.19Z"/><path class="cls-19" d="M37.9,19.8s-1.59-.95-.77-1.73c0,0,.54-.44,1.71,0,0,0,1.43.65.65,1.38C39.49,19.45,39.44,19.38,37.9,19.8Z"/><path class="cls-22" d="M37.94,19.41s-1-.76-.45-1a1.61,1.61,0,0,1,1.51.25s.68.5.1.73C39.1,19.36,38.1,18.47,37.94,19.41Z"/><path class="cls-20" d="M35.41,22.89a2.56,2.56,0,0,1,.44-1.67,2.22,2.22,0,0,0-1.09,1.38S34.6,22.92,35.41,22.89Z"/><path class="cls-22" d="M40.33,19.14c-.17-.08-.18-.06,0,0l.79.54a1.18,1.18,0,0,1,.38.52l.43,1.4c.05.18.08.18.05,0l-.19-1.5a.69.69,0,0,0-.35-.48Z"/><path class="cls-23" d="M39.53,24.11A2.36,2.36,0,0,0,39.46,23a6.63,6.63,0,0,1-.09,1C39.43,24,39.48,24.05,39.53,24.11Z"/><path class="cls-22" d="M37.59,23.51s.53-.24.57.4C38.16,23.91,37.94,23.45,37.59,23.51Z"/><path d="M60.48,50.88l-.27-.08c-1.37-.53-.86-2.69-.86-2.69a7.42,7.42,0,0,1,1.71-3c1.44-1.32,0-1.26-.2-2-.45-1.73,1.57-2,2.25-1.85,2.65.47,1.18,4.1,1.18,4.1a1.18,1.18,0,0,0-.79,1.19C63.76,50.57,61.55,51.09,60.48,50.88Z"/><path class="cls-24" d="M63.5,46.53a1.18,1.18,0,0,1,.79-1.19s1.4-3.46-1-4.06c1.58,1,.43,3.83.43,3.83a1.17,1.17,0,0,0-.8,1.18c.27,4-1.93,4.57-3,4.36a1.4,1.4,0,0,0,.3.15C61.12,51.16,63.79,50.94,63.5,46.53Z"/><path class="cls-25" d="M62,45.1s.08,4.15-1.38,4.58c0,0-1.09.14-.82-1,.19-.73,1.28-2.24,1.07-3.9C60.91,44.83,62,44.37,62,45.1Z"/><path class="cls-13" d="M55.38,26.69S40.54,34.83,47.8,39.63L61,45.74S63,44.62,62.9,41.19L52.75,35.51,62,33.91S61.8,21.61,55.38,26.69Z"/><path class="cls-26" d="M55.77,49.79s.25.14.19,1.27a.83.83,0,0,1-.76.67l-2,0-.46-.85L51.17,51l-.06.65s-4.69.38-5-1.23c0,0-.11-1,.38-.84Z"/><path class="cls-27" d="M54.74,46.58a4.53,4.53,0,0,1,.94,1.15,3.78,3.78,0,0,1,0,2.22,7.53,7.53,0,0,1-3,.23,7,7,0,0,0-2.4.46c-.94.34-3.26.17-4-.92,0,0-.14-1,.75-1.11a5.64,5.64,0,0,0,4.9-2A3.13,3.13,0,0,0,54.74,46.58Z"/><path class="cls-28" d="M46.94,49.14c.35-.28.26-.26,1.76-.16a3.59,3.59,0,0,0,3.86-2.16,2.08,2.08,0,0,1-.64-.24,5.64,5.64,0,0,1-4.9,2c-.89.06-.75,1.11-.75,1.11a2,2,0,0,0,.35.36A1.4,1.4,0,0,1,46.94,49.14Z"/><path class="cls-29" d="M44.61,17.55c2.24-1.89,16.06-2.82,21,13.69,0,0-2.44,3.29-11.7,1.29,0,0-4.36-3.59-9.39-7.37C44.37,25.06,41.36,20.29,44.61,17.55Z"/><path class="cls-29" d="M65,32s2.4,10.86-10.88,5.64l1.49,8.69s-.91,2.38-4.55.55L48,33.11s-.27-4.11,4.78-2.89Z"/><path class="cls-30" d="M42.45,24.48a9.84,9.84,0,0,1-6,.3l-.38-.12a8.49,8.49,0,0,1-2.5-1.38L33.28,23A12.17,12.17,0,0,1,30,18.46a.93.93,0,0,1,.33-1L33,15.63a1.18,1.18,0,0,1,1.15,0l7.32,4.34a1.53,1.53,0,0,1,.65,1Z"/><path class="cls-31" d="M36.09,24.66a8.49,8.49,0,0,1-2.5-1.38Z"/><path class="cls-31" d="M37.34,23.06l-.87,1.72A8.56,8.56,0,0,1,33.28,23l.8-1.6a.68.68,0,0,1,.91-.3l2,1A.69.69,0,0,1,37.34,23.06Z"/><path class="cls-32" d="M36.77,23.31l-.68,1.35a8.49,8.49,0,0,1-2.5-1.38L34.21,22a.55.55,0,0,1,.72-.24l1.6.81A.52.52,0,0,1,36.77,23.31Z"/><path class="cls-31" d="M38,19a.73.73,0,0,1-.73.72A.72.72,0,0,1,36.5,19a.73.73,0,0,1,.72-.73A.73.73,0,0,1,38,19Z"/><path class="cls-32" d="M37.67,19a.45.45,0,0,1-.9,0,.45.45,0,1,1,.9,0Z"/><path class="cls-30" d="M37.8,17.46a.59.59,0,1,1-1.16.15L36,12.49a.64.64,0,0,1,.49-.75.65.65,0,0,1,.68.6Z"/><path class="cls-13" d="M54.89,29.92s6.94,3.23,10.7,1.32C65.59,31.24,61.87,35.09,54.89,29.92Z"/><path class="cls-33" d="M35.57,36.24l3.12-.88s-.24-3.13-2.44-3.37l-2.18,2.18Z"/><path class="cls-33" d="M34.86,34.55s2.72.86-.77,3.41a2.33,2.33,0,0,1-3-2.18s1.47-3.65,3.61-1.9C34.8,34,35.08,34.36,34.86,34.55Z"/><path class="cls-34" d="M36,37.93a.36.36,0,0,1,0,.51l-.76.64a.36.36,0,0,1-.51,0l-4.47-5.33a.36.36,0,0,1,0-.51l.77-.65a.36.36,0,0,1,.5.05Z"/><path class="cls-34" d="M30.2,32.2c.07.09,0,.26-.13.38l-5.82,4.63c-.15.12-.33.13-.4,0s0-.27.12-.39l5.82-4.63C29.94,32.12,30.12,32.1,30.2,32.2Z"/><path class="cls-34" d="M30.86,32.88c.12.14.14.32.05.4s-.26,0-.38-.13l-.61-.73c-.12-.15-.14-.33-.05-.4s.27,0,.38.12Z"/><path class="cls-35" d="M29.94,36.41c-.57.62.07.85.3.86a5,5,0,0,0,.9-.18c-.26,1.42.9.75.9.75.31,1.37,1.3.25,1.3.25.34.8.94-.16.94-.16.73-1-.09-1.17-.09-1.17-.35-.08-.9,1-.9,1,.48-1.08-.11-1.09-.11-1.09-.25-.09-.53.18-.72.41a.89.89,0,0,0,0-.41c-.12-.29-.3-.35-.47-.31,1.34-1.15.31-1.39-.14-1.13A4.93,4.93,0,0,0,29.94,36.41Z"/><path class="cls-35" d="M30.26,35.05c.39.47,2.77-.52,2.77-.52s1.51.88,1.61-.84a2.21,2.21,0,0,0-2.14-.25S29.57,34.2,30.26,35.05Z"/><path class="cls-36" d="M44.38,18.82c-2.13,2.13,4.71,8.43,4.71,8.43l-4.25-1.34L44.06,28s7.07,5.27,9.38,2.39S47.41,15.11,44.38,18.82Z"/><path class="cls-29" d="M49.05,27.24s1.4-.37,2.71,1.45A22.65,22.65,0,0,0,49.05,27.24Z"/><path class="cls-33" d="M44.46,27.39a2.73,2.73,0,0,1-3-.76A14,14,0,0,0,40,25.25s-1.38-1.17,0-1.23l2.81,2.23S43.85,25.3,44.46,27.39Z"/><path class="cls-35" d="M46.13,26.63c-1.62-1.79-3.33-2.9-4.05-2.82,0,0-.48-.18-1.11-.34a2.46,2.46,0,0,0-1.16,0c-.39.07-2.19,1-.44,1.53,0,0-1.11,1.34,0,1.38,0,0-.51,1.22.53.77,0,0-.1,1.11,1.4,0,.24-.16.7-.64,1-.58a.82.82,0,0,1,.88.32s.51,1.68,1.82,1.89C45,28.85,47.08,27.67,46.13,26.63Z"/><path class="cls-33" d="M41.34,27.22a3.57,3.57,0,0,1-.54.33,2.45,2.45,0,0,1,1.17-.8C41.74,26.89,41.49,27.12,41.34,27.22Z"/><path class="cls-33" d="M39.37,25s.73-.88,1.18-1a1.3,1.3,0,0,1,.64.17s-1.14-1-2.29.61A.85.85,0,0,0,39.37,25Z"/><path class="cls-33" d="M39.41,26.41l1.31-1.49A2.74,2.74,0,0,0,39.41,26.41Z"/><path class="cls-33" d="M40,27.15l1.28-1.35A2.1,2.1,0,0,0,40,27.15Z"/><path class="cls-35" d="M45,25.5l2.72,1a2.89,2.89,0,0,1-1.16,3.4L43.69,28Z"/><rect class="cls-3" x="18.04" y="7" width="10.44" height="0.85"/><rect class="cls-3" x="18.04" y="21.2" width="10.44" height="0.85"/><rect class="cls-3" x="18.04" y="36.39" width="10.44" height="0.85"/><rect class="cls-3" x="18.04" y="50.43" width="10.44" height="0.85"/><rect class="cls-3" x="18.04" y="61.11" width="10.44" height="0.85"/></g></g></svg>