<svg id="Layer_1" data-name="Layer 1" xmlns="http://www.w3.org/2000/svg" xmlns:xlink="http://www.w3.org/1999/xlink" viewBox="0 0 68 68"><defs><style>.cls-1{fill:#cbcdd1;}.cls-2{isolation:isolate;}.cls-3{clip-path:url(#clip-path);}.cls-4{fill:url(#linear-gradient);}.cls-5{clip-path:url(#clip-path-2);}.cls-6{fill:url(#linear-gradient-2);}.cls-7{fill:url(#New_Gradient_Swatch);}.cls-8{fill:#9898a1;}.cls-9{fill:url(#linear-gradient-3);}.cls-10{fill:#272727;}.cls-11{fill:#3e4044;}.cls-12{fill:#2f2f31;}.cls-13{fill:#066fc2;}.cls-14{fill:#045f9e;}</style><clipPath id="clip-path"><path class="cls-1" d="M54.09,53.22v1.43C48.57,59.49,41.25,63.21,31.72,66V64.59C41.26,61.78,48.58,58.06,54.09,53.22Z"/></clipPath><linearGradient id="linear-gradient" x1="35.41" y1="54.62" x2="46.95" y2="62.32" gradientUnits="userSpaceOnUse"><stop offset="0.01" stop-color="#938fa3"/><stop offset="0.22" stop-color="#aca8bf"/><stop offset="0.69" stop-color="#646370"/><stop offset="0.96" stop-color="#646370"/><stop offset="1" stop-color="#646370"/></linearGradient><clipPath id="clip-path-2"><path class="cls-1" d="M31.73,64.59V66c-1.56-1.65-3.33-3.24-5.13-4.82V59.76C28.4,61.35,30.16,62.94,31.73,64.59Z"/></clipPath><linearGradient id="linear-gradient-2" x1="26.59" y1="62.89" x2="31.73" y2="62.89" xlink:href="#linear-gradient"/><linearGradient id="New_Gradient_Swatch" x1="26.59" y1="57.61" x2="54.09" y2="57.61" gradientUnits="userSpaceOnUse"><stop offset="0" stop-color="#8f8fa3"/><stop offset="0" stop-color="#9292a6"/><stop offset="0.02" stop-color="#a9aac1"/><stop offset="0.04" stop-color="#bcbdd7"/><stop offset="0.07" stop-color="#cbcce8"/><stop offset="0.1" stop-color="#d5d6f3"/><stop offset="0.15" stop-color="#dbdcfa"/><stop offset="0.28" stop-color="#dddefc"/><stop offset="0.57" stop-color="#a9aac1"/><stop offset="1" stop-color="#636470"/></linearGradient><linearGradient id="linear-gradient-3" x1="31.41" y1="42.31" x2="42.91" y2="42.31" xlink:href="#linear-gradient"/></defs><g id="television"><g id="television-2" data-name="television"><g class="cls-2"><g class="cls-2"><path class="cls-1" d="M54.09,53.22v1.43C48.57,59.49,41.25,63.21,31.72,66V64.59C41.26,61.78,48.58,58.06,54.09,53.22Z"/><g class="cls-3"><path class="cls-4" d="M50.18,56.26a64.33,64.33,0,0,1-18.45,8.33V66a64.21,64.21,0,0,0,18.45-8.33,41.62,41.62,0,0,0,3.92-3V53.22A43.19,43.19,0,0,1,50.18,56.26Z"/></g></g><g class="cls-2"><path class="cls-1" d="M31.73,64.59V66c-1.56-1.65-3.33-3.24-5.13-4.82V59.76C28.4,61.35,30.16,62.94,31.73,64.59Z"/><g class="cls-5"><path class="cls-6" d="M31.73,64.59V66c-1.56-1.65-3.33-3.24-5.13-4.82V59.76c1.81,1.59,3.57,3.18,5.14,4.83Z"/></g></g><path class="cls-7" d="M54.09,53.22c-5.51,4.84-12.83,8.56-22.36,11.37-1.57-1.65-3.33-3.24-5.14-4.83a60.17,60.17,0,0,1,18-9.13C47.68,51.54,50.82,52.44,54.09,53.22Z"/></g><g class="cls-2"><path class="cls-8" d="M42.06,24.78c1.13.57,1.13,1.5,0,2.07l-5.63,2.87a5.1,5.1,0,0,1-4.09,0c-1.13-.57-1.14-1.5,0-2.07L38,24.78A5.1,5.1,0,0,1,42.06,24.78Z"/></g><path class="cls-9" d="M42.07,26.85l-5.63,2.87a5.1,5.1,0,0,1-4.09,0c-.57-.29-.85-.67-.85-1l-.09,28.66c0,.38.28.76.85,1.05a5.08,5.08,0,0,0,4.08,0L42,55.51c.53-.27.81-.62.83-1v0s0-.06,0-.09l.09-28.66C42.91,26.2,42.63,26.57,42.07,26.85Z"/><g id="television-3" data-name="television"><g class="cls-2"><polygon class="cls-10" points="6.79 67.11 3.96 65.67 3.84 29.87 6.67 31.31 6.79 67.11"/><polygon class="cls-11" points="6.67 31.31 3.84 29.87 61.21 0.89 64.04 2.33 6.67 31.31"/><polygon class="cls-12" points="64.04 2.33 64.16 38.13 6.79 67.11 6.67 31.31 64.04 2.33"/><polygon class="cls-10" points="62.04 5.37 30.67 21.22 62.14 37.12 62.04 5.37"/><polygon class="cls-11" points="30.67 21.22 8.69 32.32 8.79 64.07 62.14 37.12 62.14 37.12 30.67 21.22"/><polygon class="cls-13" points="7.14 31.55 60.49 4.6 60.6 36.35 7.24 63.3 7.14 31.55"/><path class="cls-14" d="M23,23.55c-5.31,7-10.49,14.13-15.8,21.22l.05,13.91C18,44,28.46,29.19,39.9,15Z"/></g></g></g></g></svg>