<svg xmlns="http://www.w3.org/2000/svg" xmlns:xlink="http://www.w3.org/1999/xlink" viewBox="0 0 68 68"><defs><style>.cls-1{fill:url(#Áåçûìÿííûé_ãðàäèåíò_29);}.cls-2{isolation:isolate;}.cls-3{fill:url(#Áåçûìÿííûé_ãðàäèåíò_28);}.cls-18,.cls-4{fill:#e6e6e6;}.cls-5{clip-path:url(#clip-path);}.cls-6{fill:#f0b88f;}.cls-7{fill:#df9876;}.cls-8{fill:#4f2900;}.cls-9{fill:#f9f9f8;}.cls-10{fill:url(#Áåçûìÿííûé_ãðàäèåíò_28-2);}.cls-11{fill:url(#Áåçûìÿííûé_ãðàäèåíò_6);}.cls-12{fill:#593717;}.cls-13{fill:#784a1f;}.cls-14{fill:#345661;}.cls-15{fill:#3d6570;}.cls-16{fill:#426e7b;}.cls-17{fill:#dedede;}.cls-18{mix-blend-mode:multiply;}.cls-19{fill:#d18d6d;}.cls-20{fill:#c77752;}.cls-21{fill:#f5f5f5;}.cls-22{fill:#473f3a;}.cls-23{fill:#302722;}.cls-24{fill:#deb08a;}.cls-25{fill:#ffd968;}.cls-26{fill:#ffba3e;}.cls-27{fill:#2d2825;}.cls-28{fill:#58514d;}.cls-29{fill:#dbdbdb;}.cls-30{fill:#c9c9c9;}.cls-31{fill:#d6a380;}.cls-32{fill:#422200;}.cls-33{fill:#703a00;}.cls-34{fill:#b8b8b8;}.cls-35{fill:#c6c6c6;}.cls-36{fill:#9e9e9e;}.cls-37{fill:#593821;}.cls-38{fill:#824923;}.cls-39{fill:#c98e4b;}.cls-40{fill:url(#Áåçûìÿííûé_ãðàäèåíò_6-2);}.cls-41{fill:#eaeaea;}.cls-42{fill:url(#Áåçûìÿííûé_ãðàäèåíò_12);}.cls-43{fill:#909090;}.cls-44{fill:url(#Áåçûìÿííûé_ãðàäèåíò_12-2);}.cls-45{fill:#626262;}.cls-46{fill:#7d7d7d;}.cls-47{fill:#b36530;}.cls-48{fill:#66391c;}.cls-49{fill:#b6b6b6;}.cls-50{fill:#975529;}.cls-51{fill:#814823;}.cls-52{fill:#a9a9a9;}.cls-53{fill:#bcbcbc;}.cls-54{fill:#f1bc95;}.cls-55{fill:#648826;}.cls-56{fill:#557125;}.cls-57{fill:#421703;}.cls-58{fill:#63260a;}.cls-59{fill:#3d2c20;}.cls-60{fill:#473326;}.cls-61{fill:#759a35;}.cls-62{fill:#e3fffb;}.cls-63{fill:#507d70;}.cls-64{fill:#487066;}.cls-65{fill:#57877f;}.cls-66{fill:#5c8f82;}.cls-67{fill:#2d241e;}.cls-68{fill:#4e7b7c;}.cls-69{fill:#5d8584;}.cls-70{fill:#ececec;}.cls-71{fill:#d9d9d9;}.cls-72{fill:#e8b189;}.cls-73{fill:#0b0b0b;}.cls-74{fill:#252013;}.cls-75{fill:#af846d;}.cls-76{fill:#c99a7b;}.cls-77{fill:#bf9173;}</style><linearGradient id="Áåçûìÿííûé_ãðàäèåíò_29" x1="48.87" y1="32.03" x2="52.58" y2="32.03" gradientUnits="userSpaceOnUse"><stop offset="0" stop-color="#a9c3d1"/><stop offset="0.13" stop-color="#a1bac7"/><stop offset="0.34" stop-color="#8ca2ad"/><stop offset="0.61" stop-color="#697a81"/><stop offset="0.93" stop-color="#3a4446"/><stop offset="1" stop-color="#2f3738"/></linearGradient><linearGradient id="Áåçûìÿííûé_ãðàäèåíò_28" x1="311.78" y1="-52.06" x2="317.77" y2="-52.06" gradientTransform="translate(-60.39 331.31) rotate(-60.04)" gradientUnits="userSpaceOnUse"><stop offset="0.16" stop-color="#d9d9d9"/><stop offset="0.16" stop-color="#ededed"/><stop offset="0.56" stop-color="#ededed"/><stop offset="0.56" stop-color="#f5f5f5"/><stop offset="0.87" stop-color="#f5f5f5"/><stop offset="0.87" stop-color="#e8e8e8"/></linearGradient><clipPath id="clip-path"><path class="cls-1" d="M49.4,34.33c.71.41,1.89-.28,2.62-1.55s.75-2.64,0-3.05-1.89.28-2.63,1.55S48.68,33.92,49.4,34.33Z"/></clipPath><linearGradient id="Áåçûìÿííûé_ãðàäèåíò_28-2" x1="51.23" y1="29.55" x2="49.08" y2="34.16" gradientTransform="matrix(1, 0, 0, 1, 0, 0)" xlink:href="#Áåçûìÿííûé_ãðàäèåíò_28"/><linearGradient id="Áåçûìÿííûé_ãðàäèåíò_6" x1="505.5" y1="-188.04" x2="506.07" y2="-188.04" gradientTransform="translate(-477.77 -81.67) rotate(32.98)" gradientUnits="userSpaceOnUse"><stop offset="0.16" stop-color="#b8b8b8"/><stop offset="0.16" stop-color="#d1d1d1"/><stop offset="0.56" stop-color="#d1d1d1"/><stop offset="0.56" stop-color="#dadada"/><stop offset="0.87" stop-color="#dadada"/><stop offset="0.87" stop-color="#cfcfcf"/></linearGradient><linearGradient id="Áåçûìÿííûé_ãðàäèåíò_6-2" x1="402.39" y1="-124.21" x2="418.76" y2="-124.21" gradientTransform="translate(-376.42 189.14) rotate(-0.06)" xlink:href="#Áåçûìÿííûé_ãðàäèåíò_6"/><linearGradient id="Áåçûìÿííûé_ãðàäèåíò_12" x1="404.19" y1="-125.8" x2="416.96" y2="-125.8" gradientTransform="translate(-376.42 189.14) rotate(-0.06)" gradientUnits="userSpaceOnUse"><stop offset="0.16" stop-color="#5e5e5e"/><stop offset="0.16" stop-color="#777"/><stop offset="0.56" stop-color="#777"/><stop offset="0.56" stop-color="gray"/><stop offset="0.87" stop-color="gray"/><stop offset="0.87" stop-color="#757575"/></linearGradient><linearGradient id="Áåçûìÿííûé_ãðàäèåíò_12-2" x1="407.9" y1="-133.84" x2="413.27" y2="-133.84" xlink:href="#Áåçûìÿííûé_ãðàäèåíò_12"/></defs><g class="cls-2"><g id="Layer_1" data-name="Layer 1"><path class="cls-3" d="M49.23,34.62l.49.29c.81.46,2.14-.32,3-1.75s.84-3,0-3.44l-.49-.28Z"/><path class="cls-4" d="M49.23,34.62c.81.47,2.13-.32,3-1.75s.83-3,0-3.43-2.14.31-3,1.75S48.42,34.16,49.23,34.62Z"/><path class="cls-1" d="M49.4,34.33c.71.41,1.89-.28,2.62-1.55s.75-2.64,0-3.05-1.89.28-2.63,1.55S48.68,33.92,49.4,34.33Z"/><g class="cls-5"><path class="cls-6" d="M49.8,32.71c-.33.61.06,1.15.86,1.53a3.29,3.29,0,0,0,1.32.24h.64l.13,0c3.19-.55,2.25-1.58,2.53-2.69a1.68,1.68,0,0,0,0-.49,3.69,3.69,0,0,0-1.52-2.6,1.58,1.58,0,0,0-1.45.05,3,3,0,0,0-.64.39.27.27,0,0,0-.08.07A21.34,21.34,0,0,0,49.8,32.71Z"/><path class="cls-7" d="M51.63,29.17a0,0,0,0,0,0,0,1.28,1.28,0,0,0,.3.36,5.62,5.62,0,0,0,1.06.77c.16.09.43.16.52.35a1,1,0,0,1,.1.5.69.69,0,0,1,0,.24,2.47,2.47,0,0,1-.29.84,8.69,8.69,0,0,0-.46.77,2.73,2.73,0,0,0-.24.64,2.12,2.12,0,0,1-.6.81h.64l.13,0c3.19-.55,2.25-1.58,2.53-2.69a1.68,1.68,0,0,0,0-.49A2.28,2.28,0,0,0,54.67,30a3.33,3.33,0,0,0-.71-.59,3.47,3.47,0,0,0-1.1-.52,4.67,4.67,0,0,1-.51-.16,3,3,0,0,0-.64.39A.27.27,0,0,0,51.63,29.17Z"/><path class="cls-8" d="M51.74,29.06a1.07,1.07,0,0,1,.84.28c1.18.88,1.68,1.64,1.22,2.39-.12.2-.24.4-.34.59l-.06.09-.14.25-.06.1a.57.57,0,0,1-.08.13l-.14.22a.42.42,0,0,1,.31.2,1.43,1.43,0,0,1,.2-.23c.17-.14.34-.28.53-.41h0l.17-.11a.94.94,0,0,1,.3-.12.38.38,0,0,1,.28.05.26.26,0,0,1,.09.09.38.38,0,0,1,.08.24.9.9,0,0,1-.29.55,1.62,1.62,0,0,1-.41.22,2.3,2.3,0,0,0-1,.69.77.77,0,0,1-.13.2,2.44,2.44,0,0,0,.47,0,3.27,3.27,0,0,0,1.76-.7,4.42,4.42,0,0,0,1-1.06,3.12,3.12,0,0,0,.61-2.27,2.8,2.8,0,0,0-1.42-2A4,4,0,0,0,53,28.18,2.23,2.23,0,0,0,51.74,29.06Z"/><path class="cls-9" d="M49.75,32.64c0,.12,0,.24-.06.35a.92.92,0,0,0,0,.49c0,.17.22.27.34.41a1.54,1.54,0,0,0,.28.34,1.66,1.66,0,0,0,.35.13,2.64,2.64,0,0,0,.7.24c.17,0,.34-.05.51-.05a.91.91,0,0,0,.37,0,1.1,1.1,0,0,0,.14-.09l.48-.43a1.18,1.18,0,0,0,.31-.32.78.78,0,0,0,.11-.42.1.1,0,0,0,0-.07c0-.09-.19-.11-.26-.16l-.1-.06a.15.15,0,0,0-.2,0l-.11.08c-.1.06-.18,0-.28,0a1.11,1.11,0,0,1-.36-.18c-.12-.09-.22-.2-.34-.29l-.1-.07a2.61,2.61,0,0,1-.27-.19,5.29,5.29,0,0,0-.41-.41,1.59,1.59,0,0,1-.21-.15.5.5,0,0,1-.05-.46c0-.05,0-.1,0-.12s-.08,0-.11,0a1,1,0,0,0-.21.35c-.1.23-.17.48-.29.7A1.3,1.3,0,0,0,49.75,32.64Zm.8.68c-.11-.12-.31-.2-.39-.35s0-.35.16-.33.11.07.16.12a1.59,1.59,0,0,0,.22.13,3.22,3.22,0,0,1,.28.24c.09.08.23.31.06.39H51a.64.64,0,0,1-.3-.11Z"/></g><path class="cls-10" d="M49.63,31.4c.7-1.21,1.78-1.88,2.51-1.6l-.09-.07c-.72-.41-1.89.28-2.63,1.55s-.74,2.64,0,3a.42.42,0,0,0,.12,0C48.9,33.9,48.93,32.61,49.63,31.4Z"/><path class="cls-11" d="M49.32,34.63,48,36.73c0,.08,0,.2.15.29s.28.09.33,0l1.36-2.1Z"/><path class="cls-12" d="M22.69,45.77c0,.12-.09.23-.13.34a1.13,1.13,0,0,0-.12.65,4.78,4.78,0,0,1,.06.89l1.57.67.68,0s.21.21.24.24a5,5,0,0,0,.71.49,4.37,4.37,0,0,0,1.06.4,5.39,5.39,0,0,0,1.45.08.7.7,0,0,0,.29,0,1.92,1.92,0,0,0,.85-.61.91.91,0,0,0-.18-1,6,6,0,0,0-2.43-1.42L26.17,45s-1.12.28-1.19.3a2.11,2.11,0,0,1-1,.16,3,3,0,0,0-1.07,0l-.06,0a.13.13,0,0,0-.05.06C22.77,45.56,22.73,45.67,22.69,45.77Z"/><path class="cls-13" d="M29.06,47.7c.27.26,0,.58-.27.7a1.17,1.17,0,0,1-.46.06,5.4,5.4,0,0,1-1-.14,4.8,4.8,0,0,1-.82-.24,3.57,3.57,0,0,1-.67-.29c-.22-.15-.26-.45-.4-.66s-.3-.33-.41-.53-.13-.42,0-.48a3.8,3.8,0,0,0,1.22-1l.52,1.31s.27.1.31.11a8,8,0,0,1,.75.32,5.94,5.94,0,0,1,.87.53A4.4,4.4,0,0,1,29.06,47.7Z"/><path class="cls-12" d="M19.4,54.14a5.48,5.48,0,0,0-.3-.8l-.63-1.43a6.22,6.22,0,0,1-.25-1.78.2.2,0,0,0,0-.11c-.12-.24-.73-.27-1-.27a6.7,6.7,0,0,0-.9,0,3.47,3.47,0,0,0-1.1.31c-.51.25-.43.66-.41,1.15a3.14,3.14,0,0,0,.09.75,3.91,3.91,0,0,0,.42,1h.13s.07.65.07.7a3.13,3.13,0,0,0,.3,1,4,4,0,0,0,.44.71,3.08,3.08,0,0,0,1.27,1.13,2,2,0,0,0,.33.08,1.61,1.61,0,0,0,.58,0,1.34,1.34,0,0,0,.83-.36,1.69,1.69,0,0,0,.2-.94A3.31,3.31,0,0,0,19.4,54.14Z"/><path class="cls-13" d="M17,50.49a1.41,1.41,0,0,1,.63-.17c.19,0,.25.12.33.28a2.86,2.86,0,0,1,.22,1.08,6.42,6.42,0,0,0,.19.87c.12.4.37.8.49,1.19a2.85,2.85,0,0,1,.21,1.52.39.39,0,0,1-.05.13c-.11.16-.46.23-.63.26a1.28,1.28,0,0,1-.39,0c-.07,0-.34,0-.39,0a9.59,9.59,0,0,1-.87-1,7.9,7.9,0,0,1-.58-1.21,5,5,0,0,1-.25-1.22,2.11,2.11,0,0,1,0-1,.59.59,0,0,1,.42-.42,2.51,2.51,0,0,1,.27,0A3.89,3.89,0,0,0,17,50.49Z"/><path class="cls-14" d="M24.18,30.43s-1.55,2.92-1.4,5.16.11,2.46-.32,3.4.33,6.66.33,6.66a3.2,3.2,0,0,0,2.46,0l1.09-.57c0-1,0-2,0-3s-.09-2-.06-3.06a4.19,4.19,0,0,1,.42-2A14.35,14.35,0,0,0,28,32.69a23,23,0,0,0-.08-6Z"/><path class="cls-15" d="M27.92,26.65l-.8.81a12.39,12.39,0,0,1-1.64,2.09c-.42.36-.92.61-1.32,1l-.09.11c-.09.19-.23.49-.39.88a15,15,0,0,0,.36,2,7.48,7.48,0,0,1,0,1.06c0,.48-.07,1-.11,1.43s-.07.89-.13,1.33l-.12.67c-.05.26-.07.32.2.4a2.46,2.46,0,0,0,1.32,0,.35.35,0,0,0-.2.05c-.47.23-.93.48-1.39.73s-.25,1-.25,1.35a11.66,11.66,0,0,0,.1,1.68c.14,1.13.39,2.23.64,3.34a3,3,0,0,0,.12.4,2.2,2.2,0,0,0,1.05-.23l1.09-.57c0-1,0-2,0-3s-.09-2-.06-3.06a4.19,4.19,0,0,1,.42-2A14.35,14.35,0,0,0,28,32.69,23,23,0,0,0,27.92,26.65Z"/><path class="cls-16" d="M14.77,50.58s-.37-6.24.49-8,1.31-2.34,1.3-3.53,1.7-5.82,1.7-5.82a6.65,6.65,0,0,1,.2-4.09,6.23,6.23,0,0,1,1.39-2.28s1.48,1.09,4.84-.2,3.25-1.78,3.25-1.78.66,3.47-.94,5.62a6.48,6.48,0,0,1-3.06,2.54s-1.6,5.18-3,7.18A11.72,11.72,0,0,0,19.16,43a13.82,13.82,0,0,0-.43,3.39c-.1,1.35-.21,2.69-.31,4C18.42,50.46,17,52.25,14.77,50.58Z"/><path class="cls-14" d="M20.14,28.48a7,7,0,0,1,.8-1.24,2.77,2.77,0,0,1-1.09-.37,6.23,6.23,0,0,0-1.39,2.28,6.65,6.65,0,0,0-.2,4.09s-1.72,4.62-1.7,5.82-.44,1.79-1.3,3.53-.49,8-.49,8a4.41,4.41,0,0,0,.9.51,9,9,0,0,0-.19-1.6,22.2,22.2,0,0,1-.1-2.45,10.16,10.16,0,0,1,1-4.63c.34-.66.57-1.41.86-2.1.18-.42.36-.85.5-1.29.49-1.54.53-3.19,1.12-4.7a7.91,7.91,0,0,0,.51-1.56C19.68,31.32,19.49,29.84,20.14,28.48Z"/><path class="cls-17" d="M29.18,18.69a32,32,0,0,1-2.35,7S24.3,28.53,18,25.3c0,0,1.36-3.53,1.14-4.3S17,17.09,17.23,15.42s0-3.11,1.92-4.21A29.56,29.56,0,0,1,22,9.67,9.61,9.61,0,0,1,24,9a3.48,3.48,0,0,1,2,.31,4.76,4.76,0,0,1,2.38,2A10.37,10.37,0,0,1,29.18,18.69Z"/><path class="cls-18" d="M26,9.28A3.48,3.48,0,0,0,24,9a9.61,9.61,0,0,0-2.08.7,29.56,29.56,0,0,0-2.8,1.54c-1.88,1.1-1.73,2.54-1.92,4.21s1.65,4.81,1.88,5.58S18,25.3,18,25.3a17.61,17.61,0,0,0,1.92.84c.06,0,.29-1.91.31-2,.21-1.82.6-3.92.15-5.73a7.9,7.9,0,0,0-1.1-2.33,2.68,2.68,0,0,1-.33-1.28,9.72,9.72,0,0,1-.06-1.43,1.51,1.51,0,0,1,.15-.59,1.36,1.36,0,0,1,.43-.43,8.06,8.06,0,0,1,2.68-1.6,10.7,10.7,0,0,1,3-.2,17.28,17.28,0,0,1,3,.36A5.57,5.57,0,0,0,26,9.28Z"/><path class="cls-19" d="M26.68,12.34a1.16,1.16,0,0,1-2,.85c-.37-.35-.77-.77-1.17-1.23A7.13,7.13,0,0,1,22,9.67,9.61,9.61,0,0,1,24,9a3.48,3.48,0,0,1,2,.31,14.91,14.91,0,0,1,.63,3Z"/><path class="cls-20" d="M23.77,11.74a4.92,4.92,0,0,1,.17-1.43c.11-.43.28-.84.37-1.28V8.94A2.66,2.66,0,0,0,24,9a9.61,9.61,0,0,0-2.08.7A7.13,7.13,0,0,0,23.54,12l.33.37A5.17,5.17,0,0,1,23.77,11.74Z"/><path class="cls-21" d="M22.27,9.49a.11.11,0,0,0-.07,0c-.13,0-.23.06-.33.11l-.65.29c-.25.11,0,.56,0,.72a3.54,3.54,0,0,0,.42.85,5.28,5.28,0,0,0,1.18,1.18,6.71,6.71,0,0,0,1,.67c.14.07.9.61,1,.51a1.6,1.6,0,0,0,0-.23,2.81,2.81,0,0,1,.08-.31c.05-.19.13-.38.16-.57s-.08-.15-.23-.2a3.42,3.42,0,0,1-1-.58,6.44,6.44,0,0,1-1-1,3.36,3.36,0,0,1-.53-1.15C22.37,9.64,22.35,9.54,22.27,9.49Z"/><path class="cls-22" d="M29.23,17.47c0,.29-.07.59-.09.89a42.64,42.64,0,0,1-1.29,5c-.13.4-.24.78-.36,1.18-.06.21-.13.41-.21.62a1.83,1.83,0,0,1-.93,1l-1,.4a7.41,7.41,0,0,1-.93.35A4.35,4.35,0,0,1,23,27c-.91-.09-1.78-.39-2.68-.53-.43-.08-.87-.15-1.3-.19-.19,0-1.19-.08-1.28.16a20.89,20.89,0,0,0,.77-2.64c.12-.6.17-1.2.29-1.8,0-.08,0-.21,0-.35a.78.78,0,0,1,.13-.4c.12-.11.28-.05.41-.08s.37.4.49.25a13.32,13.32,0,0,0,.34-3.12.22.22,0,0,1,0-.17.12.12,0,0,1,.08,0c.19-.08.51-.11.64-.27a.08.08,0,0,0,0-.05.25.25,0,0,0,.05-.15c0-.12,0-.17.07-.28a9.12,9.12,0,0,0,.12-1.05,18.41,18.41,0,0,0,0-2.1c0-.45-.15-.85-.22-1.29-.11-.7-.33-1.58-1.14-1.72a.83.83,0,0,0-.69.2c.13-.51.53-.71,1-.87l.21-.06c.79-.09,1.37.83,1.62,1.47a10.87,10.87,0,0,1,.3,1.08,4.8,4.8,0,0,1,.16,1.19c0,.37.1.71.1,1.08,0,.61,0,1.22,0,1.84a5.54,5.54,0,0,0,.05.56.38.38,0,0,1,0,.15c0,.12,0,0,0,.09a.12.12,0,0,0,0,.08h.08a4.1,4.1,0,0,0,.61,0l.91-.06a12.66,12.66,0,0,0,3.54-.87c.08,0,.16-.07.24-.12h0a.46.46,0,0,0,.15-.33,1.8,1.8,0,0,1,0-.22,2.89,2.89,0,0,0,0-.59,12.39,12.39,0,0,0-1-4.27c-.26-.64-.51-1.28-.78-1.91a.39.39,0,0,1,0-.28c.08-.19.4-.15.55-.09a1.44,1.44,0,0,1,.47.51,6.36,6.36,0,0,1,.75,1.44,14.29,14.29,0,0,1,.7,2.06A11.59,11.59,0,0,1,29.21,15c0,.46.06.92.06,1.39,0,.08,0,.18,0,.26A6.81,6.81,0,0,1,29.23,17.47Z"/><path class="cls-23" d="M29.22,17.55a.34.34,0,0,1-.2.14l-.52.07c-.24,0-.49-.27-.45-.59l0-.18,0,0a.45.45,0,0,0,.16-.32l1-.14a2.35,2.35,0,0,1,0,.26A5.14,5.14,0,0,1,29.22,17.55Z"/><path class="cls-23" d="M21.52,18.63h.76a.38.38,0,0,0,.4-.38l0-.79H21L21,18A.64.64,0,0,0,21.52,18.63Z"/><path class="cls-21" d="M27.65,10.68c.05-.23.07-.55-.17-.69A.59.59,0,0,0,27,10a.35.35,0,0,0-.23.4,2,2,0,0,1-.37,1.31.47.47,0,0,0-.14.3.35.35,0,0,0,.06.18,3.46,3.46,0,0,1,.33,1.27.87.87,0,0,0,.36-.35l.48-.73a1.1,1.1,0,0,0,.14-.26,1.07,1.07,0,0,0,.06-.31,2.1,2.1,0,0,0,0-.56A1.4,1.4,0,0,1,27.65,10.68Z"/><path class="cls-24" d="M22.51,8.13l-.18,1.33a6,6,0,0,0,2.13,1.69c1.34.61,1.76.31,1.76.31l.36-2.88S23,6.6,22.51,8.13Z"/><path class="cls-19" d="M22.51,8.13l-.18,1.33a5.91,5.91,0,0,0,1.48,1.32,4.17,4.17,0,0,1,0-.61c.06-.44.19-.87.22-1.31a4.65,4.65,0,0,0-.18-1.28C23.25,7.49,22.69,7.6,22.51,8.13Z"/><path class="cls-25" d="M28.53,17.46l.52-.07a.58.58,0,0,0,.35-.51l.08-.7-1.34.19-.06.5C28.05,17.19,28.3,17.51,28.53,17.46Z"/><path class="cls-25" d="M21.56,18.33h.75a.37.37,0,0,0,.41-.37l0-.79H21l0,.48A.63.63,0,0,0,21.56,18.33Z"/><path class="cls-26" d="M22.31,17.74a.4.4,0,0,1-.42.35.34.34,0,0,1-.32-.39.4.4,0,0,1,.41-.35A.35.35,0,0,1,22.31,17.74Z"/><path class="cls-26" d="M29.16,16.82c0,.2-.18.37-.34.36a.32.32,0,0,1-.25-.38.36.36,0,0,1,.34-.36A.32.32,0,0,1,29.16,16.82Z"/><path class="cls-22" d="M29.25,33.55s-.87,1.81-4.33,2.61a22.89,22.89,0,0,1-5.42.59h-.13a3.35,3.35,0,0,1-.75-.16,8.66,8.66,0,0,1,0-5.53,74.42,74.42,0,0,0,1.73-10.17c.07-.62.1-1,.1-1L22.94,22l4.93-.69S29,18.07,29,18.78C28.84,29.44,29.25,33.55,29.25,33.55Z"/><path class="cls-27" d="M19.49,36.75h-.12a3.36,3.36,0,0,1-.77-.16A4.53,4.53,0,0,1,17.47,36,2.43,2.43,0,0,1,16.54,35s.77-4.69,1.78-13.7l2-.38.12-.05S20.39,33.22,19.49,36.75Z"/><path class="cls-28" d="M21,26.77a11.64,11.64,0,0,0,6.6-2.39v.91A11.5,11.5,0,0,1,21,27.72Z"/><path class="cls-29" d="M29.5,16.44a6.8,6.8,0,0,0-.07-1.56,14.72,14.72,0,0,0-.71-2.6l-.6-1.74a.79.79,0,0,1,.86.31,2.25,2.25,0,0,1,.38.9l.35,1.34a11,11,0,0,1,.35,1.69c0,.74,0,1.45,0,2.19a.3.3,0,0,0,0,.19,2.9,2.9,0,0,0,.82.78,10.91,10.91,0,0,0,1.31.8c.62.37,1.25.71,1.89,1,.17.09.79.26.88.4s-.48.4-.63.54-.6,1-.44,1.05c-.7-.29-1.44-.5-2.14-.82l-1.39-.62-.7-.32c-.18-.08-.47-.15-.59-.31s-.06-.17,0-.29a6.74,6.74,0,0,0,.14-.9c0-.1,0-.2,0-.31C29.26,17.61,29.43,17,29.5,16.44Z"/><path class="cls-30" d="M29.23,11.77a1.65,1.65,0,0,0-.48-1.26A3.4,3.4,0,0,0,27.8,10c-.24-.06-.65-.2-.82.06a2,2,0,0,0-.24.59,4.85,4.85,0,0,0,1.26.18,1.75,1.75,0,0,1,.77.22,1.47,1.47,0,0,1,.46.75Z"/><path class="cls-6" d="M27.67,10c-.19.87-1,1.07-2.13.78A4.23,4.23,0,0,1,24,9.87c-.17-.14-.31-.27-.43-.38l-.1-.1-.08-.08-.11-.12C20.62,6,22.4,5.73,23.06,4.4a1.53,1.53,0,0,1,.19-.3,1.86,1.86,0,0,1,.19-.22,4.77,4.77,0,0,1,3.68-1.29,2,2,0,0,1,1.39,1.26,3.84,3.84,0,0,1,.31.94.51.51,0,0,1,0,.13C28.93,6,27.85,9.14,27.67,10Z"/><path class="cls-31" d="M28.84,4.94h0a1.36,1.36,0,0,1-.6.1,6.78,6.78,0,0,1-1.69-.12c-.24,0-.57-.2-.81-.1a1.24,1.24,0,0,0-.52.41,1.28,1.28,0,0,0-.16.28,3.54,3.54,0,0,0-.41,1.08c-.05.38-.12.77-.19,1.15a4.77,4.77,0,0,1-.31.82A2.91,2.91,0,0,0,24,9.89l-.43-.38a.36.36,0,0,0-.1-.11l-.08-.08-.11-.12c-2.69-3.22-.9-3.45-.24-4.79a1.41,1.41,0,0,1,.18-.29,1.3,1.3,0,0,1,.19-.22,3,3,0,0,1,1.72-.73,4.82,4.82,0,0,1,1.2,0,4.46,4.46,0,0,1,1.52.41,6.19,6.19,0,0,0,.64.27,4,4,0,0,1,.3.93A.68.68,0,0,1,28.84,4.94Z"/><path class="cls-8" d="M28,9.38A2.9,2.9,0,0,0,28,9a.25.25,0,0,0,0-.17s-.13.17-.15.19a.85.85,0,0,1-.22,0c-.15,0-.22-.1-.35-.16a.64.64,0,0,0-.28,0,5.81,5.81,0,0,1-.58.09,1.63,1.63,0,0,0-.54.05l-.24.1a1.59,1.59,0,0,0-.27.12l-.18.06a.61.61,0,0,1-.18,0,1.8,1.8,0,0,1-.39-.34,1.65,1.65,0,0,1-.42-.69,2.38,2.38,0,0,1,0-.84c.07-.57.21-1.13.31-1.71.18-1.13,1.3-1.46,3.21-1.33a1.33,1.33,0,0,1,1.06.43,2.82,2.82,0,0,0-.53-2A5.15,5.15,0,0,0,25.64.93a3.69,3.69,0,0,0-3.1.79,4.17,4.17,0,0,0-1.31,2.76,6.45,6.45,0,0,0,.11,1.91,4.33,4.33,0,0,0,1.15,2.17c.13.14.29.27.45.41a2,2,0,0,1,0-.32,2.9,2.9,0,0,0-.44-1.56,1.92,1.92,0,0,1-.22-.56,1.13,1.13,0,0,1,.17-.79.51.51,0,0,1,.77,0,1.85,1.85,0,0,1,.27.63,7.88,7.88,0,0,1,.19.87,2.34,2.34,0,0,1,0,.7c0,.28,0,.56,0,.84a3.06,3.06,0,0,0,.07.85,2.7,2.7,0,0,0,.71,1.22,1.93,1.93,0,0,0,1.28.68,1.54,1.54,0,0,0,.94-.21,1.69,1.69,0,0,0,.38-.28c.1-.1.24-.16.35-.26a1.09,1.09,0,0,0,.13-.17A4.37,4.37,0,0,0,28,9.38Zm-.81-.09h.05a.19.19,0,0,1,.15,0c.2.17-.15.66-.3.77s-.38.29-.3,0l0-.14c0-.12,0-.26-.11-.25a.69.69,0,0,0-.25,0,.22.22,0,0,0-.18.14c0,.07,0,.14,0,.21a.26.26,0,0,1-.08.23.31.31,0,0,1-.23.05l-.2,0a.57.57,0,0,1-.3-.31.46.46,0,0,1,0-.49c.13-.23.55-.08.75-.08A4.73,4.73,0,0,0,27.14,9.29Z"/><path class="cls-32" d="M26.25,1.6a7.36,7.36,0,0,1,1.13.48l.3.16.25.14A4.69,4.69,0,0,0,25.64.93a3.69,3.69,0,0,0-3.1.79,4.17,4.17,0,0,0-1.31,2.76,6.45,6.45,0,0,0,.11,1.91,4.36,4.36,0,0,0,.84,1.81c0-.1,0-.19-.05-.27C22.05,7.45,22,7,22,6.49A9.4,9.4,0,0,1,22.13,4a3.34,3.34,0,0,1,3-2.52A2.74,2.74,0,0,1,26.25,1.6Z"/><path class="cls-33" d="M27.89,9.11a.63.63,0,0,0,.13-.2.26.26,0,0,0,0-.21s0,0,0,0a0,0,0,0,0,0,0L27.75,9c-.07.07-.14.12-.24.07s-.14-.11-.23-.15a.64.64,0,0,0-.28,0,5.81,5.81,0,0,1-.58.09,1.63,1.63,0,0,0-.54.05l-.24.1a1.59,1.59,0,0,0-.27.12l-.18.06a.61.61,0,0,1-.18,0,1.8,1.8,0,0,1-.39-.34,1.65,1.65,0,0,1-.42-.69s0-.1,0-.15a1.27,1.27,0,0,0,.11.7,1,1,0,0,0,.15.2,3,3,0,0,0,.44.43.69.69,0,0,0,.2.13c.09,0,.13,0,.21,0s.31-.18.47-.27L26,9.11a1.26,1.26,0,0,1,.27,0L26.79,9a.81.81,0,0,1,.56.08s.09.08.15.11A.34.34,0,0,0,27.89,9.11Z"/><path class="cls-32" d="M27.84,9.55l-.09.23c-.07.18-.17.34-.24.52-.4,1.09-1.81,1-2.66.55a1.1,1.1,0,0,1-.21-.14,2.11,2.11,0,0,1-.19-.23c-.07-.1-.15-.19-.22-.28a.71.71,0,0,1-.11-.25,4.36,4.36,0,0,1-.2-.73,3.64,3.64,0,0,1,0-.74,7.42,7.42,0,0,0,0-.82,4.6,4.6,0,0,0-.1-.84,1.52,1.52,0,0,0-.43-.75l.09.3a7.88,7.88,0,0,1,.19.87A4.28,4.28,0,0,1,23.5,8.7a3.07,3.07,0,0,0-.07.42,2.15,2.15,0,0,0,.32,1.31,3.62,3.62,0,0,0,.5.6l.07.08a1.78,1.78,0,0,0,.72.52,3,3,0,0,0,1,.12,1.84,1.84,0,0,0,1-.39,1.91,1.91,0,0,0,.58-.87A3.76,3.76,0,0,0,28,9.17C27.92,9.3,27.88,9.42,27.84,9.55Z"/><path class="cls-34" d="M25.8,55.76a1.52,1.52,0,0,1-1.27-.7,1.35,1.35,0,0,1-.06-1.41,1.5,1.5,0,0,1,.58-.59l3.13-1.81a1.54,1.54,0,0,1,1.54,0l.29.16a8.38,8.38,0,0,0,1.37.69l2.91,1.06-3.77,2.17-4.59.42ZM29,51.89a.73.73,0,0,0-.35.09l-3.13,1.8a.7.7,0,0,0-.26.28.5.5,0,0,0,0,.54.66.66,0,0,0,.62.31l4.4-.4,2-1.18-1.21-.44a8.41,8.41,0,0,1-1.5-.75L29.3,52A.73.73,0,0,0,29,51.89Z"/><polygon class="cls-35" points="40.79 37.18 40.67 37.61 36.39 34.85 36.81 34.57 40.79 37.18"/><polygon class="cls-36" points="40.67 37.61 36.39 34.85 36.42 35.49 40.45 38.21 40.67 37.61"/><polygon class="cls-35" points="41.52 36.43 41.06 36.58 39.38 43.76 39.84 43.55 41.52 36.43"/><polygon class="cls-36" points="41.06 36.58 39.38 43.76 38.66 43.26 40.34 36.08 41.06 36.58"/><polygon class="cls-35" points="46.62 38.39 46.16 38.54 45.92 48.59 46.38 48.38 46.62 38.39"/><polygon class="cls-36" points="46.16 38.54 45.92 48.59 45.2 48.09 45.44 38.04 46.16 38.54"/><path class="cls-37" d="M49.78,40.13v.11a.46.46,0,0,1-.22.32l-.4.23a.94.94,0,0,1-.78.1.88.88,0,0,1-.26-.12L38.74,36V35l10.39,4.53.25.14.2.11A.39.39,0,0,1,49.78,40.13Z"/><path class="cls-38" d="M49.78,39.26v1a.46.46,0,0,1-.22.32l-.4.23a.94.94,0,0,1-.78.1v-1l.75-.36Z"/><path class="cls-39" d="M49.56,39.6l-.4.23a1,1,0,0,1-1,0L38.74,35l1.46-.95,9.38,4.77A.44.44,0,0,1,49.56,39.6Z"/><path class="cls-40" d="M25.84,61.9v.64c0,2.55,3.67,4.61,8.19,4.61s8.19-2.08,8.18-4.63v-.64Z"/><path class="cls-41" d="M25.84,61.9c0,2.55,3.67,4.62,8.19,4.61s8.19-2.07,8.18-4.63S38.54,57.26,34,57.27,25.84,59.35,25.84,61.9Z"/><path class="cls-42" d="M27.64,60.88v.5c0,2,2.86,3.6,6.39,3.6s6.39-1.62,6.38-3.62v-.49Z"/><path class="cls-43" d="M27.64,60.88c0,2,2.86,3.6,6.39,3.6s6.38-1.62,6.38-3.61-2.86-3.61-6.39-3.6S27.64,58.89,27.64,60.88Z"/><path class="cls-44" d="M31.35,47.75V60.52c0,.83,1.2,1.51,2.68,1.51s2.68-.68,2.67-1.52V47.75Z"/><path class="cls-45" d="M31.35,47.75c0,.84,1.2,1.51,2.68,1.51s2.67-.68,2.67-1.51S35.5,46.23,34,46.24,31.35,46.92,31.35,47.75Z"/><polygon class="cls-46" points="38.42 49.28 38.86 49.48 39.65 60.12 39.21 59.86 38.42 49.28"/><polygon class="cls-36" points="38.86 49.48 39.65 60.12 40.42 59.71 39.63 49.07 38.86 49.48"/><polygon class="cls-46" points="41.46 47.52 41.9 47.72 42.68 58.36 42.24 58.1 41.46 47.52"/><polygon class="cls-36" points="41.9 47.72 42.68 58.36 43.45 57.94 42.66 47.3 41.9 47.72"/><path class="cls-47" d="M47.78,50.49a.76.76,0,0,1-.25.39s0,0,0,0L47.4,51h0l-13.12,7.5-2.58-2.55-7.43-7.27,13-7.57a.73.73,0,0,1,.26-.14h0a1.1,1.1,0,0,1,.26-.06.76.76,0,0,1,.87.15l8.42,6,.18.14c.5.41.54.75.63,1.88A4.29,4.29,0,0,1,47.78,50.49Z"/><path class="cls-38" d="M47.78,50.49a.76.76,0,0,1-.25.39s0,0,0,0L47.4,51h0l-13.12,7.5-2.58-2.55L47.09,47l.18.14c.5.41.54.75.63,1.88A4.29,4.29,0,0,1,47.78,50.49Z"/><path class="cls-48" d="M34.8,56.5c-.09-1.14-.14-1.47-.64-1.89l-8.6-6.09a.69.69,0,0,0-1.23.45v.55a5.07,5.07,0,0,0,.51,2.16c.35.83.8,1,1.26,1.42l5.79,4.3c1.28,1.07,2.47,1.59,2.78.57A4.1,4.1,0,0,0,34.8,56.5Z"/><path class="cls-49" d="M25.87,51.82l0,0a1.84,1.84,0,0,1-.65-.95.49.49,0,0,1,0-.12c0-.3-.05-1.06.41-1s.56.27.82.45l.92.65,2.33,1.65L32,54.08a7.87,7.87,0,0,1,1.62,1.25.67.67,0,0,1,.2.49,6.59,6.59,0,0,1,0,.77.57.57,0,0,1-.38.53c-.39.17-.76-.12-1.07-.34L32,56.53c-.55-.43-1.11-.85-1.67-1.27-.33-.26-3.17-2.4-3.55-2.68A8.14,8.14,0,0,1,25.87,51.82Z"/><path class="cls-46" d="M25.66,51.93l0,0A1.84,1.84,0,0,1,25,51a.49.49,0,0,1,0-.12c0-.3-.06-1.06.41-1s.56.27.82.45l.91.65,2.34,1.65,2.33,1.66a7.67,7.67,0,0,1,1.63,1.25.71.71,0,0,1,.2.49,6.59,6.59,0,0,1,0,.77.58.58,0,0,1-.39.53c-.39.17-.75-.12-1.06-.34-.13-.08-.24-.17-.36-.25l-1.67-1.28-3.55-2.67A9.51,9.51,0,0,1,25.66,51.93Z"/><path class="cls-48" d="M36.59,37.62A3.45,3.45,0,0,1,35,39.78l-6.18,3.6-3.31,4.27-1.83-1.42a.67.67,0,0,1-.17-.77l1-14a1.89,1.89,0,0,1,.09-.21,3.48,3.48,0,0,1,.43-.69,4.21,4.21,0,0,1,.7-.76,4.4,4.4,0,0,1,.69-.51l.17-.1,6.8-3.92a1,1,0,0,1,.41-.12.92.92,0,0,1,.48.16h0l0,0,2.16,1.26-3,3.87L33,32.55Z"/><path class="cls-47" d="M36.48,26.56l-3,3.87L33,32.56l2.75,1.5-8-3-2-1.31.86-.61,6.8-3.92a.9.9,0,0,1,.41-.11.85.85,0,0,1,.47.15h0l0,0Z"/><path class="cls-50" d="M33.17,34.68l-1.79.92-6.79-4.4a3.48,3.48,0,0,1,.43-.69,4.21,4.21,0,0,1,.7-.76l7.44,4.91Z"/><path class="cls-51" d="M38.65,39.3,36.73,27.36a.83.83,0,0,0-1.22-.91l-7.26,4.23a4.63,4.63,0,0,0-1.92,2.16l-1,14.06a.66.66,0,0,0,1,.83L37,41.46A3.49,3.49,0,0,0,38.65,39.3Z"/><polygon class="cls-52" points="38.81 62.38 38.81 63.2 49.68 56.95 49.68 56.12 38.81 62.38"/><polygon class="cls-46" points="38.81 62.38 35.59 61.13 35.59 61.95 38.81 63.2 38.81 62.38"/><polygon class="cls-53" points="35.59 61.13 46.47 54.87 49.68 56.12 38.81 62.38 35.59 61.13"/><path class="cls-54" d="M49.19,37s0-.08.05-.13.16-.19.18-.31a.55.55,0,0,0-.1-.35c-.07-.12-.2-.25-.32-.19l-.09.06a.24.24,0,0,1-.26,0c-.09-.07-.26-.36-.1-.41a.47.47,0,0,0,.35-.38l-.4,0a1.11,1.11,0,0,0-.41.08,1.15,1.15,0,0,0-.33.29c-.09.1-.12.21-.23.29a.81.81,0,0,1-.32.16,1.52,1.52,0,0,1-.42-.06,6,6,0,0,1-1-.21,1.09,1.09,0,0,0-.32-.1.61.61,0,0,0-.44.17,1.6,1.6,0,0,0-.28.4.84.84,0,0,0-.1.65.74.74,0,0,0,.22.28c.59.51,1.38.34,2.09.56l.05,0a.2.2,0,0,1,0,.08.47.47,0,0,0,.25.3,1.32,1.32,0,0,0,.38.13,1,1,0,0,0,.65,0c.19-.07.2-.18.26-.36a.84.84,0,0,1,.14-.24,1.13,1.13,0,0,1,.18-.12.24.24,0,0,0,.14-.16A4.66,4.66,0,0,1,49.19,37Z"/><path class="cls-55" d="M34.52,27.8a2,2,0,0,1,1.14-2.18c1.41-.62,2.58,1.12,3.2,2.06.09.14.16.28.24.42,1.11,2.16.79,5.43,3.47,6.42l1.13.42c.62.23,1.23.43,1.85.65.11,0,.5.25.61.2a1.19,1.19,0,0,0-.57.6,1.54,1.54,0,0,0-.22.88.92.92,0,0,1,.07.4s0,0-.06,0a1.48,1.48,0,0,0-.38-.37,3.76,3.76,0,0,0-.48-.13,3.61,3.61,0,0,0-.87-.06A8.25,8.25,0,0,1,41.93,37l-.44-.11-.66-.2a4.31,4.31,0,0,1-.87-.32,3.28,3.28,0,0,1-1-.88c-.18-.21-.46-.06-.59-.36-.73-1.74-1.33-1.74-2.12-3.45A16,16,0,0,1,34.52,27.8Z"/><path class="cls-56" d="M34.47,27.81a2.06,2.06,0,0,1,1.21-2.19A5.21,5.21,0,0,0,36,28.85c.31.93.65,1.84,1,2.74a18.25,18.25,0,0,0,1.76,3.18,4.73,4.73,0,0,0,.77,1.1,2.4,2.4,0,0,0,.51.31,9,9,0,0,0,1.6.57,12.6,12.6,0,0,0,1.94.28l1,0c.07,0,.7,0,.72.11a4.34,4.34,0,0,1,.41,1c0-.16-.76-.21-.87-.23-.52-.07-1-.13-1.52-.25l-1.88-.47-.36-.09-.3-.07-.84-.24a1.91,1.91,0,0,1-.62-.22,4.3,4.3,0,0,1-.8-.9,20.23,20.23,0,0,1-1.34-2c-.17-.28-.33-.55-.51-.82a17.23,17.23,0,0,1-1.52-2.54A7.72,7.72,0,0,1,34.47,27.81Z"/><path class="cls-57" d="M42.39,56.3c0,.11-.09.22-.14.34a1.13,1.13,0,0,0-.14.63,4.81,4.81,0,0,1,0,.87l1.54.71.66,0s.21.22.24.24a3.78,3.78,0,0,0,.68.51,3.72,3.72,0,0,0,1,.42,5.61,5.61,0,0,0,1.42.13.93.93,0,0,0,.29,0,1.85,1.85,0,0,0,.85-.58.88.88,0,0,0-.14-1A6,6,0,0,0,46.36,57l-.52-1.44s-1.11.24-1.18.25a2.14,2.14,0,0,1-1,.14,2.91,2.91,0,0,0-1.06-.07l-.06,0a.13.13,0,0,0,0,.06C42.48,56.1,42.43,56.2,42.39,56.3Z"/><path class="cls-58" d="M48.61,58.39c.25.27,0,.57-.29.68a1,1,0,0,1-.45,0,5,5,0,0,1-1-.17,4.4,4.4,0,0,1-.8-.26,4,4,0,0,1-.66-.31c-.21-.16-.24-.45-.37-.66s-.28-.34-.39-.53-.12-.42,0-.47a4,4,0,0,0,1.24-1L46.36,57a1.33,1.33,0,0,0,.3.11,6.89,6.89,0,0,1,.73.34,5.78,5.78,0,0,1,.84.55A4.26,4.26,0,0,1,48.61,58.39Z"/><path class="cls-57" d="M42.7,62.37a4.61,4.61,0,0,0-.27-.79c-.19-.47-.38-.95-.58-1.43a6.06,6.06,0,0,1-.18-1.75.42.42,0,0,0,0-.12c-.12-.24-.71-.29-.94-.29a6.59,6.59,0,0,0-.89,0,3.71,3.71,0,0,0-1.09.27c-.51.24-.44.64-.44,1.12a3.64,3.64,0,0,0,.07.74,3.74,3.74,0,0,0,.38,1h.13s0,.65,0,.69a3.35,3.35,0,0,0,.26,1,3.85,3.85,0,0,0,.41.71,3,3,0,0,0,1.23,1.15,1.68,1.68,0,0,0,.32.09,1.82,1.82,0,0,0,.57,0,1.36,1.36,0,0,0,.82-.33,1.64,1.64,0,0,0,.23-.92A3.25,3.25,0,0,0,42.7,62.37Z"/><path class="cls-58" d="M40.45,58.7a1.36,1.36,0,0,1,.62-.13c.19,0,.25.11.33.28a3,3,0,0,1,.18,1.06,6.08,6.08,0,0,0,.16.87c.1.4.34.79.45,1.18a2.9,2.9,0,0,1,.16,1.51.52.52,0,0,1-.06.13,1.24,1.24,0,0,1-.63.24h-.38c-.07,0-.34,0-.38-.05a9.34,9.34,0,0,1-.83-1,7.65,7.65,0,0,1-.53-1.21,4.45,4.45,0,0,1-.21-1.21,2,2,0,0,1,0-1,.57.57,0,0,1,.42-.4c.09,0,.19,0,.28,0A2,2,0,0,0,40.45,58.7Z"/><path class="cls-59" d="M31.14,43.22S41.68,48,41.89,49.16c.39,2.18.57,6.74.57,6.74a2.6,2.6,0,0,0,2.34.35l1.09-.52c0-1,.16-7.77-.27-9.23-.53-1.84-7.39-5.06-7.39-5.06Z"/><path class="cls-60" d="M37.82,56.32V56.2c-.12-.94-.07-1.88-.15-2.81a2.78,2.78,0,0,0-1.43-2.56,15.46,15.46,0,0,1-2.68-1.53c-.77-.53-1.59-1-2.36-1.49a3.43,3.43,0,0,1-1.53-2,5.73,5.73,0,0,1,0-3.38c0-.05.43-.8.43-.79s1.32,1.89,4.65.72,1.08-1.12,1.08-1.12c.22.4-1.36,0-1.26.46a6.31,6.31,0,0,0,1.87,2.52,53.5,53.5,0,0,1,4.33,4.45,5.6,5.6,0,0,1,1,4.17c0,.83,0,1.67,0,2.5a30.86,30.86,0,0,1,0,3.33c0,.14-.45.38-.56.44a2.29,2.29,0,0,1-1.58.28,2.43,2.43,0,0,1-1.55-.83,4,4,0,0,1-.13-1Z"/><path class="cls-61" d="M38.42,35.75c-.25,4.26-.19,5.69-.19,5.69s-2,3.11-8.68,1c0,0,.78-3.65.44-4.36s-2.63-3.48-2.69-5.14-.44-3,1.22-4.4c.92-.76,1.7-1.4,2.48-1.92a9.72,9.72,0,0,1,1.91-1,3.44,3.44,0,0,1,2,0,4.71,4.71,0,0,1,2.62,1.53C38.13,28,38.66,31.49,38.42,35.75Z"/><path class="cls-56" d="M34.92,25.56a3.44,3.44,0,0,0-2,0,10,10,0,0,0-1.91,1c-.78.52-1.56,1.16-2.48,1.92-1.66,1.37-1.29,2.74-1.22,4.4S29.65,37.31,30,38s-.44,4.36-.44,4.36a17.49,17.49,0,0,0,2,.52,20,20,0,0,0,0-2,16.45,16.45,0,0,0-.73-5.59,7.92,7.92,0,0,0-1.44-2.1A2.59,2.59,0,0,1,28.85,32a8.24,8.24,0,0,1-.28-1.38,1.35,1.35,0,0,1,.05-.6,1.52,1.52,0,0,1,.35-.49,8.09,8.09,0,0,1,2.36-2,10.87,10.87,0,0,1,2.92-.67,18,18,0,0,1,3-.12A5.32,5.32,0,0,0,34.92,25.56Z"/><path class="cls-19" d="M36,28.43a1.14,1.14,0,0,1-1.78,1.14c-.41-.29-.87-.63-1.33-1-1.66-1.38-1.9-2-1.9-2a9.72,9.72,0,0,1,1.91-1,3.44,3.44,0,0,1,2,0A14.83,14.83,0,0,1,36,28.39Z"/><path class="cls-20" d="M33.09,28.3A5.64,5.64,0,0,1,33,26.88c0-.44.15-.86.17-1.3,0,0,0-.06,0-.09l-.28.07a10,10,0,0,0-1.91,1s.24.6,1.9,2l.39.31C33.21,28.64,33.12,28.42,33.09,28.3Z"/><path class="cls-62" d="M31.28,26.34l-.07,0c-.13,0-.21.1-.31.16s-.38.26-.58.38.07.55.15.7a3.34,3.34,0,0,0,.53.76,5.11,5.11,0,0,0,1.33,1,6.17,6.17,0,0,0,1.08.49c.14,0,1,.45,1.06.34a1.93,1.93,0,0,0,0-.23c0-.1,0-.21,0-.31a5.7,5.7,0,0,0,.06-.58c0-.18-.1-.13-.26-.16a3.36,3.36,0,0,1-1-.41,6.55,6.55,0,0,1-1.12-.84,3.23,3.23,0,0,1-.7-1A.39.39,0,0,0,31.28,26.34Z"/><path class="cls-62" d="M36.7,26.67c0-.24,0-.55-.27-.65s-.28,0-.43.05-.32,0-.41.14a.47.47,0,0,0,0,.16l-.09.94a2.41,2.41,0,0,0,0,.38,1.63,1.63,0,0,0,.15.52c.06.12.08.24.13.36a7.14,7.14,0,0,1,.39,1,.82.82,0,0,0,.29-.39l.36-.79a1.48,1.48,0,0,0,.1-.27,1.07,1.07,0,0,0,0-.31,1.91,1.91,0,0,0-.08-.54A1.54,1.54,0,0,1,36.7,26.67Z"/><path class="cls-24" d="M31.62,24.93l-.11,1.32a5.92,5.92,0,0,0,2.17,1.57c1.34.54,1.74.23,1.74.23l.23-2.85S32.08,23.4,31.62,24.93Z"/><path class="cls-19" d="M31.62,24.93l-.11,1.32A6,6,0,0,0,33,27.49a4.12,4.12,0,0,1,0-.61c0-.44.15-.86.17-1.3A4.85,4.85,0,0,0,33,24.33C32.32,24.27,31.78,24.4,31.62,24.93Z"/><path class="cls-63" d="M47.07,51.69a1.27,1.27,0,0,1-.44.51,2.63,2.63,0,0,1-1.54.63c-.21,0-.41,0-.61,0-.95,0-1.79.1-1.84.85a1.48,1.48,0,0,1-.54.9,2.52,2.52,0,0,1-2.72.29l-.1,0c-1.34-.61-1.53.5-2.56.89a1.34,1.34,0,0,1-.37.1c-1.39.24-1.54-.1-1.54-.1s-1.05-3.63-3.67-5.13a9.54,9.54,0,0,1-3.69-3.79l-.27-4.54s-.47-2.28-.78-4.91a33.59,33.59,0,0,1-.31-4.16,6.11,6.11,0,0,1,2.79-5.26l2.62-1.69a4.87,4.87,0,0,0,2.23,1.24,2.28,2.28,0,0,0,1.74-.26l.11-1.17a2,2,0,0,1,.74-.53,1.14,1.14,0,0,1,.7-.06s.42-.09,1.51.86,2.51,6.12,2.53,6.56-.61,5.32-.61,6,3,4.84,4.75,6a3.55,3.55,0,0,1,1.23,1.58,6.6,6.6,0,0,1,.44,1.72A15.93,15.93,0,0,1,47,50c0,.31,0,.62.06.93A1.66,1.66,0,0,1,47.07,51.69Z"/><path class="cls-64" d="M36.72,55.73a1.34,1.34,0,0,1-.37.1c-1.39.24-1.54-.1-1.54-.1s-1.05-3.63-3.67-5.13a9.54,9.54,0,0,1-3.69-3.79l-.27-4.54s-.47-2.28-.78-4.91a2.19,2.19,0,0,1,.21-.23A1.48,1.48,0,0,1,28,36.74a2,2,0,0,1,1,.89A6.86,6.86,0,0,1,30,40.77,11.65,11.65,0,0,1,30,42.09a4.11,4.11,0,0,0,.17,1.15,8,8,0,0,0,1,2.36c.4.62.88,1.16,1.33,1.73a33.35,33.35,0,0,1,2.12,3.15,16.5,16.5,0,0,1,2,4.1A3,3,0,0,1,36.72,55.73Z"/><path class="cls-65" d="M42.1,54.6a2.52,2.52,0,0,1-2.72.29l-.1,0c-.12-.08-.07-1-.08-1.12a21.73,21.73,0,0,0-.66-3.91,10,10,0,0,0-.92-2.13,8.37,8.37,0,0,0-1.75-1.92c-.47-.46-1.67-1.08-1.44-1.88.37-.13,1,.17,1.31.3a7.78,7.78,0,0,1,1.37.72,9.52,9.52,0,0,1,2.07,1.79,14.29,14.29,0,0,1,1.41,1.7,7,7,0,0,1,1.12,2.88A23.27,23.27,0,0,1,42.1,54.6Z"/><polygon class="cls-36" points="23.23 42.99 25.18 41.71 25.09 42.34 23.27 43.55 23.23 42.99"/><polygon class="cls-35" points="27.18 45.05 27.05 45.48 22.77 42.72 23.2 42.45 27.18 45.05"/><polygon class="cls-35" points="22.89 42.65 23.23 42.99 25.18 41.71 24.71 41.44 22.89 42.65"/><polygon class="cls-36" points="27.05 45.48 22.77 42.72 22.81 43.36 26.84 46.09 27.05 45.48"/><polygon class="cls-35" points="27.91 44.31 27.45 44.46 25.77 51.64 26.23 51.43 27.91 44.31"/><polygon class="cls-36" points="27.45 44.46 25.77 51.64 25.05 51.14 26.73 43.96 27.45 44.46"/><polygon class="cls-35" points="33.01 46.27 32.55 46.42 32.3 56.47 32.77 56.26 33.01 46.27"/><polygon class="cls-36" points="32.55 46.42 32.3 56.47 31.58 55.97 31.83 45.92 32.55 46.42"/><path class="cls-37" d="M36.16,48v.1a.45.45,0,0,1-.21.33l-.4.23a1,1,0,0,1-.79.1,1.15,1.15,0,0,1-.25-.12l-9.38-4.77v-1l10.39,4.53.25.14.2.11A.35.35,0,0,1,36.16,48Z"/><path class="cls-38" d="M36.16,47.14v1a.45.45,0,0,1-.21.33l-.4.23a1,1,0,0,1-.79.1v-1l.76-.35Z"/><path class="cls-39" d="M36,47.47l-.4.24a1,1,0,0,1-1,0l-9.38-4.77,1.45-1L36,46.73A.44.44,0,0,1,36,47.47Z"/><path class="cls-54" d="M33.55,43s1,.52,1.36.76c.12.08.22.17.33.25.34.24.26.68.13,1s.11.33.23.5l.47.68a.25.25,0,0,1,0,.37l-.21.16s.37.44-.46.55-.69,0-1-.27a7.19,7.19,0,0,1-1.24-1.45c-.56-.87-.9-1.52-.9-1.52Z"/><path class="cls-55" d="M27.06,31.31l.05-.39a1.79,1.79,0,0,1,.3-1.07,1,1,0,0,1,1-.43,1.42,1.42,0,0,1,.86.47,3.39,3.39,0,0,1,.48.85,3.71,3.71,0,0,1,.36,1c.06.35.07.72.1,1.07a14.61,14.61,0,0,1,.06,1.87,7.67,7.67,0,0,1-.09,1.27,11.5,11.5,0,0,0-.28,1.42,2.37,2.37,0,0,0,.2,1.62,6.56,6.56,0,0,0,1.05,1.49l.89.82c.48.45,1,.87,1.46,1.31.08.08.36.42.48.42a1.17,1.17,0,0,0-.75.33c-.21.2-.5.43-.54.73a1.06,1.06,0,0,1-.09.4s0,0,0,0a1.35,1.35,0,0,0-.21-.49,2,2,0,0,0-.4-.3,3.75,3.75,0,0,0-.77-.4,7.68,7.68,0,0,1-1.58-.7c-.12-.08-.24-.18-.35-.27l-.54-.44a5.08,5.08,0,0,1-.68-.63,6.82,6.82,0,0,1-1.12-3.79,23.8,23.8,0,0,1-.14-3c0-.62.11-1.24.18-1.86Z"/><path class="cls-56" d="M26.49,31.19a5.69,5.69,0,0,1,.34-.86,1.44,1.44,0,0,1,1.36-.76,5.14,5.14,0,0,0-1,3.09c-.08,1-.11,2-.11,2.93a18.31,18.31,0,0,0,.4,3.61,5.19,5.19,0,0,0,.29,1.31,2.36,2.36,0,0,0,.35.48,8.54,8.54,0,0,0,1.26,1.14,12.47,12.47,0,0,0,1.68,1l.92.43c.06,0,.62.3.62.39a4.7,4.7,0,0,1,0,1.06c.05-.16-.62-.5-.72-.55-.44-.27-.88-.51-1.3-.82L29,42.5l-.3-.22-.25-.19c-.23-.17-.45-.36-.68-.54a2.27,2.27,0,0,1-.49-.44A4.14,4.14,0,0,1,26.94,40a19.51,19.51,0,0,1-.54-3.64c-.08-.75-.15-1.5-.18-2.25A9,9,0,0,1,26.49,31.19Z"/><path class="cls-66" d="M32.52,45.08a10.34,10.34,0,0,1-3.64-1.59l-1.7-1.22s-1.47-6.66-1-10.05A4.39,4.39,0,0,1,27,30a15.73,15.73,0,0,1,1.95-2.2A17.41,17.41,0,0,1,31.77,26a.52.52,0,0,0,.14.51,1.44,1.44,0,0,0,.46.29c-.2-.1-.93.59-1.06.72-.34.34-.6.74-.94,1.08a3.28,3.28,0,0,0-.57.61c-.19.31-.08.5,0,.78a7.65,7.65,0,0,1,.3,1,12.12,12.12,0,0,1,.37,2c.36,4.26.17,5.95,1.64,7.66a7.54,7.54,0,0,1,1.51,2.05S31.87,42.6,32.52,45.08Z"/><path class="cls-67" d="M33.78,42.89s-.54-.16-.77,0a1.39,1.39,0,0,0-.54,1.26,1.85,1.85,0,0,0,.15.85s.08.07-.1.06-.88-1.87.14-2.58C33.42,42,33.78,42.89,33.78,42.89Z"/><path class="cls-67" d="M45.55,35.59s-.6-.33-.78.16a19.8,19.8,0,0,0-.4,2.13l-.43-1.65L44.32,35h.74A.88.88,0,0,1,45.55,35.59Z"/><path class="cls-66" d="M39,27.87q-.13-.33-.3-.66a3,3,0,0,0-1-1.18,2.51,2.51,0,0,0-.46-.24,1.12,1.12,0,0,1-.26-.08c-.07-.05,0-.17,0-.26s.22,0,.26.05.27,0,.39.06a2.37,2.37,0,0,1,1,.66,5.13,5.13,0,0,1,.93,1.45,33.92,33.92,0,0,1,1.6,4.91.75.75,0,0,0,0,.16,2.13,2.13,0,0,0,.77.9,4.1,4.1,0,0,0,1.53.93c.9.19,1.74.41,1.74.41l.28.61s-.36-.82-.95-.33-.23,2.62-.23,2.62l-1.11,5.18s-2.47-2.7-2.81-3.87a5.28,5.28,0,0,1,0-1.86c0-.44.08-.88.13-1.31a4,4,0,0,0,.1-1.19C40.3,33,40,31.08,39.48,29.25A11.21,11.21,0,0,0,39,27.87Z"/><path class="cls-65" d="M46.91,51.69c0,.19,0,.32-.28.51a2.63,2.63,0,0,1-1.54.63c-.21,0-.41,0-.61,0-.27-.89-.23-2.06-.41-2.84a10.31,10.31,0,0,0-1.49-3.61c-.33-.46-.7-.89-1-1.32-.6-.73-1.59-1.71-1.1-2.75a.62.62,0,0,1,.25-.28c.28-.13.57.12.78.34.84.9,1.89,1.56,2.72,2.46.67.72,1.55,1.29,1.89,2.22A12.16,12.16,0,0,1,46.58,50a11.56,11.56,0,0,0,.25,1.33A2.43,2.43,0,0,1,46.91,51.69Z"/><path class="cls-54" d="M37.59,24.83l-.12.2s.41.12-.2.56-.53.34-.86.26a5.58,5.58,0,0,1-1.29-.38,1,1,0,0,1-.62-.16,1.24,1.24,0,0,1-.48-.4,0,0,0,0,0,0,0l-.11-.06,0,0-.06-.06a1.16,1.16,0,0,0-.31-.27L33,24.14l-.2-.09a5.09,5.09,0,0,0-.56-.14c-.38-.09-.76-.17-1.15-.24s-.61-.1-.92-.15c0-.08-.05-.15-.06-.22s-.08-.37-.13-.55h0c0-.15-.08-.31-.13-.45a9.21,9.21,0,0,0-.46-1.17l.24.14c.65.36,1.82,1,2.41,1.23s.87.36,1.3.54l.43.17c.3.11.63.17.93.28a1,1,0,0,1,.18.06c.3,0,.76-.07,1-.07s1.19-.32,1.17-.05-.57.36-.88.44h0a.28.28,0,0,1,.09.19l1.18.51A.16.16,0,0,1,37.59,24.83Z"/><path class="cls-6" d="M36.8,24.37c.23.84-.41,1.41-1.51,1.66A4.28,4.28,0,0,1,33.58,26L33,25.83l-.14,0-.11,0-.15-.05c-3.82-1.59-2.37-2.6-2.4-4.07a1.27,1.27,0,0,1,0-.34,1.43,1.43,0,0,1,.07-.28,4.67,4.67,0,0,1,2.62-2.81,2,2,0,0,1,1.79.46,4.46,4.46,0,0,1,.7.67l.07.11C36.07,20.34,36.57,23.57,36.8,24.37Z"/><path class="cls-7" d="M35.5,19.44s0,0,0,0a1.6,1.6,0,0,1-.49.36,6.71,6.71,0,0,1-1.53.67c-.23.06-.58.09-.75.29a1.39,1.39,0,0,0-.27.59,1.71,1.71,0,0,0,0,.32,3.33,3.33,0,0,0,.13,1.13c.14.35.25.73.36,1.09a3.56,3.56,0,0,1,.11.86A2.84,2.84,0,0,0,33.58,26L33,25.83a.39.39,0,0,0-.14,0l-.11,0-.15-.05c-3.82-1.59-2.37-2.6-2.4-4.07a1.27,1.27,0,0,1,0-.34,1.43,1.43,0,0,1,.07-.28,2.92,2.92,0,0,1,1.16-1.42,5.21,5.21,0,0,1,1.05-.54,4.46,4.46,0,0,1,1.52-.33,6.75,6.75,0,0,0,.68-.06,4.46,4.46,0,0,1,.7.67Z"/><path class="cls-8" d="M35.4,19.28a1.35,1.35,0,0,0-1.13.11c-1.72.76-2.55,1.56-2.19,2.63.09.28.18.56.26.84,0,0,0,.08,0,.13s.07.23.11.34l0,.15.06.18c0,.1.07.21.12.32a.55.55,0,0,0-.45.15,1.32,1.32,0,0,0-.18-.33c-.18-.23-.35-.46-.55-.67h0c-.05-.06-.12-.12-.18-.18a1.12,1.12,0,0,0-.35-.23.53.53,0,0,0-.35,0,.34.34,0,0,0-.14.09.45.45,0,0,0-.17.28,1.12,1.12,0,0,0,.21.76,1.81,1.81,0,0,0,.44.39,2.83,2.83,0,0,1,1.1,1.15c0,.06.08.27.11.3a4.91,4.91,0,0,1-.58-.15,4.17,4.17,0,0,1-2-1.37,5.62,5.62,0,0,1-1-1.61,4.1,4.1,0,0,1-.13-3,3.64,3.64,0,0,1,2.34-2.11,5,5,0,0,1,3.16.4A2.77,2.77,0,0,1,35.4,19.28Z"/><path class="cls-32" d="M31.72,17.72a7.88,7.88,0,0,1,1.2-.1h.61a4.57,4.57,0,0,0-2.66-.21,3.64,3.64,0,0,0-2.34,2.11,4.1,4.1,0,0,0,.13,3,6,6,0,0,0,1,1.61,4.25,4.25,0,0,0,1.56,1.2L31,25.12A13.52,13.52,0,0,1,30.21,24a9.52,9.52,0,0,1-1-2.24,3.27,3.27,0,0,1,1.44-3.56A2.54,2.54,0,0,1,31.72,17.72Z"/><path class="cls-9" d="M36.77,23.77c-.09-.3-.1-.64-.17-1a1.25,1.25,0,0,0-.17-.49s-.07-.09-.12-.07-.06.09-.06.14a.62.62,0,0,1-.19.56,1.07,1.07,0,0,1-.31.13,5.93,5.93,0,0,0-.62.4,2.38,2.38,0,0,1-.4.16l-.13.06c-.18.08-.34.19-.51.27a1.46,1.46,0,0,1-.5.12c-.13,0-.24,0-.35-.06l-.12-.14a.21.21,0,0,0-.25-.06l-.14.06c-.1,0-.29,0-.37.12a.25.25,0,0,0,0,.09.9.9,0,0,0,0,.54,2.1,2.1,0,0,0,.29.5l.49.66a.66.66,0,0,0,.14.15,1.18,1.18,0,0,0,.45.14c.22.05.41.17.63.2a4.36,4.36,0,0,0,.94-.1,1.91,1.91,0,0,0,.47-.07,2.13,2.13,0,0,0,.45-.34c.19-.14.42-.22.54-.41a1.29,1.29,0,0,0,.11-.62c0-.15,0-.31,0-.46A2.29,2.29,0,0,0,36.77,23.77ZM35.52,25a.93.93,0,0,1-.4.06.13.13,0,0,1-.1,0c-.19-.14,0-.39.18-.46a4.16,4.16,0,0,1,.42-.23,1.81,1.81,0,0,0,.31-.09c.08,0,.15-.11.23-.1.23,0,.22.32.11.44s-.41.21-.59.33Z"/><polygon class="cls-68" points="34.05 26.14 33.17 24.86 32.98 24.77 33.68 26.43 33.81 26.48 34.05 26.14"/><polygon class="cls-69" points="32.74 25.12 32.98 24.77 33.88 26.09 33.68 26.43 32.74 25.12"/><path class="cls-68" d="M33.31,25.56s-.18-.28-1.19.09l-2.93,1,.39.36s3.11-1.48,3.79-1.25Z"/><path class="cls-69" d="M33.24,25.44s-.18-.29-1.19.09l-2.93,1,.39.36s3.25-1.45,3.93-1.22Z"/><path class="cls-54" d="M30.89,27a1.43,1.43,0,0,1-.06.35,2.59,2.59,0,0,1-.17.38c-.06.12-.12.24-.26.27a1.9,1.9,0,0,0-.25,0,1.42,1.42,0,0,1-.18.08c-.11,0-.23-.06-.34,0l-.1.06c-.26.16-.51,0-.74-.12s-.35,0-.48-.17-.19-.44-.35-.57a2.42,2.42,0,0,0-.58-.23h0a3.79,3.79,0,0,1-.73-.28,5.44,5.44,0,0,0-.54-.27c-.65-.3-1.31-.57-2-.86-.19-.08-.38-.18-.56-.27l-.26-.12L22.87,25c-.16-.1-.47-.2-.54-.38a1.36,1.36,0,0,1,.14-.76,1.53,1.53,0,0,1,.31-.52,1.05,1.05,0,0,1,.54-.13,4.84,4.84,0,0,1,1.14,0c.3.05.6.45.82.66s.72.69,1.11,1a4,4,0,0,0,.85.55c.44.21.91.37,1.36.56a2.81,2.81,0,0,0,.91.21,3.86,3.86,0,0,1,.74.1l.35.09a.28.28,0,0,1,.18.11,1.8,1.8,0,0,1,.08.21A1,1,0,0,1,30.89,27Z"/><path class="cls-19" d="M27.38,27h0a3.79,3.79,0,0,1-.73-.28,5.44,5.44,0,0,0-.54-.27c-.65-.3-1.31-.57-2-.86-.19-.08-.38-.18-.56-.27l-.26-.12a.16.16,0,0,1-.05-.11.19.19,0,0,1,0-.15.12.12,0,0,1,.08-.06.75.75,0,0,1,.72.1l.38.2.84.41a9.84,9.84,0,0,1,1.63.94A2.14,2.14,0,0,1,27.38,27Z"/><path class="cls-70" d="M24.18,22.88s0,0,0,0v0a1.9,1.9,0,0,1-.3.44,3.8,3.8,0,0,1-1,.95,1,1,0,0,1-.29.14c-.11,0-.39.2-.49.09a4.52,4.52,0,0,1-.56-1.12,4.19,4.19,0,0,0-.24-.42,10,10,0,0,0-.61-.84c-.18-.21-.37-.41-.56-.61a.81.81,0,0,1-.13-.3c0-.14-.09-.28-.14-.42-.18-.51-.37-1-.57-1.51a24.57,24.57,0,0,0-1.16-2.43,9,9,0,0,1-.61-1.3,2.75,2.75,0,0,1-.21-1.26,4.9,4.9,0,0,1,.09-1A3.43,3.43,0,0,1,18,12.28a1.92,1.92,0,0,1,1.11-.86h.28A2.24,2.24,0,0,1,20.6,12a6.18,6.18,0,0,1,1.54,3.58c.06.35.08.71.11,1.07.06.63.08,1.27.09,1.9a6.7,6.7,0,0,0,.83,3.18,6.7,6.7,0,0,0,.69.81A1.3,1.3,0,0,0,24.18,22.88Z"/><path class="cls-71" d="M22.68,24.43l-.08,0a4.12,4.12,0,0,1-.47.13.16.16,0,0,1-.09,0c-.1,0-.14-.06-.21-.13l-.17-.21,0-.05h0a3.79,3.79,0,0,1-.2-.34c-.11-.19-.25-.37-.36-.55L21,23.12c-.08-.13-.14-.26-.21-.4s-.23-.45-.35-.68a6.68,6.68,0,0,1-.39-.81l-.15-.42c-.17-.5-.36-1-.56-1.49a24.16,24.16,0,0,0-1.15-2.41,6.82,6.82,0,0,1-.9-2.42,3,3,0,0,1,.82-2.4c.28-.31.59-.78,1.09-.72a1.76,1.76,0,0,1,1.13.34,1.62,1.62,0,0,0-1.1.7,1.81,1.81,0,0,0-.18.27,2.8,2.8,0,0,0-.43,2.08,11.58,11.58,0,0,0,1.06,2.32,7.43,7.43,0,0,1,1.09,2.42,14.52,14.52,0,0,0,.87,2.66c.25.59.52,1.18.81,1.75.05.11.11.21.17.32Z"/><path class="cls-21" d="M22.32,25.35l.29.23c.47.35,1,0,1.36-.38a4.69,4.69,0,0,0,1.13-1.71c.09-.22-.26-.35-.4-.46l-.13-.12c-.16-.18-.18-.48-.34-.64a.25.25,0,0,0-.25-.06c-.05,0-.37.16-.39.14l.2.17c.49.41-1.07,1.65-1.39,1.87s-.54.34-.74-.08c-.1.25-.15.48.08.68S22.14,25.21,22.32,25.35Z"/><path class="cls-72" d="M48.42,36.05c.06,0,.12,0,.19,0a.22.22,0,0,0-.11-.12.2.2,0,0,0-.28.14s0,.07,0,.11a.35.35,0,0,1-.1.11c-.12.09-.27.14-.35.26a1,1,0,0,0-.07.15,2,2,0,0,1-.29.51.76.76,0,0,0-.08.11.56.56,0,0,0,0,.12l-.13.54a.25.25,0,0,0,0,.12s.06.06.09,0a.28.28,0,0,1,.07-.26,1.81,1.81,0,0,0,.18-.23c0-.11,0-.24.1-.33s.19-.13.27-.21.13-.41.3-.52l.08,0a.36.36,0,0,0,0-.09l.09-.26A.24.24,0,0,1,48.42,36.05Z"/><path d="M25.51,6.74a.14.14,0,0,0,.11.17.13.13,0,0,0,.17-.11.14.14,0,0,0-.11-.17A.13.13,0,0,0,25.51,6.74Z"/><path class="cls-73" d="M26.18,6.85a.79.79,0,0,1-.25.08A1.4,1.4,0,0,1,25,6.65a3.65,3.65,0,0,0,.61.23A.94.94,0,0,0,26.18,6.85Z"/><path class="cls-73" d="M26.19,6.83c0-.07-.06-.13-.17-.21a1.19,1.19,0,0,0-1,0,3.76,3.76,0,0,1,.66,0A.77.77,0,0,1,26.19,6.83Z"/><path d="M28,6.82a.13.13,0,0,1-.11.16A.14.14,0,1,1,28,6.82Z"/><path class="cls-73" d="M27.31,6.93s.07.05.2.08a1.66,1.66,0,0,0,1-.28,3.77,3.77,0,0,1-.62.22A.75.75,0,0,1,27.31,6.93Z"/><path class="cls-73" d="M27.31,6.92a.33.33,0,0,1,.16-.23,1.13,1.13,0,0,1,1,0,3.34,3.34,0,0,0-.67-.07A.72.72,0,0,0,27.31,6.92Z"/><path class="cls-74" d="M27.23,6.33c0-.06-.08-.09.35-.15a1.62,1.62,0,0,1,.86,0c.33.09,0,0-.22,0a2.68,2.68,0,0,0-.64.08S27.22,6.42,27.23,6.33Z"/><path class="cls-74" d="M26.42,6.32c0-.07.09-.1-.38-.18a1.54,1.54,0,0,0-.94,0c-.36.1,0,.05.24,0a3,3,0,0,1,.7.09S26.43,6.43,26.42,6.32Z"/><path class="cls-74" d="M33.78,21.56c-.06-.1,0-.18-.47,0a1.08,1.08,0,0,0-.79.51c-.23.32,0,.07.23-.09a2,2,0,0,1,.68-.22S33.87,21.7,33.78,21.56Z"/><path class="cls-74" d="M34.7,21.31c0-.09-.13-.08.21-.37a1,1,0,0,1,.79-.33c.36,0,0,.07-.18.13a1.84,1.84,0,0,0-.53.39S34.76,21.45,34.7,21.31Z"/><path class="cls-75" d="M25.62,9.63a2.19,2.19,0,0,1,.62-.14,2.37,2.37,0,0,0,.41,0c.12,0,.68,0,.68,0a1.6,1.6,0,0,1-.61.23A2.58,2.58,0,0,1,25.62,9.63Z"/><path class="cls-76" d="M26.09,8.59c-.09-.07,0-.41.28-.47,0,0-.09-.06,0-.27C26.38,7.85,25.73,8.41,26.09,8.59Z"/><path class="cls-76" d="M26.59,8.45c-.13-.08-.48-.06-.44.09S26.25,8.45,26.59,8.45Z"/><path class="cls-76" d="M26.85,6.75a.25.25,0,0,0,0,.09,1.22,1.22,0,0,0-.05.25s0,.11,0,.17a1.28,1.28,0,0,0,0,.19.75.75,0,0,0,0,.2,1.19,1.19,0,0,0,.08.2c.07.13.15.25.2.37a.3.3,0,0,1,0,.16.2.2,0,0,1-.11.11.58.58,0,0,1-.27,0,.27.27,0,0,1-.11,0,.28.28,0,0,0,.11,0h.12a.51.51,0,0,0,.17,0,.24.24,0,0,0,.15-.13.27.27,0,0,0,0-.2A1.11,1.11,0,0,0,27.06,8L27,7.82a.67.67,0,0,1-.07-.18,1.46,1.46,0,0,1-.05-.2,2.08,2.08,0,0,1,0-.35c0-.1,0-.19,0-.25Z"/><path class="cls-74" d="M33.91,22.14a.78.78,0,0,1-1.2.33,2.84,2.84,0,0,0,1.2-.33Z"/><path class="cls-74" d="M35.94,21a.68.68,0,0,1-.95.63,2.47,2.47,0,0,0,.95-.63Z"/><path class="cls-77" d="M34.77,22.47a.41.41,0,0,1,.38.7,1.34,1.34,0,0,0-.38-.7Z"/><path class="cls-77" d="M36.16,24.32a.86.86,0,0,1-1,.57c.37-.25.67-.35,1-.57Z"/></g></g></svg>