<svg xmlns="http://www.w3.org/2000/svg" width="115" height="115" viewBox="0 0 115 115">
    <defs>
        <filter id="Rectangle_4147" width="115" height="115" x="0" y="0" filterUnits="userSpaceOnUse">
            <feOffset dy="2"/>
            <feGaussianBlur result="blur" stdDeviation="2.5"/>
            <feFlood flood-color="#5797e4" flood-opacity=".161"/>
            <feComposite in2="blur" operator="in"/>
            <feComposite in="SourceGraphic"/>
        </filter>
        <style>
            .cls-2{fill:#f39700}
        </style>
    </defs>
    <g id="Amazon" transform="translate(15.5 10.5)">
        <g filter="url(#Rectangle_4147)" transform="matrix(1, 0, 0, 1, -15.5, -10.5)"/>
        <path id="Path_15056" d="M5.8 75.954a60.609 60.609 0 0 0 30.835 19.38 52.877 52.877 0 0 0 32.127-3.485 45.516 45.516 0 0 0 13.472-9.5 1.288 1.288 0 0 0-.4-1.725 2.379 2.379 0 0 0-1.611-.01 80.876 80.876 0 0 1-23.5 7.948 72.1 72.1 0 0 1-25.673-1.784A89.952 89.952 0 0 1 7.019 74.559a1 1 0 0 0-1.27.646 1.02 1.02 0 0 0 .051.749z" class="cls-2" transform="translate(-5.699 -6.415)"/>
        <path id="Path_15057" d="M77.906 77.881a34.353 34.353 0 0 1 9.932-.45c.046.008.091.017.136.028a2.018 2.018 0 0 1 1.494 2.434 41.158 41.158 0 0 1-3.074 9.307.512.512 0 0 0 .789.568 16.814 16.814 0 0 0 6.312-13.016 2.517 2.517 0 0 0-2.076-2.672 19.5 19.5 0 0 0-13.967 2.891.513.513 0 0 0 .454.906z" class="cls-2" transform="translate(-9.558 -6.382)"/>
        <path id="Path_15058" d="M58.423 61.686a33.215 33.215 0 0 1-5.869 5.11 27.534 27.534 0 0 1-13.536 3.8 20.261 20.261 0 0 1-11.668-4.01 19.594 19.594 0 0 1-5.55-20.264 22.737 22.737 0 0 1 13.249-13.953A74.9 74.9 0 0 1 56.3 29.228v-7.537a7.656 7.656 0 0 0-6.656-6.517 12.2 12.2 0 0 0-6.328.826 9.887 9.887 0 0 0-5.505 7 2.431 2.431 0 0 1-2.554 1.358l-10.33-.909a2.3 2.3 0 0 1-1.7-2.053 20.928 20.928 0 0 1 7.431-12.82A29.287 29.287 0 0 1 49.007 2.5 29.757 29.757 0 0 1 66.11 8.1a17.5 17.5 0 0 1 6.23 14.187v26.037a17.012 17.012 0 0 0 1.616 6.321l3.221 4.693a2.631 2.631 0 0 1 0 2.27l-9.529 8.025a2.548 2.548 0 0 1-2.573-.09 49.575 49.575 0 0 1-6.652-7.857zm-2.152-23.608a52.641 52.641 0 0 0-8.937.585 12.77 12.77 0 0 0-8.445 6.375 12.685 12.685 0 0 0 .622 10.911 8.261 8.261 0 0 0 9.562 2.463 15.875 15.875 0 0 0 7.2-11.23v-9.1" transform="translate(-6.669 -2.5)"/>
    </g>
</svg>
