<svg xmlns="http://www.w3.org/2000/svg" xmlns:xlink="http://www.w3.org/1999/xlink" width="24" height="24" viewBox="0 0 24 24">
  <defs>
    <style>
      .cls-1, .cls-5 {
        fill: #fff;
      }

      .cls-1 {
        stroke: #707070;
      }

      .cls-2 {
        clip-path: url(#clip-path);
      }

      .cls-3 {
        fill: #243b7b;
      }

      .cls-4 {
        fill: #21a8ff;
      }

      .cls-5 {
        font-size: 6px;
        font-family: Poppins-ExtraBold, Poppins;
        font-weight: 800;
      }
    </style>
    <clipPath id="clip-path">
      <rect id="Rectangle_26" data-name="Rectangle 26" class="cls-1" width="24" height="24" transform="translate(-40 6)"/>
    </clipPath>
  </defs>
  <g id="Mask_Group_25" data-name="Mask Group 25" class="cls-2" transform="translate(40 -6)">
    <g id="trolley_1_" data-name="trolley (1)" transform="translate(-40 4)">
      <path id="Path_2637" data-name="Path 2637" class="cls-3" d="M19.091,19H7.1a2.907,2.907,0,0,1-2.8-2.07l-2.04-10.3A.9.9,0,0,0,1.382,6H1A1,1,0,1,1,1,4h.382a2.905,2.905,0,0,1,2.8,2.07L4.748,8h17.3a1.972,1.972,0,0,1,1.583.8,1.889,1.889,0,0,1,.288,1.7l-2.063,6.548A2.9,2.9,0,0,1,19.091,19Zm2.953-9h.01Z"/>
      <path id="Path_2638" data-name="Path 2638" class="cls-4" d="M11,24a2,2,0,1,1,2-2A2,2,0,0,1,11,24Zm0-2h0Z" transform="translate(-3)"/>
      <path id="Path_2639" data-name="Path 2639" class="cls-4" d="M18,24a2,2,0,1,1,2-2A2,2,0,0,1,18,24Zm0-2h0Z"/>
    </g>
    <text id="KENT" class="cls-5" transform="translate(-34.5 19.7)"><tspan x="0" y="0">KENT</tspan></text>
  </g>
</svg>
