<svg id="Layer_1" data-name="Layer 1" xmlns="http://www.w3.org/2000/svg" viewBox="0 0 40 40"><defs><style>.cls-1{fill:#3d253f;}.cls-2{fill:#ffa49c;}.cls-3{opacity:0.27;}.cls-4{fill:#4f2511;}.cls-5{fill:#955243;}.cls-6{fill:#b6c0eb;}.cls-7{fill:#352b34;}.cls-8{fill:#e57876;}.cls-9{fill:#be8e8c;}.cls-10{fill:#a06d6d;}.cls-11{fill:#7e5986;}.cls-12{fill:#fed46b;}.cls-13{fill:#5482d3;}.cls-14{fill:#37558a;}.cls-15{fill:#87453a;}.cls-16{fill:#58485b;}.cls-17{fill:#e3599a;}.cls-18{fill:#704c7c;}.cls-19{fill:#e86c67;}.cls-20{fill:#7c4927;}.cls-21{fill:#c14b85;}</style></defs><path class="cls-1" d="M26.74,31.48a2.74,2.74,0,0,1,0,.69.76.76,0,0,0,.17.6l3-.14s.1-.38-.23-.49a4.67,4.67,0,0,1-1.18-.4l-.5-.41Z"/><path class="cls-1" d="M27.87,31.48a2.74,2.74,0,0,1,0,.69.68.68,0,0,0,.14.56l3-.1s.1-.38-.23-.49a4.89,4.89,0,0,1-1.19-.4l-.5-.41Z"/><path class="cls-2" d="M21.69,14.29c0,.06-.36.12-.36.12v.28l-.16.06,0,.12-.13.09a.33.33,0,0,1-.06.4c-.06.05-.22,0-.42,0-.39-.12-.92-.41-1-.61a5.9,5.9,0,0,1-.13-.94c0-.22,0-.4,0-.5s.06-.94.27-1.12a.63.63,0,0,1,.41,0h.05a9.83,9.83,0,0,1,1.31.37s.21.67.12.85a.76.76,0,0,0-.09.16S21.69,14.23,21.69,14.29Z"/><path class="cls-2" d="M20.72,15.23a.71.71,0,0,0-.12.1.82.82,0,0,0-.19.3l-1.28-.52-.27-.06s.14-.58.19-.94a.81.81,0,0,0,0-.25,3.48,3.48,0,0,1-.21-1,1.66,1.66,0,0,1,.4-.74c.15-.12.72,0,.89,0h.05l.15.91Z"/><g class="cls-3"><path class="cls-4" d="M20.37,12.27s.29.61,0,.79a.77.77,0,0,0-.34.68,1.91,1.91,0,0,0-.43,0l-.09.06-.44.33a.81.81,0,0,0,0-.25,3.48,3.48,0,0,1-.21-1,1.66,1.66,0,0,1,.4-.74c.15-.12.72,0,.89,0h.05Z"/></g><path class="cls-5" d="M20.66,13.44a2.75,2.75,0,0,1,.76-.1s0,.13-.06.16A4.69,4.69,0,0,1,20.66,13.44Z"/><path class="cls-6" d="M25,26.42c-.09,0-2-.46-2.27-.94s1.92-.57,1.92-.57.63,1.13.63,1.19S25,26.42,25,26.42Z"/><path class="cls-7" d="M20.75,13.65a1.9,1.9,0,0,0,.49.06v-.12Z"/><polygon class="cls-8" points="21.18 14.75 21.2 14.87 21.14 14.93 20.9 14.72 21.32 14.61 21.33 14.69 21.18 14.75"/><path class="cls-2" d="M19.75,13.58c.1.25.05.5-.1.56s-.34-.11-.44-.36-.05-.5.1-.56S19.66,13.33,19.75,13.58Z"/><path class="cls-9" d="M28.9,24.07a3.54,3.54,0,0,0,0,1.13c.07.92.19,5.69.25,6s-1.11.46-1.9.3a16.53,16.53,0,0,0,0-3.19,15.31,15.31,0,0,1,0-3.2A10.28,10.28,0,0,1,28.9,24.07Z"/><path class="cls-9" d="M23.87,24.32s1.89,5.19,2.61,7.3c0,0,1.53.21,1.82-.09S27,23.47,26.63,23,23.87,24.32,23.87,24.32Z"/><path class="cls-10" d="M28.32,31.38s0,0-.05,0a40.48,40.48,0,0,0-.9-5.35,0,0,0,0,1,0-.06,0,0,0,0,1,.05,0,39.58,39.58,0,0,1,.91,5.38.07.07,0,0,1,0,.05Z"/><path class="cls-9" d="M17.27,25.56s-.25-1.26.31-1.15a13.94,13.94,0,0,0,5.74.09c.1,0,.85.94-.2,1.34S17.27,25.56,17.27,25.56Z"/><path class="cls-11" d="M24.23,26.34c-1.43,1.21-7.48,0-7.48,0l.11-1,7.38.14S24.6,26,24.23,26.34Z"/><path class="cls-12" d="M16.83,21.07l.28,3.52a3,3,0,0,0,1.66.13c.29-.06,4.2.14,4.2.14l-2.23-3.4-1.5-1.58H17.4Z"/><path class="cls-13" d="M18.85,14.89a19.5,19.5,0,0,0-2,1.55,6.25,6.25,0,0,0-1.77,2.4c-.1.49.46,5,.46,5s1.56-2.34,1.88-2.66.71-1.14,1.07-1.47,2.18,3.62,2.27,4.46c.13,1.17.68,1.63,4.06,1.82,1.09.06,1.95.86,2.4.91s1.88,2,2.12,1.94-.18-3.28-.18-4.75a2.16,2.16,0,0,0-1.73-2.14c-1.22-.22-3.72-.58-4.7-3.53a5,5,0,0,0-2-2.74A6.69,6.69,0,0,0,18.85,14.89Z"/><path class="cls-14" d="M26.11,22h0a8.45,8.45,0,0,1-2.45-.57,0,0,0,0,1,0-.08,8.57,8.57,0,0,0,2.42.57,0,0,0,0,1,0,.05A0,0,0,0,1,26.11,22Z"/><path class="cls-14" d="M25,24.91a.05.05,0,0,1,0,0,8.65,8.65,0,0,1-.87-2.52c0-.47-.9-.95-1.73-1.41a4.66,4.66,0,0,1-1.67-1.2,10.12,10.12,0,0,1-.84-2.11.06.06,0,0,1,0-.06.05.05,0,0,1,.06,0,9.94,9.94,0,0,0,.82,2.09,5,5,0,0,0,1.64,1.17c.89.49,1.73.95,1.77,1.48A8.79,8.79,0,0,0,25,24.84a0,0,0,0,1,0,.06Z"/><path class="cls-2" d="M19.16,18.17a5.26,5.26,0,0,1-.11,1.3,28.92,28.92,0,0,0,4.36.61,2.12,2.12,0,0,1,.47,1.16c0,.21-.52.69-.67.69s.05-1-.2-1c-.81.06-1-.17-1-.17a21,21,0,0,1-2.2.22c-.46,0-1.36-.17-1.62-.17s-1-.75-1-.75Z"/><path class="cls-1" d="M15.68,22.45l.83,4.66a14.41,14.41,0,0,0,8.32-.3l0-.08c0-.38-.34-.48-.74-.49-1.67,0-5.94-.06-6.17-.19-.91-.49-.67-3.79,1.47-3.77S23,22.17,23,22.17l0-.56-7.24.22Z"/><path class="cls-8" d="M20.52,15.33h0a2.05,2.05,0,0,1-1-.81s0,0,0-.06a0,0,0,0,1,.06,0,2.12,2.12,0,0,0,.92.77,0,0,0,0,1,0,.06S20.54,15.33,20.52,15.33Z"/><path class="cls-11" d="M22.91,20.85H16c-.21,0-.38.23-.38.51s.17.51.38.51h7c.2,0,.37-.23.37-.51S23.11,20.85,22.91,20.85Z"/><path class="cls-5" d="M21.47,12.58s.47,0,.52-.38,0-.65-.85-.65a4.9,4.9,0,0,0-1.52,0c-.41.13-.54.59-.28.59a6.48,6.48,0,0,1,1,.08C20.52,12.29,21.47,12.58,21.47,12.58Z"/><path class="cls-13" d="M19.51,17.51S17.66,21,17,21.87l-1.47,1.95-.26-3.49,2.83-2.82Z"/><path class="cls-14" d="M19.23,18.08h0a.06.06,0,0,1,0-.07,2.84,2.84,0,0,0,.43-1.17.07.07,0,0,1,.05,0s0,0,0,.05a3,3,0,0,1-.45,1.22Z"/><path class="cls-14" d="M16.36,19.21l0,0a0,0,0,0,1,0-.06,9.69,9.69,0,0,0,2.79-2,0,0,0,0,1,.06,0,0,0,0,0,1,0,.06,9.67,9.67,0,0,1-2.82,2Z"/><path class="cls-15" d="M21.49,12.46h0s0,0,0,0,.33-.2.33-.37a.19.19,0,0,0-.12-.15,1.85,1.85,0,0,0-1.21-.22l-.81.05s0,0,0,0a0,0,0,0,1,0,0s.25,0,.81-.05a2,2,0,0,1,1.24.22.23.23,0,0,1,.14.2c0,.2-.33.41-.35.41A0,0,0,0,1,21.49,12.46Z"/><path class="cls-15" d="M21.24,12.41h0a0,0,0,0,1,0,0,.44.44,0,0,0,.13-.27.24.24,0,0,0-.13-.16,5,5,0,0,0-1.56,0,0,0,0,0,1,0,0l0,0a4.92,4.92,0,0,1,1.59.06.3.3,0,0,1,.15.21.42.42,0,0,1-.15.31Z"/><path class="cls-8" d="M19.41,13.38s-.09.35.09.47c0,0-.07-.18.07-.2S19.6,13.3,19.41,13.38Z"/><polygon class="cls-11" points="26.59 32.8 26.26 32.9 24.36 26.94 24.84 26.8 26.59 32.8"/><path class="cls-11" d="M31.21,32.57l-4.86.22a.19.19,0,0,0-.18.21.2.2,0,0,0,.2.2L31.23,33a.2.2,0,0,0,.17-.22A.18.18,0,0,0,31.21,32.57Z"/><rect class="cls-16" x="19.32" y="27.53" width="1.6" height="2.48"/><path class="cls-1" d="M21.42,32.29v-2.4H18.87v2.4a1.42,1.42,0,0,1-1.39,1.4,2.33,2.33,0,0,0-1.39.41v.31h8.09V34.1a2.55,2.55,0,0,0-1.37-.41A1.42,1.42,0,0,1,21.42,32.29Z"/><path class="cls-16" d="M23.81,34.07h-7.3s0,0,0,0a0,0,0,0,1,0-.05h7.3a0,0,0,0,1,0,.05S23.83,34.07,23.81,34.07Z"/><path class="cls-2" d="M9,32.59a.94.94,0,0,1-.12.68c-.21.33,1.26.62,1.26.62l.47-.62a.86.86,0,0,1-.11-.58C10.61,32.39,9,32.59,9,32.59Z"/><path class="cls-2" d="M12,32.63,12,33l.85.37.79-.49s-.2-.21-.19-.37S12,32.63,12,32.63Z"/><path class="cls-2" d="M13.48,14.32s1.92-.87,2.08-.93,1.09-.77,1.09-.77l1.82.06a6.65,6.65,0,0,0-.89.68c-.39.35-.74.16-1,.41a12,12,0,0,1-2.69,2.09.85.85,0,0,1-.89-.58S13.48,14.32,13.48,14.32Z"/><path class="cls-11" d="M10.27,18l.52,2.66c.08.36,1.27,5.88,1.27,5.88A19.52,19.52,0,0,0,12,32.18l1.61-.09s.45-4.46.69-5.37-.46-5-.54-5.24-.3-2.6-.3-2.6Z"/><path class="cls-17" d="M9.65,15.18s-.26,2.52-.26,2.66c0,.3,2.41.79,2.55.82s1.16.37,1.66.07c.05,0,.52-2.86.65-3.55a18.43,18.43,0,0,0-.08-4c-.14-.36-.37-.92-.37-.92Z"/><path class="cls-2" d="M12.25,7.22a1.27,1.27,0,0,1,1-1.25,1.73,1.73,0,0,1,2.07.91,2.13,2.13,0,0,1,0,1l-.12.21.06.45a.1.1,0,0,1-.08.11l-.23,0L13.84,9l-.1,1s-.81-1-1.05-1.22a2.73,2.73,0,0,0-1-.37S12.08,8.16,12.25,7.22Z"/><path class="cls-17" d="M11.31,8.84l.47-.68A4,4,0,0,1,13.9,10v.9Z"/><path class="cls-11" d="M10.78,9.1a5,5,0,0,0-.95,1.59c-.32.93-.24,6.34-.24,6.34s3.63,1.44,4.41.81c0,0,.46-3.14.46-3.85a17.3,17.3,0,0,0-.06-2.56C14.3,11.05,11.73,7.67,10.78,9.1Z"/><path class="cls-18" d="M12.5,16.55a5.26,5.26,0,0,1-1.58-.27s0,0,0-.06a.05.05,0,0,1,.07,0,4.59,4.59,0,0,0,2.25.18.06.06,0,0,1,.06,0,.05.05,0,0,1,0,.06A3,3,0,0,1,12.5,16.55Z"/><path class="cls-5" d="M8.68,34.5s3.69.47,4.12.11,0-.61,0-.61a3.34,3.34,0,0,1-1.42-.45,4.27,4.27,0,0,1-.75-.57s-.62.57-.85.55c-.5,0-.68-.38-.8-.41s-.25.53-.3.64A1,1,0,0,0,8.68,34.5Z"/><path class="cls-11" d="M9.37,17.83a14.08,14.08,0,0,0-.48,2.86c0,1.69.16,5.24.16,5.24a22.35,22.35,0,0,0,0,5.9l1.73.1a43,43,0,0,1,.6-4.89,28,28,0,0,0,.16-5.55A17.27,17.27,0,0,1,13.29,19Z"/><path class="cls-1" d="M9.42,17.69l-.1.42a11.94,11.94,0,0,0,4.22,1.2s.13-.53.06-.54C12,18.43,9.42,17.69,9.42,17.69Z"/><polygon class="cls-11" points="11.15 18.05 10.96 18.85 11.52 19.02 11.67 18.26 11.15 18.05"/><polygon class="cls-11" points="9.65 17.68 9.49 18.34 9.83 18.54 10 17.79 9.65 17.68"/><path class="cls-11" d="M12.88,18.54v.89h.29l.07-.84Z"/><path class="cls-5" d="M11.65,34.32s3.66.36,4.09,0a.34.34,0,0,0,0-.61,3.24,3.24,0,0,1-1.41-.44,5.41,5.41,0,0,1-.74-.58s-.6.57-.83.56c-.5,0-.67-.39-.79-.42s-.25.53-.3.65A1.46,1.46,0,0,0,11.65,34.32Z"/><path class="cls-19" d="M12.3,6.88s-.08.51-.15.74c0,0,.35,0,.87-.18a1.06,1.06,0,0,0,.66-.36l0,.34a1.23,1.23,0,0,0,.21,0s.17-.31.31-.38.57-.26.57-.26l.57.18c.09,0,0-.34,0-.34Z"/><path class="cls-19" d="M13.66,7.08s-.57,1.28-.36,1.79.89,1.25,1.14,1.08,0-.64.28-.88a1,1,0,0,0,.2-.37.64.64,0,0,0-.64,0c-.21.11-.59-.39-.41-1.42Z"/><path class="cls-1" d="M12.32,7a6,6,0,0,0,2.13-.14,3.14,3.14,0,0,1,.84-.1A1.49,1.49,0,0,0,13.6,5.26c-.89.08-.89.22-1,.47A8,8,0,0,0,12.32,7Z"/><path class="cls-1" d="M12.46,6.24h-.07s-.21.67-.14.71a5.63,5.63,0,0,0,1.1.13c.18,0,.89-.2,1.06-.2s.91-.14.95-.14a2.66,2.66,0,0,0-.14-.64c0-.07-.32,0-.32,0Z"/><path class="cls-2" d="M13.74,7.37c0,.27-.15.49-.32.49s-.33-.22-.33-.49.15-.49.33-.49S13.74,7.1,13.74,7.37Z"/><path class="cls-8" d="M13.57,7.49s.13-.35-.07-.4,0,.23,0,.28-.1.17-.07.19S13.57,7.49,13.57,7.49Z"/><path class="cls-19" d="M14.53,7.75a1.57,1.57,0,0,1,.73,0s0,.16-.1.14Z"/><path class="cls-18" d="M9,31.64a3.22,3.22,0,0,0-.06,1.08c0,.21,1.83.21,1.86.11a3.54,3.54,0,0,0,.1-1.16A9.23,9.23,0,0,0,9,31.64Z"/><path class="cls-18" d="M11.74,31.55a5.6,5.6,0,0,0,.15,1.18c0,.12,1.66.19,1.81-.26a2.68,2.68,0,0,0,0-1.15Z"/><path class="cls-7" d="M14.55,8a1,1,0,0,0,.4.1L15,8Z"/><path class="cls-2" d="M14.63,9.1c-.08,0-.25-.14-.3-.18s0,0,0-.06,0,0,.06,0a.92.92,0,0,0,.24.15,0,0,0,0,1,0,.05A0,0,0,0,1,14.63,9.1Z"/><path class="cls-16" d="M13.09,6.3a3.5,3.5,0,0,1-.53,0,0,0,0,0,1,0,0,0,0,0,0,1,.05-.05A9.78,9.78,0,0,0,14.93,6a.08.08,0,0,1,.06,0s0,.06,0,.06A10.09,10.09,0,0,1,13.09,6.3Z"/><path class="cls-20" d="M12.67,34.67h0a.06.06,0,0,1,0-.07c0-.07.17-.28.13-.38s0-.06-.1-.07a7,7,0,0,1-1.17-.38l-.17-.07s-.05,0-.05,0a.07.07,0,0,1,0-.06s0,0,.22.08a6.41,6.41,0,0,0,1.15.38.22.22,0,0,1,.17.12c.07.18-.12.45-.14.48Zm-1.35-1Zm0,0Z"/><path class="cls-20" d="M10.39,33.47h0s0-.05,0-.07a.92.92,0,0,1,.46-.31s0,0,0,0a0,0,0,0,1,0,.05.81.81,0,0,0-.4.28Z"/><path class="cls-20" d="M10.56,33.6h0a0,0,0,0,1,0-.07.82.82,0,0,1,.45-.31s0,0,.06,0a.06.06,0,0,1,0,.06.77.77,0,0,0-.39.27Z"/><path class="cls-20" d="M10.78,33.73h0s0,0,0-.07a.92.92,0,0,1,.46-.31s.05,0,.06,0a.06.06,0,0,1,0,.06.88.88,0,0,0-.4.27Z"/><path class="cls-20" d="M13.42,33.22h0a.06.06,0,0,1,0-.07.92.92,0,0,1,.45-.31s.06,0,.06,0,0,.06,0,.06a.81.81,0,0,0-.4.28Z"/><path class="cls-20" d="M13.65,33.38h0s0,0,0-.07a.92.92,0,0,1,.45-.31,0,0,0,0,1,.06,0s0,0,0,.06a.82.82,0,0,0-.4.27Z"/><path class="cls-20" d="M13.91,33.54h0a.06.06,0,0,1,0-.07.91.91,0,0,1,.46-.32s.05,0,.05,0a0,0,0,0,1,0,.06.82.82,0,0,0-.4.27S13.93,33.54,13.91,33.54Z"/><path class="cls-2" d="M16.65,12.62a3.89,3.89,0,0,1,.56-.43.83.83,0,0,1,.45.1l-.6.35Z"/><path class="cls-18" d="M11.48,20.05a2.28,2.28,0,0,1-.69-.12s0,0,0-.06a.05.05,0,0,1,.07,0s1.06.41,1.54-.31a0,0,0,0,1,.07,0s0,0,0,.07A1.1,1.1,0,0,1,11.48,20.05Z"/><path class="cls-18" d="M13.21,11.79a1,1,0,0,1-.3,0,.06.06,0,0,1,0-.07,0,0,0,0,1,.06,0,1.41,1.41,0,0,0,.91-.1.05.05,0,0,1,.07,0,.07.07,0,0,1,0,.06A2,2,0,0,1,13.21,11.79Z"/><path class="cls-7" d="M19.26,12.39s-.27-.21-.36-.26a1,1,0,0,0-.85.08,6.37,6.37,0,0,0-1.15.28c-.38.19-.68.39-.49.52s.53,0,.72-.16,1-.13,1-.13Z"/><path class="cls-2" d="M16.63,13.11a1,1,0,0,0,.34-.49c.06-.3,1-.56,1.24-.46s.49.36.26.52a11.22,11.22,0,0,1-1.4.59Z"/><path class="cls-2" d="M10.75,11.72a35.83,35.83,0,0,0,2.61,3.9c.9,1,4,.61,4.39.92s.91-.07.95,0-.33.62-.17.67a1.2,1.2,0,0,0,.9-.34,1,1,0,0,0,.16-.9c-.15-.37-1.39-.25-1.66-.46-.06,0-2.71-.51-3-.7s-1.32-2.21-1.47-2.48c-.33-.57-.68-1.94-1.39-2.12S10.59,11.27,10.75,11.72Z"/><path class="cls-17" d="M11.58,13.89l2.18-1.64a2.17,2.17,0,0,1-.35-.61c0-.21-.53.16-.75.32-.66.47-1.56,1.17-1.56,1.17Z"/><path class="cls-17" d="M11.35,13.27a8.69,8.69,0,0,1-.85-1.73c-.22-1.17,1.22-2.23,1.91-1.84s.94,2.06.94,2.06Z"/><path class="cls-21" d="M11.26,13s0,0-.06,0,0-.05,0-.06L13,11.64s.05,0,.07,0a.07.07,0,0,1,0,.07L11.27,13Z"/></svg>